<svg xmlns="http://www.w3.org/2000/svg" xmlns:xlink="http://www.w3.org/1999/xlink" contentStyleType="text/css" data-diagram-type="DESCRIPTION" height="883px" preserveAspectRatio="none" style="width:2779px;height:883px;background:#FFFFFF;" version="1.1" viewBox="0 0 2779 883" width="2779px" zoomAndPan="magnify"><defs/><g><!--cluster Cloud Server--><g class="cluster" data-entity="Cloud Server" data-source-line="7" data-uid="ent0003" id="cluster_Cloud Server"><path d="M1762.5,147.55 L1865.0615,147.55 A3.75,3.75 0 0 1 1867.5615,150.05 L1874.5615,169.8469 L2769.5,169.8469 A2.5,2.5 0 0 1 2772,172.3469 L2772,715.1 A2.5,2.5 0 0 1 2769.5,717.6 L1762.5,717.6 A2.5,2.5 0 0 1 1760,715.1 L1760,150.05 A2.5,2.5 0 0 1 1762.5,147.55" fill="#90EE90" style="stroke:#000000;stroke-width:1.5;"/><line style="stroke:#000000;stroke-width:1.5;" x1="1760" x2="1874.5615" y1="169.8469" y2="169.8469"/><text fill="#000000" font-family="sans-serif" font-size="14" font-weight="bold" lengthAdjust="spacing" textLength="101.5615" x="1764" y="162.5451">Cloud Server</text></g><!--cluster Smart Cart--><g class="cluster" data-entity="Smart Cart" data-source-line="18" data-uid="ent0008" id="cluster_Smart Cart"><path d="M8.5,144.8 L95.4072,144.8 A3.75,3.75 0 0 1 97.9072,147.3 L104.9072,167.0969 L1603.5,167.0969 A2.5,2.5 0 0 1 1606,169.5969 L1606,666.71 A2.5,2.5 0 0 1 1603.5,669.21 L8.5,669.21 A2.5,2.5 0 0 1 6,666.71 L6,147.3 A2.5,2.5 0 0 1 8.5,144.8" fill="#FFA500" style="stroke:#000000;stroke-width:1.5;"/><line style="stroke:#000000;stroke-width:1.5;" x1="6" x2="104.9072" y1="167.0969" y2="167.0969"/><text fill="#000000" font-family="sans-serif" font-size="14" font-weight="bold" lengthAdjust="spacing" textLength="85.9072" x="10" y="159.7951">Smart Cart</text></g><!--cluster Sensors--><g class="cluster" data-entity="Sensors" data-source-line="24" data-uid="ent0012" id="cluster_Sensors"><path d="M32.5,187.8 L96.2334,187.8 A3.75,3.75 0 0 1 98.7334,190.3 L105.7334,210.0969 L1418.5,210.0969 A2.5,2.5 0 0 1 1421,212.5969 L1421,298.89 A2.5,2.5 0 0 1 1418.5,301.39 L32.5,301.39 A2.5,2.5 0 0 1 30,298.89 L30,190.3 A2.5,2.5 0 0 1 32.5,187.8" fill="#808080" style="stroke:#000000;stroke-width:1.5;"/><line style="stroke:#000000;stroke-width:1.5;" x1="30" x2="105.7334" y1="210.0969" y2="210.0969"/><text fill="#000000" font-family="sans-serif" font-size="14" font-weight="bold" lengthAdjust="spacing" textLength="62.7334" x="34" y="202.7951">Sensors</text></g><!--entity GO--><g class="entity" data-entity="GO" data-source-line="8" data-uid="ent0004" id="entity_GO"><rect fill="#F1F1F1" height="62.5938" rx="2.5" ry="2.5" style="stroke:#181818;stroke-width:0.5;" width="116.2412" x="1962.88" y="402.63"/><rect fill="#F1F1F1" height="10" style="stroke:#181818;stroke-width:0.5;" width="15" x="2059.1212" y="407.63"/><rect fill="#F1F1F1" height="2" style="stroke:#181818;stroke-width:0.5;" width="4" x="2057.1212" y="409.63"/><rect fill="#F1F1F1" height="2" style="stroke:#181818;stroke-width:0.5;" width="4" x="2057.1212" y="413.63"/><text fill="#000000" font-family="sans-serif" font-size="14" lengthAdjust="spacing" textLength="76.2412" x="1977.88" y="435.6251">Golang API</text><text fill="#000000" font-family="sans-serif" font-size="14" lengthAdjust="spacing" textLength="71.2852" x="1977.88" y="451.922">(Backend)</text></g><!--entity redis--><g class="entity" data-entity="redis" data-source-line="9" data-uid="ent0005" id="entity_redis"><rect fill="#F1F1F1" height="62.5938" rx="2.5" ry="2.5" style="stroke:#181818;stroke-width:0.5;" width="152.5947" x="1775.7" y="222.8"/><rect fill="#F1F1F1" height="10" style="stroke:#181818;stroke-width:0.5;" width="15" x="1908.2947" y="227.8"/><rect fill="#F1F1F1" height="2" style="stroke:#181818;stroke-width:0.5;" width="4" x="1906.2947" y="229.8"/><rect fill="#F1F1F1" height="2" style="stroke:#181818;stroke-width:0.5;" width="4" x="1906.2947" y="233.8"/><text fill="#000000" font-family="sans-serif" font-size="14" lengthAdjust="spacing" textLength="88.7715" x="1790.7" y="255.7951">Redis Server</text><text fill="#000000" font-family="sans-serif" font-size="14" lengthAdjust="spacing" textLength="112.5947" x="1790.7" y="272.092">(Session/Cache)</text></g><!--entity MariaDB--><g class="entity" data-entity="MariaDB" data-source-line="10" data-uid="ent0006" id="entity_MariaDB"><path d="M2097.4,552.22 C2097.4,542.22 2178.005,542.22 2178.005,542.22 C2178.005,542.22 2258.61,542.22 2258.61,552.22 L2258.61,691.595 C2258.61,701.595 2178.005,701.595 2178.005,701.595 C2178.005,701.595 2097.4,701.595 2097.4,691.595 L2097.4,552.22" fill="#F1F1F1" style="stroke:#181818;stroke-width:0.5;"/><path d="M2097.4,552.22 C2097.4,562.22 2178.005,562.22 2178.005,562.22 C2178.005,562.22 2258.61,562.22 2258.61,552.22" fill="none" style="stroke:#181818;stroke-width:0.5;"/><text fill="#000000" font-family="sans-serif" font-size="14" lengthAdjust="spacing" textLength="59.2676" x="2107.4" y="579.2151">MariaDB</text><text fill="#000000" font-family="sans-serif" font-size="14" lengthAdjust="spacing" textLength="70.5059" x="2107.4" y="595.512">- Products</text><text fill="#000000" font-family="sans-serif" font-size="14" lengthAdjust="spacing" textLength="79.29" x="2107.4" y="611.8089">- User Data</text><text fill="#000000" font-family="sans-serif" font-size="14" lengthAdjust="spacing" textLength="70.0479" x="2107.4" y="628.1057">- Cart Info</text><text fill="#000000" font-family="sans-serif" font-size="14" lengthAdjust="spacing" textLength="79.4609" x="2107.4" y="644.4026">- Operators</text><text fill="#000000" font-family="sans-serif" font-size="14" lengthAdjust="spacing" textLength="92.7021" x="2107.4" y="660.6995">- Preferences</text><text fill="#000000" font-family="sans-serif" font-size="14" lengthAdjust="spacing" textLength="113.8184" x="2107.4" y="676.9964">- Purchase Stats</text><text fill="#000000" font-family="sans-serif" font-size="14" lengthAdjust="spacing" textLength="141.21" x="2107.4" y="693.2932">- Minimap Map Data</text></g><!--entity InfluxDB--><g class="entity" data-entity="InfluxDB" data-source-line="11" data-uid="ent0007" id="entity_InfluxDB"><path d="M1962.92,192.55 C1962.92,182.55 2045.9996,182.55 2045.9996,182.55 C2045.9996,182.55 2129.0792,182.55 2129.0792,192.55 L2129.0792,315.6281 C2129.0792,325.6281 2045.9996,325.6281 2045.9996,325.6281 C2045.9996,325.6281 1962.92,325.6281 1962.92,315.6281 L1962.92,192.55" fill="#F1F1F1" style="stroke:#181818;stroke-width:0.5;"/><path d="M1962.92,192.55 C1962.92,202.55 2045.9996,202.55 2045.9996,202.55 C2045.9996,202.55 2129.0792,202.55 2129.0792,192.55" fill="none" style="stroke:#181818;stroke-width:0.5;"/><text fill="#000000" font-family="sans-serif" font-size="14" lengthAdjust="spacing" textLength="59.3633" x="1972.92" y="219.5451">InfluxDB</text><text fill="#000000" font-family="sans-serif" font-size="14" lengthAdjust="spacing" textLength="146.1592" x="1972.92" y="235.842">(Sensor Time-Series)</text><text fill="#000000" font-family="sans-serif" font-size="14" lengthAdjust="spacing" textLength="59.0967" x="1972.92" y="252.1389">- Weight</text><text fill="#000000" font-family="sans-serif" font-size="14" lengthAdjust="spacing" textLength="79.7822" x="1972.92" y="268.4357">- Ultrasonic</text><text fill="#000000" font-family="sans-serif" font-size="14" lengthAdjust="spacing" textLength="44.4404" x="1972.92" y="284.7326">- Light</text><text fill="#000000" font-family="sans-serif" font-size="14" lengthAdjust="spacing" textLength="37.6797" x="1972.92" y="301.0295">- GPS</text><text fill="#000000" font-family="sans-serif" font-size="14" lengthAdjust="spacing" textLength="116.293" x="1972.92" y="317.3264">- Camera Events</text></g><!--entity vue--><g class="entity" data-entity="vue" data-source-line="20" data-uid="ent0009" id="entity_vue"><rect fill="#F1F1F1" height="62.5938" rx="2.5" ry="2.5" style="stroke:#181818;stroke-width:0.5;" width="149.7236" x="1440.14" y="222.8"/><rect fill="#F1F1F1" height="10" style="stroke:#181818;stroke-width:0.5;" width="15" x="1569.8636" y="227.8"/><rect fill="#F1F1F1" height="2" style="stroke:#181818;stroke-width:0.5;" width="4" x="1567.8636" y="229.8"/><rect fill="#F1F1F1" height="2" style="stroke:#181818;stroke-width:0.5;" width="4" x="1567.8636" y="233.8"/><text fill="#000000" font-family="sans-serif" font-size="14" lengthAdjust="spacing" textLength="109.7236" x="1455.14" y="255.7951">Vue.js + Vite UI</text><text fill="#000000" font-family="sans-serif" font-size="14" lengthAdjust="spacing" textLength="62.5283" x="1455.14" y="272.092">(Display)</text></g><!--entity mqtt--><g class="entity" data-entity="mqtt" data-source-line="21" data-uid="ent0010" id="entity_mqtt"><rect fill="#F1F1F1" height="62.5938" rx="2.5" ry="2.5" style="stroke:#181818;stroke-width:0.5;" width="154.3242" x="592.84" y="402.63"/><rect fill="#F1F1F1" height="10" style="stroke:#181818;stroke-width:0.5;" width="15" x="727.1642" y="407.63"/><rect fill="#F1F1F1" height="2" style="stroke:#181818;stroke-width:0.5;" width="4" x="725.1642" y="409.63"/><rect fill="#F1F1F1" height="2" style="stroke:#181818;stroke-width:0.5;" width="4" x="725.1642" y="413.63"/><text fill="#000000" font-family="sans-serif" font-size="14" lengthAdjust="spacing" textLength="91.0547" x="607.84" y="435.6251">MQTT Broker</text><text fill="#000000" font-family="sans-serif" font-size="14" lengthAdjust="spacing" textLength="114.3242" x="607.84" y="451.922">(Sensor Stream)</text></g><!--entity telegraf--><g class="entity" data-entity="telegraf" data-source-line="22" data-uid="ent0011" id="entity_telegraf"><rect fill="#F1F1F1" height="62.5938" rx="2.5" ry="2.5" style="stroke:#181818;stroke-width:0.5;" width="168.4336" x="1261.78" y="590.62"/><rect fill="#F1F1F1" height="10" style="stroke:#181818;stroke-width:0.5;" width="15" x="1410.2136" y="595.62"/><rect fill="#F1F1F1" height="2" style="stroke:#181818;stroke-width:0.5;" width="4" x="1408.2136" y="597.62"/><rect fill="#F1F1F1" height="2" style="stroke:#181818;stroke-width:0.5;" width="4" x="1408.2136" y="601.62"/><text fill="#000000" font-family="sans-serif" font-size="14" lengthAdjust="spacing" textLength="57.8184" x="1276.78" y="623.6151">Telegraf</text><text fill="#000000" font-family="sans-serif" font-size="14" lengthAdjust="spacing" textLength="128.4336" x="1276.78" y="639.912">(Metrics Collector)</text></g><!--entity ultrasonic--><g class="entity" data-entity="ultrasonic" data-source-line="25" data-uid="ent0013" id="entity_ultrasonic"><rect fill="#F1F1F1" height="62.5938" rx="2.5" ry="2.5" style="stroke:#181818;stroke-width:0.5;" width="184.8535" x="517.57" y="222.8"/><rect fill="#F1F1F1" height="10" style="stroke:#181818;stroke-width:0.5;" width="15" x="682.4235" y="227.8"/><rect fill="#F1F1F1" height="2" style="stroke:#181818;stroke-width:0.5;" width="4" x="680.4235" y="229.8"/><rect fill="#F1F1F1" height="2" style="stroke:#181818;stroke-width:0.5;" width="4" x="680.4235" y="233.8"/><text fill="#000000" font-family="sans-serif" font-size="14" lengthAdjust="spacing" textLength="122.7188" x="532.57" y="255.7951">Ultrasonic Sensor</text><text fill="#000000" font-family="sans-serif" font-size="14" lengthAdjust="spacing" textLength="144.8535" x="532.57" y="272.092">(Obstacle Detection)</text></g><!--entity lux--><g class="entity" data-entity="lux" data-source-line="26" data-uid="ent0014" id="entity_lux"><rect fill="#F1F1F1" height="62.5938" rx="2.5" ry="2.5" style="stroke:#181818;stroke-width:0.5;" width="200.0566" x="736.97" y="222.8"/><rect fill="#F1F1F1" height="10" style="stroke:#181818;stroke-width:0.5;" width="15" x="917.0266" y="227.8"/><rect fill="#F1F1F1" height="2" style="stroke:#181818;stroke-width:0.5;" width="4" x="915.0266" y="229.8"/><rect fill="#F1F1F1" height="2" style="stroke:#181818;stroke-width:0.5;" width="4" x="915.0266" y="233.8"/><text fill="#000000" font-family="sans-serif" font-size="14" lengthAdjust="spacing" textLength="87.377" x="751.97" y="255.7951">Light Sensor</text><text fill="#000000" font-family="sans-serif" font-size="14" lengthAdjust="spacing" textLength="160.0566" x="751.97" y="272.092">(Backup Mode Trigger)</text></g><!--entity weight--><g class="entity" data-entity="weight" data-source-line="27" data-uid="ent0015" id="entity_weight"><rect fill="#F1F1F1" height="62.5938" rx="2.5" ry="2.5" style="stroke:#181818;stroke-width:0.5;" width="142.0332" x="971.98" y="222.8"/><rect fill="#F1F1F1" height="10" style="stroke:#181818;stroke-width:0.5;" width="15" x="1094.0132" y="227.8"/><rect fill="#F1F1F1" height="2" style="stroke:#181818;stroke-width:0.5;" width="4" x="1092.0132" y="229.8"/><rect fill="#F1F1F1" height="2" style="stroke:#181818;stroke-width:0.5;" width="4" x="1092.0132" y="233.8"/><text fill="#000000" font-family="sans-serif" font-size="14" lengthAdjust="spacing" textLength="102.0332" x="986.98" y="255.7951">Weight Sensor</text><text fill="#000000" font-family="sans-serif" font-size="14" lengthAdjust="spacing" textLength="75.373" x="986.98" y="272.092">(Load Cell)</text></g><!--entity nfc--><g class="entity" data-entity="nfc" data-source-line="28" data-uid="ent0016" id="entity_nfc"><rect fill="#F1F1F1" height="62.5938" rx="2.5" ry="2.5" style="stroke:#181818;stroke-width:0.5;" width="256.1045" x="1148.95" y="222.8"/><rect fill="#F1F1F1" height="10" style="stroke:#181818;stroke-width:0.5;" width="15" x="1385.0545" y="227.8"/><rect fill="#F1F1F1" height="2" style="stroke:#181818;stroke-width:0.5;" width="4" x="1383.0545" y="229.8"/><rect fill="#F1F1F1" height="2" style="stroke:#181818;stroke-width:0.5;" width="4" x="1383.0545" y="233.8"/><text fill="#000000" font-family="sans-serif" font-size="14" lengthAdjust="spacing" textLength="120.333" x="1163.95" y="255.7951">NFC/RFID Reader</text><text fill="#000000" font-family="sans-serif" font-size="14" lengthAdjust="spacing" textLength="216.1045" x="1163.95" y="272.092">(Product Scan / Card Payment)</text></g><!--entity camera--><g class="entity" data-entity="camera" data-source-line="29" data-uid="ent0017" id="entity_camera"><rect fill="#F1F1F1" height="62.5938" rx="2.5" ry="2.5" style="stroke:#181818;stroke-width:0.5;" width="184.04" x="45.98" y="222.8"/><rect fill="#F1F1F1" height="10" style="stroke:#181818;stroke-width:0.5;" width="15" x="210.02" y="227.8"/><rect fill="#F1F1F1" height="2" style="stroke:#181818;stroke-width:0.5;" width="4" x="208.02" y="229.8"/><rect fill="#F1F1F1" height="2" style="stroke:#181818;stroke-width:0.5;" width="4" x="208.02" y="233.8"/><text fill="#000000" font-family="sans-serif" font-size="14" lengthAdjust="spacing" textLength="73.0967" x="60.98" y="255.7951">AI Camera</text><text fill="#000000" font-family="sans-serif" font-size="14" lengthAdjust="spacing" textLength="144.04" x="60.98" y="272.092">(Object Recognition)</text></g><!--entity gps--><g class="entity" data-entity="gps" data-source-line="30" data-uid="ent0018" id="entity_gps"><rect fill="#F1F1F1" height="62.5938" rx="2.5" ry="2.5" style="stroke:#181818;stroke-width:0.5;" width="217.8848" x="265.06" y="222.8"/><rect fill="#F1F1F1" height="10" style="stroke:#181818;stroke-width:0.5;" width="15" x="462.9448" y="227.8"/><rect fill="#F1F1F1" height="2" style="stroke:#181818;stroke-width:0.5;" width="4" x="460.9448" y="229.8"/><rect fill="#F1F1F1" height="2" style="stroke:#181818;stroke-width:0.5;" width="4" x="460.9448" y="233.8"/><text fill="#000000" font-family="sans-serif" font-size="14" lengthAdjust="spacing" textLength="83.5352" x="280.06" y="255.7951">GPS Module</text><text fill="#000000" font-family="sans-serif" font-size="14" lengthAdjust="spacing" textLength="177.8848" x="280.06" y="272.092">(Cart Location / Minimap)</text></g><!--entity user--><g class="entity" data-entity="user" data-source-line="1" data-uid="ent0002" id="entity_user"><ellipse cx="1596.9951" cy="14" fill="#F1F1F1" rx="8" ry="8" style="stroke:#181818;stroke-width:0.5;"/><path d="M1596.9951,22 L1596.9951,49 M1583.9951,30 L1609.9951,30 M1596.9951,49 L1583.9951,64 M1596.9951,49 L1609.9951,64" fill="none" style="stroke:#181818;stroke-width:0.5;"/><text fill="#000000" font-family="sans-serif" font-size="14" lengthAdjust="spacing" textLength="31.9102" x="1581.04" y="78.4951">User</text></g><!--link ultrasonic to mqtt--><g class="link" data-entity-1="ultrasonic" data-entity-2="mqtt" data-source-line="38" data-uid="lnk19" id="link_ultrasonic_mqtt"><path d="M600.24,285.71 C594.17,310.29 589.62,345.12 602,372.63 C607.05,383.86 610.9377,389.7525 620.0177,398.2025" fill="none" id="ultrasonic-to-mqtt" style="stroke:#181818;stroke-width:1;"/><polygon fill="#181818" points="624.41,402.29,620.5466,393.2305,620.7498,398.8837,615.0966,399.0869,624.41,402.29" style="stroke:#181818;stroke-width:1;"/><text fill="#000000" font-family="sans-serif" font-size="13" lengthAdjust="spacing" textLength="88.499" x="603" y="368.6969">distance data</text></g><!--link lux to mqtt--><g class="link" data-entity-1="lux" data-entity-2="mqtt" data-source-line="39" data-uid="lnk20" id="link_lux_mqtt"><path d="M802.8,285.71 C781.71,305.1 754.5,331.06 732,355.63 C718.41,370.47 707.9763,383.156 696.6463,397.706" fill="none" id="lux-to-mqtt" style="stroke:#181818;stroke-width:1;"/><polygon fill="#181818" points="692.96,402.44,701.6455,397.7965,696.032,398.495,695.3335,392.8814,692.96,402.44" style="stroke:#181818;stroke-width:1;"/><text fill="#000000" font-family="sans-serif" font-size="13" lengthAdjust="spacing" textLength="97.2715" x="733" y="368.6969">light level data</text></g><!--link lux to mqtt--><g class="link" data-entity-1="lux" data-entity-2="mqtt" data-source-line="75" data-uid="lnk40" id="link_lux_mqtt"><path d="M845.34,285.78 C850.37,311.38 852.81,347.61 835,372.63 C814.83,400.95 785.7369,414.5792 753.1969,422.5692" fill="none" id="lux-to-mqtt-1" style="stroke:#181818;stroke-width:1;"/><polygon fill="#181818" points="747.37,424,757.0642,425.7385,752.2258,422.8077,755.1565,417.9692,747.37,424" style="stroke:#181818;stroke-width:1;"/></g><!--link weight to mqtt--><g class="link" data-entity-1="weight" data-entity-2="mqtt" data-source-line="40" data-uid="lnk21" id="link_weight_mqtt"><path d="M1009,285.77 C993.26,299.04 973.9,314.13 955,325.63 C889.62,365.4 812.8081,392.7797 753.3981,410.5597" fill="none" id="weight-to-mqtt" style="stroke:#181818;stroke-width:1;"/><polygon fill="#181818" points="747.65,412.28,757.419,413.5317,752.4401,410.8464,755.1253,405.8675,747.65,412.28" style="stroke:#181818;stroke-width:1;"/><text fill="#000000" font-family="sans-serif" font-size="13" lengthAdjust="spacing" textLength="77.2446" x="898" y="368.6969">weight data</text></g><!--link nfc to mqtt--><g class="link" data-entity-1="nfc" data-entity-2="mqtt" data-source-line="41" data-uid="lnk22" id="link_nfc_mqtt"><path d="M1218.96,285.72 C1192.79,298.91 1161.25,313.95 1132,325.63 C1002.01,377.57 846.8594,406.9222 753.3094,421.4022" fill="none" id="nfc-to-mqtt" style="stroke:#181818;stroke-width:1;"/><polygon fill="#181818" points="747.38,422.32,756.8859,424.8963,752.3212,421.5552,755.6622,416.9904,747.38,422.32" style="stroke:#181818;stroke-width:1;"/><text fill="#000000" font-family="sans-serif" font-size="13" lengthAdjust="spacing" textLength="117.6348" x="1048" y="368.6969">product/card scan</text></g><!--link camera to mqtt--><g class="link" data-entity-1="camera" data-entity-2="mqtt" data-source-line="42" data-uid="lnk23" id="link_camera_mqtt"><path d="M145.01,285.74 C152.98,313.17 168.86,352.14 198,372.63 C260,416.23 469.6324,428.139 586.7924,431.479" fill="none" id="camera-to-mqtt" style="stroke:#181818;stroke-width:1;"/><polygon fill="#181818" points="592.79,431.65,583.9076,427.3952,587.792,431.5075,583.6797,435.3919,592.79,431.65" style="stroke:#181818;stroke-width:1;"/><text fill="#000000" font-family="sans-serif" font-size="13" lengthAdjust="spacing" textLength="109.3257" x="199" y="368.6969">detection events</text></g><!--link camera to mqtt--><g class="link" data-entity-1="camera" data-entity-2="mqtt" data-source-line="80" data-uid="lnk43" id="link_camera_mqtt"><path d="M179.81,285.73 C199.73,299.31 224.33,314.66 248,325.63 C361.85,378.41 499.5683,406.8939 586.4883,421.0739" fill="none" id="camera-to-mqtt-1" style="stroke:#181818;stroke-width:1;"/><polygon fill="#181818" points="592.41,422.04,584.1715,416.6431,587.4752,421.2349,582.8834,424.5387,592.41,422.04" style="stroke:#181818;stroke-width:1;"/></g><!--link gps to mqtt--><g class="link" data-entity-1="gps" data-entity-2="mqtt" data-source-line="43" data-uid="lnk24" id="link_gps_mqtt"><path d="M378.54,285.65 C384.13,312.45 396.28,350.48 422,372.63 C447.44,394.53 523.6991,410.6589 586.5591,420.9689" fill="none" id="gps-to-mqtt" style="stroke:#181818;stroke-width:1;"/><polygon fill="#181818" points="592.48,421.94,584.2461,416.5361,587.5459,421.1307,582.9513,424.4306,592.48,421.94" style="stroke:#181818;stroke-width:1;"/><text fill="#000000" font-family="sans-serif" font-size="13" lengthAdjust="spacing" textLength="84.9951" x="423" y="368.6969">location data</text></g><!--link gps to mqtt--><g class="link" data-entity-1="gps" data-entity-2="mqtt" data-source-line="79" data-uid="lnk42" id="link_gps_mqtt"><path d="M425.22,285.87 C479.49,318.47 559.5466,366.5704 613.7666,399.1404" fill="none" id="gps-to-mqtt-1" style="stroke:#181818;stroke-width:1;"/><polygon fill="#181818" points="618.91,402.23,613.2547,394.1667,614.6239,399.6553,609.1352,401.0245,618.91,402.23" style="stroke:#181818;stroke-width:1;"/></g><!--link mqtt to telegraf--><g class="link" data-entity-1="mqtt" data-entity-2="telegraf" data-source-line="45" data-uid="lnk25" id="link_mqtt_telegraf"><path d="M747.55,456.26 C875.34,491.42 1123.405,559.6682 1255.655,596.0582" fill="none" id="mqtt-to-telegraf" style="stroke:#181818;stroke-width:1;"/><polygon fill="#181818" points="1261.44,597.65,1253.8237,591.4056,1256.6192,596.3235,1251.7013,599.119,1261.44,597.65" style="stroke:#181818;stroke-width:1;"/><text fill="#000000" font-family="sans-serif" font-size="13" lengthAdjust="spacing" textLength="164.9185" x="949" y="508.2869">forward sensor telemetry</text></g><!--link telegraf to InfluxDB--><g class="link" data-entity-1="telegraf" data-entity-2="InfluxDB" data-source-line="46" data-uid="lnk26" id="link_telegraf_InfluxDB"><path d="M1402.89,590.26 C1491.31,543.73 1668.1,455.16 1827,402.63 C1887.01,382.79 1913.59,407.94 1966,372.63 C1983.61,360.77 1995.0427,348.576 2006.9427,331.026" fill="none" id="telegraf-to-InfluxDB" style="stroke:#181818;stroke-width:1;"/><polygon fill="#181818" points="2010.31,326.06,2001.9484,331.2642,2007.5039,330.1984,2008.5698,335.7539,2010.31,326.06" style="stroke:#181818;stroke-width:1;"/><text fill="#000000" font-family="sans-serif" font-size="13" lengthAdjust="spacing" textLength="116.1494" x="1828" y="438.4969">time-series writes</text></g><!--link InfluxDB to GO--><g class="link" data-entity-1="InfluxDB" data-entity-2="GO" data-source-line="48" data-uid="lnk27" id="link_InfluxDB_GO"><path d="M2036.05,325.89 C2032.32,352.43 2029.1063,375.2786 2026.1463,396.3086" fill="none" id="InfluxDB-to-GO" style="stroke:#181818;stroke-width:1;"/><polygon fill="#181818" points="2025.31,402.25,2030.5254,393.8954,2026.0069,397.2988,2022.6034,392.7803,2025.31,402.25" style="stroke:#181818;stroke-width:1;"/><text fill="#000000" font-family="sans-serif" font-size="13" lengthAdjust="spacing" textLength="259.8921" x="2032" y="368.6969">backend reads &amp; processes sensor data</text></g><!--link user to GO--><g class="link" data-entity-1="user" data-entity-2="GO" data-source-line="54" data-uid="lnk28" id="link_user_GO"><path d="M1613.27,45.69 C1694.3,51.11 2054.19,78.18 2147,136.8 C2252.64,203.51 2378.46,275.4 2300,372.63 C2272.85,406.28 2159.0556,421.5294 2085.5456,428.1794" fill="none" id="user-to-GO" style="stroke:#181818;stroke-width:1;"/><polygon fill="#181818" points="2079.57,428.72,2088.8938,431.8929,2084.5497,428.2695,2088.173,423.9254,2079.57,428.72" style="stroke:#181818;stroke-width:1;"/><text fill="#000000" font-family="sans-serif" font-size="13" lengthAdjust="spacing" textLength="224.707" x="2325" y="258.6569">Login / Signup (stats, preferences)</text></g><!--link user to vue--><g class="link" data-entity-1="user" data-entity-2="vue" data-source-line="55" data-uid="lnk29" id="link_user_vue"><path d="M1613.29,64.74 C1625.05,81.81 1637.5,106.95 1629,128.8 C1614.29,166.59 1586.6903,195.9708 1560.2703,218.5608" fill="none" id="user-to-vue" style="stroke:#181818;stroke-width:1;"/><polygon fill="#181818" points="1555.71,222.46,1565.1499,219.6514,1559.5102,219.2107,1559.951,213.571,1555.71,222.46" style="stroke:#181818;stroke-width:1;"/><text fill="#000000" font-family="sans-serif" font-size="13" lengthAdjust="spacing" textLength="106.6914" x="1633" y="124.8669">Interacts with UI</text></g><!--link vue to user--><g class="link" data-entity-1="vue" data-entity-2="user" data-source-line="83" data-uid="lnk44" id="link_vue_user"><path d="M1509.34,222.5 C1505.34,192.71 1503.27,146.92 1520,111.8 C1532.89,84.73 1557.1474,67.1804 1575.6574,56.3004" fill="none" id="vue-to-user" style="stroke:#181818;stroke-width:1;"/><polygon fill="#181818" points="1580.83,53.26,1571.0441,54.3722,1576.5195,55.7937,1575.098,61.269,1580.83,53.26" style="stroke:#181818;stroke-width:1;"/><text fill="#000000" font-family="sans-serif" font-size="13" lengthAdjust="spacing" textLength="99.7471" x="1521" y="124.8669">cart UI updates</text></g><!--link user to nfc--><g class="link" data-entity-1="user" data-entity-2="nfc" data-source-line="56" data-uid="lnk30" id="link_user_nfc"><path d="M1580.61,45.64 C1521.99,49.55 1324.17,66.01 1285,111.8 C1259.04,142.13 1261.6602,185.0032 1267.8802,216.5732" fill="none" id="user-to-nfc" style="stroke:#181818;stroke-width:1;"/><polygon fill="#181818" points="1269.04,222.46,1271.2248,212.8565,1268.0735,217.5543,1263.3757,214.403,1269.04,222.46" style="stroke:#181818;stroke-width:1;"/><text fill="#000000" font-family="sans-serif" font-size="13" lengthAdjust="spacing" textLength="220.3462" x="1286" y="124.8669">Scan product or card for payment</text></g><!--link vue to GO--><g class="link" data-entity-1="vue" data-entity-2="GO" data-source-line="58" data-uid="lnk31" id="link_vue_GO"><path d="M1579.2,285.85 C1634.25,311.41 1716.13,347.54 1790,372.63 C1840.83,389.9 1855.06,389.07 1907,402.63 C1925.03,407.34 1938.8512,410.9891 1956.6512,415.7191" fill="none" id="vue-to-GO" style="stroke:#181818;stroke-width:1;"/><polygon fill="#181818" points="1962.45,417.26,1954.7791,411.0828,1957.6177,415.9759,1952.7246,418.8145,1962.45,417.26" style="stroke:#181818;stroke-width:1;"/><text fill="#000000" font-family="sans-serif" font-size="13" lengthAdjust="spacing" textLength="229.6265" x="1791" y="368.6969">Search product / minimap requests</text></g><!--link GO to vue--><g class="link" data-entity-1="GO" data-entity-2="vue" data-source-line="60" data-uid="lnk33" id="link_GO_vue"><path d="M1962.61,415.01 C1944.91,410.23 1925.3,405.58 1907,402.63 C1851.72,393.73 1442.39,413.38 1404,372.63 C1388.65,356.34 1430.7769,318.3946 1468.2869,289.3346" fill="none" id="GO-to-vue" style="stroke:#181818;stroke-width:1;"/><polygon fill="#181818" points="1473.03,285.66,1463.4656,288.0099,1469.0774,288.7222,1468.3651,294.334,1473.03,285.66" style="stroke:#181818;stroke-width:1;"/><text fill="#000000" font-family="sans-serif" font-size="13" lengthAdjust="spacing" textLength="63.2861" x="1405" y="368.6969">UI update</text></g><!--reverse link vue to GO--><g class="link" data-entity-1="vue" data-entity-2="GO" data-source-line="72" data-uid="lnk39" id="link_vue_GO"><path d="M1478.1379,289.5235 C1461.0679,303.9535 1443.58,316.17 1421,325.63 C1337.18,360.74 1159.16,306.98 1222,372.63 C1248.34,400.15 1869.35,396.87 1907,402.63 C1925.32,405.43 1944.93,410.04 1962.64,414.83" fill="none" id="vue-backto-GO" style="stroke:#181818;stroke-width:1;"/><polygon fill="#181818" points="1482.72,285.65,1473.2645,288.4055,1478.9015,288.8779,1478.4291,294.515,1482.72,285.65" style="stroke:#181818;stroke-width:1;"/><text fill="#000000" font-family="sans-serif" font-size="13" lengthAdjust="spacing" textLength="170.8726" x="1223" y="368.6969">display mismatch warning</text></g><!--link GO to vue--><g class="link" data-entity-1="GO" data-entity-2="vue" data-source-line="76" data-uid="lnk41" id="link_GO_vue"><path d="M1962.56,415.29 C1944.86,410.52 1925.26,405.81 1907,402.63 C1829.22,389.11 1614.82,421.74 1553,372.63 C1526.97,351.95 1519.1002,319.2028 1516.4902,291.8628" fill="none" id="GO-to-vue-1" style="stroke:#181818;stroke-width:1;"/><polygon fill="#181818" points="1515.92,285.89,1512.7934,295.2294,1516.3952,290.8674,1520.7572,294.4691,1515.92,285.89" style="stroke:#181818;stroke-width:1;"/><text fill="#000000" font-family="sans-serif" font-size="13" lengthAdjust="spacing" textLength="180.0132" x="1554" y="368.6969">enable emergency mode UI</text></g><!--link GO to MariaDB--><g class="link" data-entity-1="GO" data-entity-2="MariaDB" data-source-line="59" data-uid="lnk32" id="link_GO_MariaDB"><path d="M1962.54,450.56 C1900.32,467.34 1810.42,492.03 1808,495.22 C1803.44,501.25 1803.47,506.18 1808,512.22 C1842.65,558.52 1993.1058,590.819 2091.1458,607.579" fill="none" id="GO-to-MariaDB" style="stroke:#181818;stroke-width:1;"/><polygon fill="#181818" points="2097.06,608.59,2088.8627,603.1306,2092.1315,607.7475,2087.5147,611.0162,2097.06,608.59" style="stroke:#181818;stroke-width:1;"/><text fill="#000000" font-family="sans-serif" font-size="13" lengthAdjust="spacing" textLength="168.5049" x="1809" y="508.2869">get product info / location</text></g><!--link GO to MariaDB--><g class="link" data-entity-1="GO" data-entity-2="MariaDB" data-source-line="66" data-uid="lnk34" id="link_GO_MariaDB"><path d="M2012.92,465.51 C2010.64,480.41 2010.52,498.1 2018,512.22 C2035.13,544.57 2061.4702,566.1037 2092.0502,583.5737" fill="none" id="GO-to-MariaDB-1" style="stroke:#181818;stroke-width:1;"/><polygon fill="#181818" points="2097.26,586.55,2091.4295,578.6124,2092.9185,584.0698,2087.4612,585.5588,2097.26,586.55" style="stroke:#181818;stroke-width:1;"/><text fill="#000000" font-family="sans-serif" font-size="13" lengthAdjust="spacing" textLength="115.7686" x="2019" y="508.2869">update cart items</text></g><!--link GO to MariaDB--><g class="link" data-entity-1="GO" data-entity-2="MariaDB" data-source-line="67" data-uid="lnk35" id="link_GO_MariaDB"><path d="M2079.5,453.83 C2100.8,463.28 2123.45,476.74 2139,495.22 C2150.25,508.6 2156.3329,519.5213 2162.0329,536.2313" fill="none" id="GO-to-MariaDB-2" style="stroke:#181818;stroke-width:1;"/><polygon fill="#181818" points="2163.97,541.91,2164.8502,532.1006,2162.3558,537.1777,2157.2786,534.6833,2163.97,541.91" style="stroke:#181818;stroke-width:1;"/><text fill="#000000" font-family="sans-serif" font-size="13" lengthAdjust="spacing" textLength="161.4082" x="2150" y="508.2869">purchase/refund product</text></g><!--link GO to MariaDB--><g class="link" data-entity-1="GO" data-entity-2="MariaDB" data-source-line="68" data-uid="lnk36" id="link_GO_MariaDB"><path d="M2079.37,438.18 C2157.63,443.89 2290.19,458.8 2320,495.22 C2348.78,530.38 2310.6004,561.4251 2264.3804,585.0951" fill="none" id="GO-to-MariaDB-3" style="stroke:#181818;stroke-width:1;"/><polygon fill="#181818" points="2259.04,587.83,2268.8739,587.2879,2263.4904,585.5509,2265.2274,580.1673,2259.04,587.83" style="stroke:#181818;stroke-width:1;"/><text fill="#000000" font-family="sans-serif" font-size="13" lengthAdjust="spacing" textLength="160.0942" x="2329" y="508.2869">update user preferences</text></g><!--link GO to MariaDB--><g class="link" data-entity-1="GO" data-entity-2="MariaDB" data-source-line="69" data-uid="lnk37" id="link_GO_MariaDB"><path d="M2079.61,438.06 C2200.96,445.16 2470.71,464.27 2498,495.22 C2570.23,577.16 2381.6486,605.6739 2264.8186,615.5639" fill="none" id="GO-to-MariaDB-4" style="stroke:#181818;stroke-width:1;"/><polygon fill="#181818" points="2258.84,616.07,2268.1453,619.2966,2263.8222,615.6482,2267.4705,611.3251,2258.84,616.07" style="stroke:#181818;stroke-width:1;"/><text fill="#000000" font-family="sans-serif" font-size="13" lengthAdjust="spacing" textLength="171.9771" x="2508" y="508.2869">update purchase statistics</text></g><g class="legend" data-source-line="85"><rect fill="#DDDDDD" height="128.0781" rx="7.5" ry="7.5" style="stroke:#000000;stroke-width:1;" width="224.375" x="2528.625" y="735.6"/><text fill="#000000" font-family="sans-serif" font-size="14" font-weight="bold" lengthAdjust="spacing" textLength="214.375" x="2533.625" y="753.5951">Docker Swarm Deployment</text><text fill="#000000" font-family="sans-serif" font-size="14" lengthAdjust="spacing" textLength="51.7412" x="2538.0752" y="771.892">Service</text><text fill="#000000" font-family="sans-serif" font-size="14" lengthAdjust="spacing" textLength="58.5771" x="2669.2842" y="771.892">Replicas</text><text fill="#000000" font-family="sans-serif" font-size="14" lengthAdjust="spacing" textLength="76.2412" x="2538.0752" y="788.1889">Golang API</text><text fill="#000000" font-family="sans-serif" font-size="14" lengthAdjust="spacing" textLength="8.9072" x="2669.2842" y="788.1889">2</text><text fill="#000000" font-family="sans-serif" font-size="14" lengthAdjust="spacing" textLength="113.4082" x="2538.0752" y="804.4857">MariaDB Cluster</text><text fill="#000000" font-family="sans-serif" font-size="14" lengthAdjust="spacing" textLength="8.9072" x="2669.2842" y="804.4857">3</text><text fill="#000000" font-family="sans-serif" font-size="14" lengthAdjust="spacing" textLength="113.5039" x="2538.0752" y="820.7826">InfluxDB Cluster</text><text fill="#000000" font-family="sans-serif" font-size="14" lengthAdjust="spacing" textLength="8.9072" x="2669.2842" y="820.7826">2</text><text fill="#000000" font-family="sans-serif" font-size="14" lengthAdjust="spacing" textLength="38.4111" x="2538.0752" y="837.0795">Redis</text><text fill="#000000" font-family="sans-serif" font-size="14" lengthAdjust="spacing" textLength="8.9072" x="2669.2842" y="837.0795">3</text><text fill="#000000" font-family="sans-serif" font-size="14" lengthAdjust="spacing" textLength="99.9893" x="2538.0752" y="853.3764">Redis Sentinel</text><text fill="#000000" font-family="sans-serif" font-size="14" lengthAdjust="spacing" textLength="8.9072" x="2669.2842" y="853.3764">3</text><line style="stroke:#000000;stroke-width:1;" x1="2533.625" x2="2732.3115" y1="758.8969" y2="758.8969"/><line style="stroke:#000000;stroke-width:1;" x1="2533.625" x2="2732.3115" y1="775.1938" y2="775.1938"/><line style="stroke:#000000;stroke-width:1;" x1="2533.625" x2="2732.3115" y1="791.4906" y2="791.4906"/><line style="stroke:#000000;stroke-width:1;" x1="2533.625" x2="2732.3115" y1="807.7875" y2="807.7875"/><line style="stroke:#000000;stroke-width:1;" x1="2533.625" x2="2732.3115" y1="824.0844" y2="824.0844"/><line style="stroke:#000000;stroke-width:1;" x1="2533.625" x2="2732.3115" y1="840.3813" y2="840.3813"/><line style="stroke:#000000;stroke-width:1;" x1="2533.625" x2="2732.3115" y1="856.6781" y2="856.6781"/><line style="stroke:#000000;stroke-width:1;" x1="2533.625" x2="2533.625" y1="758.8969" y2="856.6781"/><line style="stroke:#000000;stroke-width:1;" x1="2664.834" x2="2664.834" y1="758.8969" y2="856.6781"/><line style="stroke:#000000;stroke-width:1;" x1="2732.3115" x2="2732.3115" y1="758.8969" y2="856.6781"/></g><!--SRC=[hLPDRzj64BtpLmmSeBNTgWAQcmy5P4fM2KYcAqhs9PSrEQ8tuLTsbrQ4EF-zRtSfobAKaoqWiQXzRtPctdnGfAPMjDAiI6XgyJS8VgV1MpxWXxDuDQPaihYVB2Y9nfCtsmmQaNuHETDPMDHjHWchPrPdz64cyoSpLSpLzu3mIUkogIkk39rDwq9KEOtkea_L-JNuN6KNPpREQNoCNN0cTMSLw8IrbdKr34Nwn9wZBCBHCc74ez3mPIwK5EFhJzM0xbITjQdHzhjBvnWe-n0APIYgrhLzY1jM0XdNdi9hLbobx1zRbJvPiuaHtivSLh8K3StnpvfpVdHt7dc22uhsctK5lbSQcYvboGC495bVM6CFR3Fbt2kC4hgkP6gVPhkVftU9zxU4ZpHvHbwqkt5dE_Zn7hMHp4UB9ONsltz7Y_73Q36XFoY9RvRswpiMIbBQpDlqeqnYXLBWxy6nxlSj__LPmu5xQPXMjbB6KZU5s7hLdri-fip_MoxfMjLVkafnsKwCOb5wJldLc6FIaWlEbLY3CMUZPAefh8k2RVjvbkaGtiLT5DwyfWyeyQsly2FBUpKxCAw87xKHQS4qPeChKCd-ZhR7dhBaAc5ln7PCY-AhCwQbaddEdQSeXbDqNs1x_gmM6OLS59wrSSUdYBStuN1n4urfmI9pIUsQYP9KL3Iq6cPq9xObuDvOjJuPmIZgojVbu3D2XysqpYkvpq7g0AVOQ00RRLimwAvjPtKgB1C-TBteRUIDdmG_tgab9hT9lA3nQ3cYcrdyaBoz2_PAmz8_hYJfYZ31ZC2ySOCZW8wl3midNy7FNFXphzXhIFUBEuK4huyQBzamjLffw1RuH1zSlwj6OZTT0kJnm8DTkjq5WVlL7kzQ0v1rhJRk1jzszgH4Fss37cC9kua5Wh5ZKBinI1k59jT1q1yFCe2dCM2FVZrWoejCqsys78nb3L9tatVfxLgli1KfkbrE5gDm6SMtxw6rNJS3jGjbLkVILcmYymhzUwxjElaJ4VNRvgAZW87v1afK6KY5xKKRQPum1lS0A_ELRyHEOa8sdChG0dFATMKGM4FxT2OiiCnwnf3ARfKf_jgoXlI0MVFTDWCbPzFZ9TObIBjwSE2iztOLKTj03twNLnMxYAvNINGxIHAQnTCeVBiYFmNd_RLfGt26onFnDztw7qAd5fNOvUANjfn2hqJz9N1dc6mXO01WzzZ4TUEwbBeK1beLA9lK6MdxJ6T-5Uv1wBrALhdbT-kXjElXlAWtVdvS74oL8-6u4ezOIkXObSFdhIUZsc3k1jkmtWnATWldO38SJn8BxvOqwccjM3_vyiEvoygLJtHV9uWNmy6rTxU3BY_7DHeUUniHbLYJJL6xGhwynEcBUn6Kc9FxpmisILF85DF_nK7sRvTxoD_zLmVPIH4MhKQ3ESZ7GqW_YdhCJrRygoaT-FBn50IRryWAq_iOOYFt2VWV]--></g></svg>