<svg xmlns="http://www.w3.org/2000/svg" xmlns:xlink="http://www.w3.org/1999/xlink" contentStyleType="text/css" data-diagram-type="DESCRIPTION" height="893px" preserveAspectRatio="none" style="width:3122px;height:893px;background:#FFFFFF;" version="1.1" viewBox="0 0 3122 893" width="3122px" zoomAndPan="magnify"><defs/><g><!--cluster Cloud Server--><g class="cluster" data-entity="Cloud Server" data-source-line="7" data-uid="ent0003" id="cluster_Cloud Server"><path d="M34.1,6 L136.6615,6 A3.75,3.75 0 0 1 139.1615,8.5 L146.1615,28.2969 L1041.1,28.2969 A2.5,2.5 0 0 1 1043.6,30.7969 L1043.6,602.86 A2.5,2.5 0 0 1 1041.1,605.36 L34.1,605.36 A2.5,2.5 0 0 1 31.6,602.86 L31.6,8.5 A2.5,2.5 0 0 1 34.1,6" fill="none" style="stroke:#000000;stroke-width:1.5;"/><line style="stroke:#000000;stroke-width:1.5;" x1="31.6" x2="146.1615" y1="28.2969" y2="28.2969"/><text fill="#000000" font-family="sans-serif" font-size="14" font-weight="bold" lengthAdjust="spacing" textLength="101.5615" x="35.6" y="20.9951">Cloud Server</text></g><!--cluster Smart Cart--><g class="cluster" data-entity="Smart Cart" data-source-line="18" data-uid="ent0008" id="cluster_Smart Cart"><path d="M1370.1,400.38 L1457.0072,400.38 A3.75,3.75 0 0 1 1459.5072,402.88 L1466.5072,422.6769 L2965.1,422.6769 A2.5,2.5 0 0 1 2967.6,425.1769 L2967.6,884.05 A2.5,2.5 0 0 1 2965.1,886.55 L1370.1,886.55 A2.5,2.5 0 0 1 1367.6,884.05 L1367.6,402.88 A2.5,2.5 0 0 1 1370.1,400.38" fill="none" style="stroke:#000000;stroke-width:1.5;"/><line style="stroke:#000000;stroke-width:1.5;" x1="1367.6" x2="1466.5072" y1="422.6769" y2="422.6769"/><text fill="#000000" font-family="sans-serif" font-size="14" font-weight="bold" lengthAdjust="spacing" textLength="85.9072" x="1371.6" y="415.3751">Smart Cart</text></g><!--cluster Sensors--><g class="cluster" data-entity="Sensors" data-source-line="24" data-uid="ent0012" id="cluster_Sensors"><path d="M1555.1,443.38 L1618.8334,443.38 A3.75,3.75 0 0 1 1621.3334,445.88 L1628.3334,465.6769 L2941.1,465.6769 A2.5,2.5 0 0 1 2943.6,468.1769 L2943.6,554.47 A2.5,2.5 0 0 1 2941.1,556.97 L1555.1,556.97 A2.5,2.5 0 0 1 1552.6,554.47 L1552.6,445.88 A2.5,2.5 0 0 1 1555.1,443.38" fill="none" style="stroke:#000000;stroke-width:1.5;"/><line style="stroke:#000000;stroke-width:1.5;" x1="1552.6" x2="1628.3334" y1="465.6769" y2="465.6769"/><text fill="#000000" font-family="sans-serif" font-size="14" font-weight="bold" lengthAdjust="spacing" textLength="62.7334" x="1556.6" y="458.3751">Sensors</text></g><!--entity GO--><g class="entity" data-entity="GO" data-source-line="8" data-uid="ent0004" id="entity_GO"><rect fill="#F1F1F1" height="62.5938" rx="2.5" ry="2.5" style="stroke:#181818;stroke-width:0.5;" width="153.9482" x="873.63" y="267.93"/><rect fill="#F1F1F1" height="10" style="stroke:#181818;stroke-width:0.5;" width="15" x="1007.5782" y="272.93"/><rect fill="#F1F1F1" height="2" style="stroke:#181818;stroke-width:0.5;" width="4" x="1005.5782" y="274.93"/><rect fill="#F1F1F1" height="2" style="stroke:#181818;stroke-width:0.5;" width="4" x="1005.5782" y="278.93"/><text fill="#000000" font-family="sans-serif" font-size="14" lengthAdjust="spacing" textLength="76.2412" x="888.63" y="300.9251">Golang API</text><text fill="#000000" font-family="sans-serif" font-size="14" lengthAdjust="spacing" textLength="113.9482" x="888.63" y="317.222">(Business Logic)</text></g><!--entity redis--><g class="entity" data-entity="redis" data-source-line="9" data-uid="ent0005" id="entity_redis"><rect fill="#F1F1F1" height="62.5938" rx="2.5" ry="2.5" style="stroke:#181818;stroke-width:0.5;" width="152.5947" x="361.3" y="81.25"/><rect fill="#F1F1F1" height="10" style="stroke:#181818;stroke-width:0.5;" width="15" x="493.8947" y="86.25"/><rect fill="#F1F1F1" height="2" style="stroke:#181818;stroke-width:0.5;" width="4" x="491.8947" y="88.25"/><rect fill="#F1F1F1" height="2" style="stroke:#181818;stroke-width:0.5;" width="4" x="491.8947" y="92.25"/><text fill="#000000" font-family="sans-serif" font-size="14" lengthAdjust="spacing" textLength="88.7715" x="376.3" y="114.2451">Redis Server</text><text fill="#000000" font-family="sans-serif" font-size="14" lengthAdjust="spacing" textLength="112.5947" x="376.3" y="130.542">(Session/Cache)</text></g><!--entity MariaDB--><g class="entity" data-entity="MariaDB" data-source-line="10" data-uid="ent0006" id="entity_MariaDB"><path d="M425,439.99 C425,429.99 505.605,429.99 505.605,429.99 C505.605,429.99 586.21,429.99 586.21,439.99 L586.21,579.365 C586.21,589.365 505.605,589.365 505.605,589.365 C505.605,589.365 425,589.365 425,579.365 L425,439.99" fill="#F1F1F1" style="stroke:#181818;stroke-width:0.5;"/><path d="M425,439.99 C425,449.99 505.605,449.99 505.605,449.99 C505.605,449.99 586.21,449.99 586.21,439.99" fill="none" style="stroke:#181818;stroke-width:0.5;"/><text fill="#000000" font-family="sans-serif" font-size="14" lengthAdjust="spacing" textLength="59.2676" x="435" y="466.9851">MariaDB</text><text fill="#000000" font-family="sans-serif" font-size="14" lengthAdjust="spacing" textLength="70.5059" x="435" y="483.282">- Products</text><text fill="#000000" font-family="sans-serif" font-size="14" lengthAdjust="spacing" textLength="79.29" x="435" y="499.5789">- User Data</text><text fill="#000000" font-family="sans-serif" font-size="14" lengthAdjust="spacing" textLength="70.0479" x="435" y="515.8757">- Cart Info</text><text fill="#000000" font-family="sans-serif" font-size="14" lengthAdjust="spacing" textLength="79.4609" x="435" y="532.1726">- Operators</text><text fill="#000000" font-family="sans-serif" font-size="14" lengthAdjust="spacing" textLength="92.7021" x="435" y="548.4695">- Preferences</text><text fill="#000000" font-family="sans-serif" font-size="14" lengthAdjust="spacing" textLength="113.8184" x="435" y="564.7664">- Purchase Stats</text><text fill="#000000" font-family="sans-serif" font-size="14" lengthAdjust="spacing" textLength="141.21" x="435" y="581.0632">- Minimap Map Data</text></g><!--entity InfluxDB--><g class="entity" data-entity="InfluxDB" data-source-line="11" data-uid="ent0007" id="entity_InfluxDB"><path d="M772.52,51 C772.52,41 855.5996,41 855.5996,41 C855.5996,41 938.6792,41 938.6792,51 L938.6792,174.0781 C938.6792,184.0781 855.5996,184.0781 855.5996,184.0781 C855.5996,184.0781 772.52,184.0781 772.52,174.0781 L772.52,51" fill="#F1F1F1" style="stroke:#181818;stroke-width:0.5;"/><path d="M772.52,51 C772.52,61 855.5996,61 855.5996,61 C855.5996,61 938.6792,61 938.6792,51" fill="none" style="stroke:#181818;stroke-width:0.5;"/><text fill="#000000" font-family="sans-serif" font-size="14" lengthAdjust="spacing" textLength="59.3633" x="782.52" y="77.9951">InfluxDB</text><text fill="#000000" font-family="sans-serif" font-size="14" lengthAdjust="spacing" textLength="146.1592" x="782.52" y="94.292">(Sensor Time-Series)</text><text fill="#000000" font-family="sans-serif" font-size="14" lengthAdjust="spacing" textLength="59.0967" x="782.52" y="110.5889">- Weight</text><text fill="#000000" font-family="sans-serif" font-size="14" lengthAdjust="spacing" textLength="79.7822" x="782.52" y="126.8857">- Ultrasonic</text><text fill="#000000" font-family="sans-serif" font-size="14" lengthAdjust="spacing" textLength="44.4404" x="782.52" y="143.1826">- Light</text><text fill="#000000" font-family="sans-serif" font-size="14" lengthAdjust="spacing" textLength="37.6797" x="782.52" y="159.4795">- GPS</text><text fill="#000000" font-family="sans-serif" font-size="14" lengthAdjust="spacing" textLength="116.293" x="782.52" y="175.7764">- Camera Events</text></g><!--entity vue--><g class="entity" data-entity="vue" data-source-line="20" data-uid="ent0009" id="entity_vue"><rect fill="#F1F1F1" height="62.5938" rx="2.5" ry="2.5" style="stroke:#181818;stroke-width:0.5;" width="149.7236" x="1383.74" y="478.38"/><rect fill="#F1F1F1" height="10" style="stroke:#181818;stroke-width:0.5;" width="15" x="1513.4636" y="483.38"/><rect fill="#F1F1F1" height="2" style="stroke:#181818;stroke-width:0.5;" width="4" x="1511.4636" y="485.38"/><rect fill="#F1F1F1" height="2" style="stroke:#181818;stroke-width:0.5;" width="4" x="1511.4636" y="489.38"/><text fill="#000000" font-family="sans-serif" font-size="14" lengthAdjust="spacing" textLength="109.7236" x="1398.74" y="511.3751">Vue.js + Vite UI</text><text fill="#000000" font-family="sans-serif" font-size="14" lengthAdjust="spacing" textLength="62.5283" x="1398.74" y="527.672">(Display)</text></g><!--entity mqtt--><g class="entity" data-entity="mqtt" data-source-line="21" data-uid="ent0010" id="entity_mqtt"><rect fill="#F1F1F1" height="62.5938" rx="2.5" ry="2.5" style="stroke:#181818;stroke-width:0.5;" width="154.3242" x="2307.44" y="668.36"/><rect fill="#F1F1F1" height="10" style="stroke:#181818;stroke-width:0.5;" width="15" x="2441.7642" y="673.36"/><rect fill="#F1F1F1" height="2" style="stroke:#181818;stroke-width:0.5;" width="4" x="2439.7642" y="675.36"/><rect fill="#F1F1F1" height="2" style="stroke:#181818;stroke-width:0.5;" width="4" x="2439.7642" y="679.36"/><text fill="#000000" font-family="sans-serif" font-size="14" lengthAdjust="spacing" textLength="91.0547" x="2322.44" y="701.3551">MQTT Broker</text><text fill="#000000" font-family="sans-serif" font-size="14" lengthAdjust="spacing" textLength="114.3242" x="2322.44" y="717.652">(Sensor Stream)</text></g><!--entity telegraf--><g class="entity" data-entity="telegraf" data-source-line="22" data-uid="ent0011" id="entity_telegraf"><rect fill="#F1F1F1" height="62.5938" rx="2.5" ry="2.5" style="stroke:#181818;stroke-width:0.5;" width="168.4336" x="2715.38" y="807.96"/><rect fill="#F1F1F1" height="10" style="stroke:#181818;stroke-width:0.5;" width="15" x="2863.8136" y="812.96"/><rect fill="#F1F1F1" height="2" style="stroke:#181818;stroke-width:0.5;" width="4" x="2861.8136" y="814.96"/><rect fill="#F1F1F1" height="2" style="stroke:#181818;stroke-width:0.5;" width="4" x="2861.8136" y="818.96"/><text fill="#000000" font-family="sans-serif" font-size="14" lengthAdjust="spacing" textLength="57.8184" x="2730.38" y="840.9551">Telegraf</text><text fill="#000000" font-family="sans-serif" font-size="14" lengthAdjust="spacing" textLength="128.4336" x="2730.38" y="857.252">(Metrics Collector)</text></g><!--entity ultrasonic--><g class="entity" data-entity="ultrasonic" data-source-line="25" data-uid="ent0013" id="entity_ultrasonic"><rect fill="#F1F1F1" height="62.5938" rx="2.5" ry="2.5" style="stroke:#181818;stroke-width:0.5;" width="184.8535" x="1568.17" y="478.38"/><rect fill="#F1F1F1" height="10" style="stroke:#181818;stroke-width:0.5;" width="15" x="1733.0235" y="483.38"/><rect fill="#F1F1F1" height="2" style="stroke:#181818;stroke-width:0.5;" width="4" x="1731.0235" y="485.38"/><rect fill="#F1F1F1" height="2" style="stroke:#181818;stroke-width:0.5;" width="4" x="1731.0235" y="489.38"/><text fill="#000000" font-family="sans-serif" font-size="14" lengthAdjust="spacing" textLength="122.7188" x="1583.17" y="511.3751">Ultrasonic Sensor</text><text fill="#000000" font-family="sans-serif" font-size="14" lengthAdjust="spacing" textLength="144.8535" x="1583.17" y="527.672">(Obstacle Detection)</text></g><!--entity lux--><g class="entity" data-entity="lux" data-source-line="26" data-uid="ent0014" id="entity_lux"><rect fill="#F1F1F1" height="62.5938" rx="2.5" ry="2.5" style="stroke:#181818;stroke-width:0.5;" width="200.0566" x="1787.57" y="478.38"/><rect fill="#F1F1F1" height="10" style="stroke:#181818;stroke-width:0.5;" width="15" x="1967.6266" y="483.38"/><rect fill="#F1F1F1" height="2" style="stroke:#181818;stroke-width:0.5;" width="4" x="1965.6266" y="485.38"/><rect fill="#F1F1F1" height="2" style="stroke:#181818;stroke-width:0.5;" width="4" x="1965.6266" y="489.38"/><text fill="#000000" font-family="sans-serif" font-size="14" lengthAdjust="spacing" textLength="87.377" x="1802.57" y="511.3751">Light Sensor</text><text fill="#000000" font-family="sans-serif" font-size="14" lengthAdjust="spacing" textLength="160.0566" x="1802.57" y="527.672">(Backup Mode Trigger)</text></g><!--entity weight--><g class="entity" data-entity="weight" data-source-line="27" data-uid="ent0015" id="entity_weight"><rect fill="#F1F1F1" height="62.5938" rx="2.5" ry="2.5" style="stroke:#181818;stroke-width:0.5;" width="142.0332" x="2022.58" y="478.38"/><rect fill="#F1F1F1" height="10" style="stroke:#181818;stroke-width:0.5;" width="15" x="2144.6132" y="483.38"/><rect fill="#F1F1F1" height="2" style="stroke:#181818;stroke-width:0.5;" width="4" x="2142.6132" y="485.38"/><rect fill="#F1F1F1" height="2" style="stroke:#181818;stroke-width:0.5;" width="4" x="2142.6132" y="489.38"/><text fill="#000000" font-family="sans-serif" font-size="14" lengthAdjust="spacing" textLength="102.0332" x="2037.58" y="511.3751">Weight Sensor</text><text fill="#000000" font-family="sans-serif" font-size="14" lengthAdjust="spacing" textLength="75.373" x="2037.58" y="527.672">(Load Cell)</text></g><!--entity nfc--><g class="entity" data-entity="nfc" data-source-line="28" data-uid="ent0016" id="entity_nfc"><rect fill="#F1F1F1" height="62.5938" rx="2.5" ry="2.5" style="stroke:#181818;stroke-width:0.5;" width="256.1045" x="2199.55" y="478.38"/><rect fill="#F1F1F1" height="10" style="stroke:#181818;stroke-width:0.5;" width="15" x="2435.6545" y="483.38"/><rect fill="#F1F1F1" height="2" style="stroke:#181818;stroke-width:0.5;" width="4" x="2433.6545" y="485.38"/><rect fill="#F1F1F1" height="2" style="stroke:#181818;stroke-width:0.5;" width="4" x="2433.6545" y="489.38"/><text fill="#000000" font-family="sans-serif" font-size="14" lengthAdjust="spacing" textLength="120.333" x="2214.55" y="511.3751">NFC/RFID Reader</text><text fill="#000000" font-family="sans-serif" font-size="14" lengthAdjust="spacing" textLength="216.1045" x="2214.55" y="527.672">(Product Scan / Card Payment)</text></g><!--entity camera--><g class="entity" data-entity="camera" data-source-line="29" data-uid="ent0017" id="entity_camera"><rect fill="#F1F1F1" height="62.5938" rx="2.5" ry="2.5" style="stroke:#181818;stroke-width:0.5;" width="184.04" x="2490.58" y="478.38"/><rect fill="#F1F1F1" height="10" style="stroke:#181818;stroke-width:0.5;" width="15" x="2654.62" y="483.38"/><rect fill="#F1F1F1" height="2" style="stroke:#181818;stroke-width:0.5;" width="4" x="2652.62" y="485.38"/><rect fill="#F1F1F1" height="2" style="stroke:#181818;stroke-width:0.5;" width="4" x="2652.62" y="489.38"/><text fill="#000000" font-family="sans-serif" font-size="14" lengthAdjust="spacing" textLength="73.0967" x="2505.58" y="511.3751">AI Camera</text><text fill="#000000" font-family="sans-serif" font-size="14" lengthAdjust="spacing" textLength="144.04" x="2505.58" y="527.672">(Object Recognition)</text></g><!--entity gps--><g class="entity" data-entity="gps" data-source-line="30" data-uid="ent0018" id="entity_gps"><rect fill="#F1F1F1" height="62.5938" rx="2.5" ry="2.5" style="stroke:#181818;stroke-width:0.5;" width="217.8848" x="2709.66" y="478.38"/><rect fill="#F1F1F1" height="10" style="stroke:#181818;stroke-width:0.5;" width="15" x="2907.5448" y="483.38"/><rect fill="#F1F1F1" height="2" style="stroke:#181818;stroke-width:0.5;" width="4" x="2905.5448" y="485.38"/><rect fill="#F1F1F1" height="2" style="stroke:#181818;stroke-width:0.5;" width="4" x="2905.5448" y="489.38"/><text fill="#000000" font-family="sans-serif" font-size="14" lengthAdjust="spacing" textLength="83.5352" x="2724.66" y="511.3751">GPS Module</text><text fill="#000000" font-family="sans-serif" font-size="14" lengthAdjust="spacing" textLength="177.8848" x="2724.66" y="527.672">(Cart Location / Minimap)</text></g><!--entity user--><g class="entity" data-entity="user" data-source-line="1" data-uid="ent0002" id="entity_user"><ellipse cx="2038.5951" cy="269.58" fill="#F1F1F1" rx="8" ry="8" style="stroke:#181818;stroke-width:0.5;"/><path d="M2038.5951,277.58 L2038.5951,304.58 M2025.5951,285.58 L2051.5951,285.58 M2038.5951,304.58 L2025.5951,319.58 M2038.5951,304.58 L2051.5951,319.58" fill="none" style="stroke:#181818;stroke-width:0.5;"/><text fill="#000000" font-family="sans-serif" font-size="14" lengthAdjust="spacing" textLength="31.9102" x="2022.64" y="334.0751">User</text></g><g class="entity" data-entity="GMN43" data-source-line="82" data-uid="ent0044" id="entity_GMN43"><path d="M2089.18,286.66 L2089.18,311.7928 L2354.0252,311.7928 L2354.0252,296.66 L2344.0252,286.66 L2089.18,286.66" fill="#FEFFDD" style="stroke:#181818;stroke-width:0.5;"/><path d="M2344.0252,286.66 L2344.0252,296.66 L2354.0252,296.66 L2344.0252,286.66" fill="#FEFFDD" style="stroke:#181818;stroke-width:1;"/><text fill="#000000" font-family="sans-serif" font-size="13" lengthAdjust="spacing" textLength="243.8452" x="2095.18" y="303.7269">Fusion of GPS + Camera + Ultrasonic</text></g><!--link ultrasonic to mqtt--><g class="link" data-entity-1="ultrasonic" data-entity-2="mqtt" data-source-line="38" data-uid="lnk19" id="link_ultrasonic_mqtt"><path d="M1685.52,541.44 C1714.08,573.75 1764.26,622.09 1820.6,638.36 C1989.48,687.13 2191.0507,697.1213 2301.2607,698.7513" fill="none" id="ultrasonic-to-mqtt" style="stroke:#181818;stroke-width:1;"/><polygon fill="#181818" points="2307.26,698.84,2298.3201,694.7073,2302.2605,698.7661,2298.2018,702.7065,2307.26,698.84" style="stroke:#181818;stroke-width:1;"/><text fill="#000000" font-family="sans-serif" font-size="13" lengthAdjust="spacing" textLength="88.499" x="1821.6" y="634.4269">distance data</text></g><!--link lux to mqtt--><g class="link" data-entity-1="lux" data-entity-2="mqtt" data-source-line="39" data-uid="lnk20" id="link_lux_mqtt"><path d="M1889.81,541.37 C1893.69,571 1904.35,614.76 1933.6,638.36 C1989.54,683.51 2187.8919,694.7904 2301.3619,697.6204" fill="none" id="lux-to-mqtt" style="stroke:#181818;stroke-width:1;"/><polygon fill="#181818" points="2307.36,697.77,2298.4625,693.5468,2302.3616,697.6453,2298.2631,701.5444,2307.36,697.77" style="stroke:#181818;stroke-width:1;"/><text fill="#000000" font-family="sans-serif" font-size="13" lengthAdjust="spacing" textLength="97.2715" x="1934.6" y="634.4269">light level data</text></g><!--link lux to mqtt--><g class="link" data-entity-1="lux" data-entity-2="mqtt" data-source-line="75" data-uid="lnk39" id="link_lux_mqtt"><path d="M1914.36,541.35 C1936.32,564.59 1969.43,595.47 2004.6,613.36 C2008.01,615.1 2191.2221,655.832 2301.3421,680.232" fill="none" id="lux-to-mqtt-1" style="stroke:#181818;stroke-width:1;"/><polygon fill="#181818" points="2307.2,681.53,2299.2784,675.6778,2302.3184,680.4484,2297.5478,683.4883,2307.2,681.53" style="stroke:#181818;stroke-width:1;"/></g><!--link weight to mqtt--><g class="link" data-entity-1="weight" data-entity-2="mqtt" data-source-line="40" data-uid="lnk21" id="link_weight_mqtt"><path d="M2115.8,541.07 C2132.47,562.69 2156.63,591.63 2181.6,613.36 C2217.5,644.61 2260.7967,663.7766 2301.6567,677.1266" fill="none" id="weight-to-mqtt" style="stroke:#181818;stroke-width:1;"/><polygon fill="#181818" points="2307.36,678.99,2300.0473,672.3927,2302.6072,677.4372,2297.5628,679.9971,2307.36,678.99" style="stroke:#181818;stroke-width:1;"/><text fill="#000000" font-family="sans-serif" font-size="13" lengthAdjust="spacing" textLength="77.2446" x="2215.6" y="634.4269">weight data</text></g><!--link nfc to mqtt--><g class="link" data-entity-1="nfc" data-entity-2="mqtt" data-source-line="41" data-uid="lnk22" id="link_nfc_mqtt"><path d="M2315.58,541.28 C2307.02,568.09 2299.32,607.5 2313.6,638.36 C2318.83,649.66 2322.8788,655.6078 2332.2188,664.0078" fill="none" id="nfc-to-mqtt" style="stroke:#181818;stroke-width:1;"/><polygon fill="#181818" points="2336.68,668.02,2332.663,659.0276,2332.9623,664.6765,2327.3134,664.9758,2336.68,668.02" style="stroke:#181818;stroke-width:1;"/><text fill="#000000" font-family="sans-serif" font-size="13" lengthAdjust="spacing" textLength="117.6348" x="2314.6" y="634.4269">product/card scan</text></g><!--link camera to mqtt--><g class="link" data-entity-1="camera" data-entity-2="mqtt" data-source-line="42" data-uid="lnk23" id="link_camera_mqtt"><path d="M2550.35,541.3 C2513.53,576.25 2458.0011,628.9687 2421.1911,663.9187" fill="none" id="camera-to-mqtt" style="stroke:#181818;stroke-width:1;"/><polygon fill="#181818" points="2416.84,668.05,2426.1209,664.7538,2420.466,664.6073,2420.6125,658.9523,2416.84,668.05" style="stroke:#181818;stroke-width:1;"/><text fill="#000000" font-family="sans-serif" font-size="13" lengthAdjust="spacing" textLength="109.3257" x="2466.6" y="634.4269">detection events</text></g><!--link camera to mqtt--><g class="link" data-entity-1="camera" data-entity-2="mqtt" data-source-line="80" data-uid="lnk42" id="link_camera_mqtt"><path d="M2592.79,541.47 C2600.01,569.52 2605.16,610.69 2584.6,638.36 C2569.54,658.63 2517.5618,673.4563 2467.9218,683.8863" fill="none" id="camera-to-mqtt-1" style="stroke:#181818;stroke-width:1;"/><polygon fill="#181818" points="2462.05,685.12,2471.6802,687.1839,2466.9432,684.0919,2470.0352,679.3549,2462.05,685.12" style="stroke:#181818;stroke-width:1;"/></g><!--link gps to mqtt--><g class="link" data-entity-1="gps" data-entity-2="mqtt" data-source-line="43" data-uid="lnk24" id="link_gps_mqtt"><path d="M2788.58,541.25 C2764.55,564.13 2728.95,594.58 2692.6,613.36 C2671.96,624.03 2552.2805,655.7541 2467.9905,677.4541" fill="none" id="gps-to-mqtt" style="stroke:#181818;stroke-width:1;"/><polygon fill="#181818" points="2462.18,678.95,2471.8931,680.5799,2467.0221,677.7034,2469.8985,672.8325,2462.18,678.95" style="stroke:#181818;stroke-width:1;"/><text fill="#000000" font-family="sans-serif" font-size="13" lengthAdjust="spacing" textLength="84.9951" x="2666.6" y="634.4269">location data</text></g><!--link gps to mqtt--><g class="link" data-entity-1="gps" data-entity-2="mqtt" data-source-line="79" data-uid="lnk41" id="link_gps_mqtt"><path d="M2813,541.4 C2805.9,571.06 2790.64,614.83 2759.6,638.36 C2714.02,672.92 2563.9569,687.9333 2468.1169,694.2833" fill="none" id="gps-to-mqtt-1" style="stroke:#181818;stroke-width:1;"/><polygon fill="#181818" points="2462.13,694.68,2471.3748,698.0762,2467.1191,694.3494,2470.8459,690.0937,2462.13,694.68" style="stroke:#181818;stroke-width:1;"/></g><!--link mqtt to telegraf--><g class="link" data-entity-1="mqtt" data-entity-2="telegraf" data-source-line="45" data-uid="lnk25" id="link_mqtt_telegraf"><path d="M2462.17,726.38 C2534.08,750.22 2635.1147,783.7223 2709.2147,808.2823" fill="none" id="mqtt-to-telegraf" style="stroke:#181818;stroke-width:1;"/><polygon fill="#181818" points="2714.91,810.17,2707.6255,803.5416,2710.1639,808.5969,2705.1086,811.1354,2714.91,810.17" style="stroke:#181818;stroke-width:1;"/><text fill="#000000" font-family="sans-serif" font-size="13" lengthAdjust="spacing" textLength="164.9185" x="2617.6" y="774.0269">forward sensor telemetry</text></g><!--link telegraf to InfluxDB--><g class="link" data-entity-1="telegraf" data-entity-2="InfluxDB" data-source-line="46" data-uid="lnk26" id="link_telegraf_InfluxDB"><path d="M2884.14,815.42 C2937.96,795.17 2997.6,759.47 2997.6,700.66 C2997.6,298.23 2997.6,298.23 2997.6,298.23 C2997.6,192.96 1339.7465,129.9952 944.9065,116.4852" fill="none" id="telegraf-to-InfluxDB" style="stroke:#181818;stroke-width:1;"/><polygon fill="#181818" points="938.91,116.28,947.768,120.5854,943.9071,116.451,948.0415,112.5901,938.91,116.28" style="stroke:#181818;stroke-width:1;"/><text fill="#000000" font-family="sans-serif" font-size="13" lengthAdjust="spacing" textLength="116.1494" x="2998.6" y="514.2369">time-series writes</text></g><!--link InfluxDB to GO--><g class="link" data-entity-1="InfluxDB" data-entity-2="GO" data-source-line="48" data-uid="lnk27" id="link_InfluxDB_GO"><path d="M892.06,184.42 C906.92,213.31 920.5547,239.8349 932.2047,262.4749" fill="none" id="InfluxDB-to-GO" style="stroke:#181818;stroke-width:1;"/><polygon fill="#181818" points="934.95,267.81,934.3888,257.9771,932.6622,263.3641,927.2753,261.6376,934.95,267.81" style="stroke:#181818;stroke-width:1;"/><text fill="#000000" font-family="sans-serif" font-size="13" lengthAdjust="spacing" textLength="259.8921" x="915.6" y="227.1469">backend reads &amp; processes sensor data</text></g><!--link user to GO--><g class="link" data-entity-1="user" data-entity-2="GO" data-source-line="54" data-uid="lnk28" id="link_user_GO"><path d="M2022.17,299.23 C1910.01,299.23 1260.93,299.23 1033.97,299.23" fill="none" id="user-to-GO" style="stroke:#181818;stroke-width:1;"/><polygon fill="#181818" points="1027.97,299.23,1036.97,303.23,1032.97,299.23,1036.97,295.23,1027.97,299.23" style="stroke:#181818;stroke-width:1;"/><text fill="#000000" font-family="sans-serif" font-size="13" lengthAdjust="spacing" textLength="224.707" x="1413.11" y="292.2969">Login / Signup (stats, preferences)</text></g><!--link user to vue--><g class="link" data-entity-1="user" data-entity-2="vue" data-source-line="55" data-uid="lnk29" id="link_user_vue"><path d="M2022.43,317.06 C2001.58,337.44 1963.16,370.73 1922.6,384.38 C1883.63,397.49 1589.51,374.26 1552.6,392.38 C1516.01,410.34 1491.8502,444.7575 1476.3902,472.7575" fill="none" id="user-to-vue" style="stroke:#181818;stroke-width:1;"/><polygon fill="#181818" points="1473.49,478.01,1481.3419,472.0646,1475.9068,473.6329,1474.3385,468.1978,1473.49,478.01" style="stroke:#181818;stroke-width:1;"/><text fill="#000000" font-family="sans-serif" font-size="13" lengthAdjust="spacing" textLength="106.6914" x="1958.6" y="380.4469">Interacts with UI</text></g><!--link vue to user--><g class="link" data-entity-1="vue" data-entity-2="user" data-source-line="87" data-uid="lnk47" id="link_vue_user"><path d="M1473.46,477.96 C1488.9,449.92 1515.96,410.22 1552.6,392.38 C1565.61,386.04 2063.44,394.69 2073.6,384.38 C2092.25,365.44 2075.3399,339.6011 2058.7699,320.9911" fill="none" id="vue-to-user" style="stroke:#181818;stroke-width:1;"/><polygon fill="#181818" points="2054.78,316.51,2057.7775,325.8916,2058.1049,320.2443,2063.7523,320.5718,2054.78,316.51" style="stroke:#181818;stroke-width:1;"/><text fill="#000000" font-family="sans-serif" font-size="13" lengthAdjust="spacing" textLength="99.7471" x="2081.6" y="380.4469">cart UI updates</text></g><!--link user to nfc--><g class="link" data-entity-1="user" data-entity-2="nfc" data-source-line="56" data-uid="lnk30" id="link_user_nfc"><path d="M2054.97,323.76 C2059.73,329.03 2065.36,334.04 2071.6,337.38 C2157.46,383.28 2215.37,303.22 2288.6,367.38 C2320.09,394.96 2327.0129,439.4432 2328.0829,472.0032" fill="none" id="user-to-nfc" style="stroke:#181818;stroke-width:1;"/><polygon fill="#181818" points="2328.28,478,2331.9822,468.8735,2328.1158,473.0027,2323.9866,469.1362,2328.28,478" style="stroke:#181818;stroke-width:1;"/><text fill="#000000" font-family="sans-serif" font-size="13" lengthAdjust="spacing" textLength="220.3462" x="2301.6" y="380.4469">Scan product or card for payment</text></g><!--link vue to GO--><g class="link" data-entity-1="vue" data-entity-2="GO" data-source-line="58" data-uid="lnk31" id="link_vue_GO"><path d="M1383.51,492.81 C1302.05,473.84 1169.6,437.81 1064.6,384.38 C1036.1,369.87 1011.7993,352.1926 990.1993,334.5726" fill="none" id="vue-to-GO" style="stroke:#181818;stroke-width:1;"/><polygon fill="#181818" points="985.55,330.78,989.9955,339.5685,989.4244,333.9405,995.0524,333.3694,985.55,330.78" style="stroke:#181818;stroke-width:1;"/><text fill="#000000" font-family="sans-serif" font-size="13" lengthAdjust="spacing" textLength="229.6265" x="1065.6" y="380.4469">Search product / minimap requests</text></g><!--link GO to vue--><g class="link" data-entity-1="GO" data-entity-2="vue" data-source-line="60" data-uid="lnk33" id="link_GO_vue"><path d="M1027.84,303.36 C1101.14,308.97 1212.72,324.52 1299.6,367.38 C1354.24,394.34 1400.5382,440.734 1429.3682,473.524" fill="none" id="GO-to-vue" style="stroke:#181818;stroke-width:1;"/><polygon fill="#181818" points="1433.33,478.03,1430.3913,468.6298,1430.0285,474.275,1424.3833,473.9122,1433.33,478.03" style="stroke:#181818;stroke-width:1;"/><text fill="#000000" font-family="sans-serif" font-size="13" lengthAdjust="spacing" textLength="63.2861" x="1326.6" y="380.4469">UI update</text></g><!--link GO to vue--><g class="link" data-entity-1="GO" data-entity-2="vue" data-source-line="72" data-uid="lnk38" id="link_GO_vue"><path d="M1028,302.88 C1140.57,308.19 1342.17,323.67 1398.6,367.38 C1433.37,394.3 1447.1287,439.3238 1453.3087,472.1138" fill="none" id="GO-to-vue-1" style="stroke:#181818;stroke-width:1;"/><polygon fill="#181818" points="1454.42,478.01,1456.6839,468.4249,1453.4939,473.0965,1448.8223,469.9066,1454.42,478.01" style="stroke:#181818;stroke-width:1;"/><text fill="#000000" font-family="sans-serif" font-size="13" lengthAdjust="spacing" textLength="170.8726" x="1413.6" y="380.4469">display mismatch warning</text></g><!--link GO to vue--><g class="link" data-entity-1="GO" data-entity-2="vue" data-source-line="76" data-uid="lnk40" id="link_GO_vue"><path d="M1027.89,302.63 C1190.35,308.47 1555.4,326.09 1592.6,367.38 C1622.36,400.42 1563.28,385.92 1552.6,392.38 C1518.28,413.14 1494.2325,446.0523 1478.1125,472.9723" fill="none" id="GO-to-vue-2" style="stroke:#181818;stroke-width:1;"/><polygon fill="#181818" points="1475.03,478.12,1483.0855,472.4535,1477.5987,473.8303,1476.2219,468.3435,1475.03,478.12" style="stroke:#181818;stroke-width:1;"/><text fill="#000000" font-family="sans-serif" font-size="13" lengthAdjust="spacing" textLength="180.0132" x="1601.6" y="380.4469">enable emergency mode UI</text></g><!--link GO to vue--><g class="link" data-entity-1="GO" data-entity-2="vue" data-source-line="84" data-uid="lnk46" id="link_GO_vue"><path d="M1028,300.58 C1226.09,302.26 1739.46,311.99 1790.6,367.38 C1795.73,372.93 1795.85,378.95 1790.6,384.38 C1772.21,403.4 1576.28,380.58 1552.6,392.38 C1516.12,410.56 1491.9415,444.9337 1476.4415,472.8637" fill="none" id="GO-to-vue-3" style="stroke:#181818;stroke-width:1;"/><polygon fill="#181818" points="1473.53,478.11,1481.3947,472.1816,1475.9562,473.7381,1474.3997,468.2996,1473.53,478.11" style="stroke:#181818;stroke-width:1;"/><text fill="#000000" font-family="sans-serif" font-size="13" lengthAdjust="spacing" textLength="119.3423" x="1794.6" y="380.4469">autopilot status UI</text></g><!--link GO to MariaDB--><g class="link" data-entity-1="GO" data-entity-2="MariaDB" data-source-line="59" data-uid="lnk32" id="link_GO_MariaDB"><path d="M873.27,302.42 C707.73,307.9 330.91,324.96 292.6,367.38 C243.67,421.55 339.8232,462.7252 418.9232,486.4652" fill="none" id="GO-to-MariaDB" style="stroke:#181818;stroke-width:1;"/><polygon fill="#181818" points="424.67,488.19,417.1997,481.7717,419.881,486.7527,414.9,489.434,424.67,488.19" style="stroke:#181818;stroke-width:1;"/><text fill="#000000" font-family="sans-serif" font-size="13" lengthAdjust="spacing" textLength="168.5049" x="293.6" y="380.4469">get product info / location</text></g><!--link GO to MariaDB--><g class="link" data-entity-1="GO" data-entity-2="MariaDB" data-source-line="66" data-uid="lnk34" id="link_GO_MariaDB"><path d="M873.55,300.19 C758.31,301.97 549.56,312.85 502.6,367.38 C487.95,384.39 483.8345,401.2983 485.0145,423.7083" fill="none" id="GO-to-MariaDB-1" style="stroke:#181818;stroke-width:1;"/><polygon fill="#181818" points="485.33,429.7,488.8512,420.5021,485.0671,424.7069,480.8623,420.9228,485.33,429.7" style="stroke:#181818;stroke-width:1;"/><text fill="#000000" font-family="sans-serif" font-size="13" lengthAdjust="spacing" textLength="115.7686" x="503.6" y="380.4469">update cart items</text></g><!--link GO to MariaDB--><g class="link" data-entity-1="GO" data-entity-2="MariaDB" data-source-line="67" data-uid="lnk35" id="link_GO_MariaDB"><path d="M873.32,307.15 C812.4,315.12 726.81,331.99 659.6,367.38 C629.42,383.27 604.9929,402.4106 580.6529,425.5006" fill="none" id="GO-to-MariaDB-2" style="stroke:#181818;stroke-width:1;"/><polygon fill="#181818" points="576.3,429.63,585.5823,426.3379,579.9275,426.1888,580.0765,420.5339,576.3,429.63" style="stroke:#181818;stroke-width:1;"/><text fill="#000000" font-family="sans-serif" font-size="13" lengthAdjust="spacing" textLength="161.4082" x="660.6" y="380.4469">purchase/refund product</text></g><!--link GO to MariaDB--><g class="link" data-entity-1="GO" data-entity-2="MariaDB" data-source-line="68" data-uid="lnk36" id="link_GO_MariaDB"><path d="M910.44,330.91 C886.85,348.04 855.98,368.98 826.6,384.38 C748.13,425.51 658.5862,458.7749 592.3162,481.0949" fill="none" id="GO-to-MariaDB-3" style="stroke:#181818;stroke-width:1;"/><polygon fill="#181818" points="586.63,483.01,596.436,483.9281,591.3685,481.4141,593.8825,476.3466,586.63,483.01" style="stroke:#181818;stroke-width:1;"/><text fill="#000000" font-family="sans-serif" font-size="13" lengthAdjust="spacing" textLength="160.0942" x="856.6" y="380.4469">update user preferences</text></g><!--link GO to MariaDB--><g class="link" data-entity-1="GO" data-entity-2="MariaDB" data-source-line="69" data-uid="lnk37" id="link_GO_MariaDB"><path d="M873.19,300.51 C673.75,302.04 154.31,311.41 102.6,367.38 C6,471.93 274.9973,498.8348 418.5273,505.9048" fill="none" id="GO-to-MariaDB-4" style="stroke:#181818;stroke-width:1;"/><polygon fill="#181818" points="424.52,506.2,415.7277,501.7621,419.5261,505.954,415.3341,509.7524,424.52,506.2" style="stroke:#181818;stroke-width:1;"/><text fill="#000000" font-family="sans-serif" font-size="13" lengthAdjust="spacing" textLength="171.9771" x="103.6" y="380.4469">update purchase statistics</text></g><!--link GO to GMN43--><g class="link" data-entity-1="GO" data-entity-2="GMN43" data-source-line="82" data-uid="lnk45" id="link_GO_GMN43"><path d="M1027.89,291.8 C1204.15,275.29 1649.53,235.91 2023.1,222.58 C2036.87,222.09 2040.64,219.65 2054.1,222.58 C2110.34,234.84 2170.3,267.75 2200.95,286.22" fill="none" id="GO-GMN43" style="stroke:#181818;stroke-width:1;stroke-dasharray:7,7;"/></g><!--SRC=[hLPBS-Cs3BxhLs1oQ9D9Kzzpw8pVrOmVgMKdbxqm4YnpLoAz91Ktqzd_lW19-LNloVPCOal41uBuFW0KkTC6LXOD20iDVIV9x_1qpOVm_SbyDO1ik7WTBY1B1yEhVIPRaNyJ9S9Tlz9D0HcQ3pHty5y2zCbrlTKAbOExiQw4Ag7xadvHzxt6IeNMmaINCd-uupEEv-UG1HRIHey4oWWWjUhqHRx1W35iuM65SE9TM8fZAemKWzuNzGGlHXTDxYp_zgaSa1K_z8LnaAgrveVv5esWRDi0mJKQL3c6nyRa6tQREH7yJAMIjTZ2bFxOdOyZxdaM2MrGDVzoA1IxiiJdKjRuH0UIQ1_OsHlASkDyU9KpmcebStwQjA_7Brc8jwOOOVX1UR5-nzPtykCMkiYctSKI-lplx-vYyDPT3E4HilbeoJzlA9Aivinp-baYvuI_DlZdLqixlqg7i6Ab3AJTLk8pqFtHu3ba-izo2JsZlqM9-3Hdpg2e0wR-xjmvQ8aLbaQi2J55PsHkeQ-h2hdc0if5Yn1Y6tvmRwEupvmU68nsv7t-Rft8AuG1El9EwWtkcxtj9K-U_OEJ7ktUaE1qWR0qiYmn1aa2k0GFeZhW9reKqCUg2gYTNxu4d8twdSKe7S02HU7p6Gi8ibmew31l1Ro8pvhCWpErldY2RXebwtFmbOvEFdDTAdd8GUuDBg59z7pQfaA2-rATw5mmacA8zHTybDjG_JzkL0R3MJPVmA2xxC9eCd_BhbV-WMdoz9TN8pm3TIqdgCVuPf4GZyUBbQUlmW-imdfWxDWall6hHC7nqZPGricPAqky9I7H9zktQWJq7IMXF9v4qARRRv3ujxpSLWMPhBNP-Hr2nV5AJQNqcUnj6D1sAG8uRdtMjpxO6QflcoJxPROTpydgdRIEgg36BWeBl_5fg1DRmiIDGaJNKxsY8GZfR3bSTFlBT3wx1TKyOVOduSd6UiragQXwxoqFa3_eGFlvyd10K6CZIAeS4KNp2dRIRQZ_7GoOvETGXf5We6HuZea9Qb2-9fE47Ur3o53GzDe3Eb37sMNmUuEMU2SpjexZYo0bkhszfFb8e5OChN68TPL2ioKoy2RN4XuylLMMpePP1fFvEErVJyV_pXRYvQJHsHpM5uw_ZUE-Gomr9CEOYb_wylmSKVfBmzOni0oe-6daSE9YgwwbhOKZgYg-3fqckWW3y613PQUaAXaU9qFDa-6-qhlGEXvE6igfDrJYdSOHrQefAUBFW2MbaRSHZK2zUwhHZvgJdd3UGnAbwL361w_NuUesQlXsvX-fVp-sTvR7ewjDmgNDqDEWHEFqLbRQ-UmqDiOJHp-fTMtGRlRQzab_3ZpkPMX_0W00]--></g></svg>