<svg xmlns="http://www.w3.org/2000/svg" xmlns:xlink="http://www.w3.org/1999/xlink" contentStyleType="text/css" data-diagram-type="DESCRIPTION" height="790px" preserveAspectRatio="none" style="width:2690px;height:790px;background:#FFFFFF;" version="1.1" viewBox="0 0 2690 790" width="2690px" zoomAndPan="magnify"><defs/><g><!--cluster Cloud Server--><g class="cluster" data-entity="Cloud Server" data-source-line="7" data-uid="ent0003" id="cluster_Cloud Server"><path d="M1632.5,6 L1735.0615,6 A3.75,3.75 0 0 1 1737.5615,8.5 L1744.5615,28.2969 L2639.5,28.2969 A2.5,2.5 0 0 1 2642,30.7969 L2642,639.55 A2.5,2.5 0 0 1 2639.5,642.05 L1632.5,642.05 A2.5,2.5 0 0 1 1630,639.55 L1630,8.5 A2.5,2.5 0 0 1 1632.5,6" fill="none" style="stroke:#000000;stroke-width:1.5;"/><line style="stroke:#000000;stroke-width:1.5;" x1="1630" x2="1744.5615" y1="28.2969" y2="28.2969"/><text fill="#000000" font-family="sans-serif" font-size="14" font-weight="bold" lengthAdjust="spacing" textLength="101.5615" x="1634" y="20.9951">Cloud Server</text></g><!--cluster Smart Cart--><g class="cluster" data-entity="Smart Cart" data-source-line="18" data-uid="ent0008" id="cluster_Smart Cart"><path d="M8.5,247.08 L95.4072,247.08 A3.75,3.75 0 0 1 97.9072,249.58 L104.9072,269.3769 L1603.5,269.3769 A2.5,2.5 0 0 1 1606,271.8769 L1606,781.14 A2.5,2.5 0 0 1 1603.5,783.64 L8.5,783.64 A2.5,2.5 0 0 1 6,781.14 L6,249.58 A2.5,2.5 0 0 1 8.5,247.08" fill="none" style="stroke:#000000;stroke-width:1.5;"/><line style="stroke:#000000;stroke-width:1.5;" x1="6" x2="104.9072" y1="269.3769" y2="269.3769"/><text fill="#000000" font-family="sans-serif" font-size="14" font-weight="bold" lengthAdjust="spacing" textLength="85.9072" x="10" y="262.0751">Smart Cart</text></g><!--cluster Sensors--><g class="cluster" data-entity="Sensors" data-source-line="24" data-uid="ent0012" id="cluster_Sensors"><path d="M32.5,290.08 L96.2334,290.08 A3.75,3.75 0 0 1 98.7334,292.58 L105.7334,312.3769 L1418.5,312.3769 A2.5,2.5 0 0 1 1421,314.8769 L1421,401.17 A2.5,2.5 0 0 1 1418.5,403.67 L32.5,403.67 A2.5,2.5 0 0 1 30,401.17 L30,292.58 A2.5,2.5 0 0 1 32.5,290.08" fill="none" style="stroke:#000000;stroke-width:1.5;"/><line style="stroke:#000000;stroke-width:1.5;" x1="30" x2="105.7334" y1="312.3769" y2="312.3769"/><text fill="#000000" font-family="sans-serif" font-size="14" font-weight="bold" lengthAdjust="spacing" textLength="62.7334" x="34" y="305.0751">Sensors</text></g><!--entity GO--><g class="entity" data-entity="GO" data-source-line="8" data-uid="ent0004" id="entity_GO"><rect fill="#F1F1F1" height="62.5938" rx="2.5" ry="2.5" style="stroke:#181818;stroke-width:0.5;" width="116.2412" x="1854.88" y="325.08"/><rect fill="#F1F1F1" height="10" style="stroke:#181818;stroke-width:0.5;" width="15" x="1951.1212" y="330.08"/><rect fill="#F1F1F1" height="2" style="stroke:#181818;stroke-width:0.5;" width="4" x="1949.1212" y="332.08"/><rect fill="#F1F1F1" height="2" style="stroke:#181818;stroke-width:0.5;" width="4" x="1949.1212" y="336.08"/><text fill="#000000" font-family="sans-serif" font-size="14" lengthAdjust="spacing" textLength="76.2412" x="1869.88" y="358.0751">Golang API</text><text fill="#000000" font-family="sans-serif" font-size="14" lengthAdjust="spacing" textLength="71.2852" x="1869.88" y="374.372">(Backend)</text></g><!--entity redis--><g class="entity" data-entity="redis" data-source-line="9" data-uid="ent0005" id="entity_redis"><rect fill="#F1F1F1" height="62.5938" rx="2.5" ry="2.5" style="stroke:#181818;stroke-width:0.5;" width="152.5947" x="2125.7" y="81.24"/><rect fill="#F1F1F1" height="10" style="stroke:#181818;stroke-width:0.5;" width="15" x="2258.2947" y="86.24"/><rect fill="#F1F1F1" height="2" style="stroke:#181818;stroke-width:0.5;" width="4" x="2256.2947" y="88.24"/><rect fill="#F1F1F1" height="2" style="stroke:#181818;stroke-width:0.5;" width="4" x="2256.2947" y="92.24"/><text fill="#000000" font-family="sans-serif" font-size="14" lengthAdjust="spacing" textLength="88.7715" x="2140.7" y="114.2351">Redis Server</text><text fill="#000000" font-family="sans-serif" font-size="14" lengthAdjust="spacing" textLength="112.5947" x="2140.7" y="130.532">(Session/Cache)</text></g><!--entity MariaDB--><g class="entity" data-entity="MariaDB" data-source-line="10" data-uid="ent0006" id="entity_MariaDB"><path d="M1967.4,476.67 C1967.4,466.67 2048.005,466.67 2048.005,466.67 C2048.005,466.67 2128.61,466.67 2128.61,476.67 L2128.61,616.045 C2128.61,626.045 2048.005,626.045 2048.005,626.045 C2048.005,626.045 1967.4,626.045 1967.4,616.045 L1967.4,476.67" fill="#F1F1F1" style="stroke:#181818;stroke-width:0.5;"/><path d="M1967.4,476.67 C1967.4,486.67 2048.005,486.67 2048.005,486.67 C2048.005,486.67 2128.61,486.67 2128.61,476.67" fill="none" style="stroke:#181818;stroke-width:0.5;"/><text fill="#000000" font-family="sans-serif" font-size="14" lengthAdjust="spacing" textLength="59.2676" x="1977.4" y="503.6651">MariaDB</text><text fill="#000000" font-family="sans-serif" font-size="14" lengthAdjust="spacing" textLength="70.5059" x="1977.4" y="519.962">- Products</text><text fill="#000000" font-family="sans-serif" font-size="14" lengthAdjust="spacing" textLength="79.29" x="1977.4" y="536.2589">- User Data</text><text fill="#000000" font-family="sans-serif" font-size="14" lengthAdjust="spacing" textLength="70.0479" x="1977.4" y="552.5557">- Cart Info</text><text fill="#000000" font-family="sans-serif" font-size="14" lengthAdjust="spacing" textLength="79.4609" x="1977.4" y="568.8526">- Operators</text><text fill="#000000" font-family="sans-serif" font-size="14" lengthAdjust="spacing" textLength="92.7021" x="1977.4" y="585.1495">- Preferences</text><text fill="#000000" font-family="sans-serif" font-size="14" lengthAdjust="spacing" textLength="113.8184" x="1977.4" y="601.4464">- Purchase Stats</text><text fill="#000000" font-family="sans-serif" font-size="14" lengthAdjust="spacing" textLength="141.21" x="1977.4" y="617.7432">- Minimap Map Data</text></g><!--entity InfluxDB--><g class="entity" data-entity="InfluxDB" data-source-line="11" data-uid="ent0007" id="entity_InfluxDB"><path d="M2314.92,51 C2314.92,41 2397.9996,41 2397.9996,41 C2397.9996,41 2481.0792,41 2481.0792,51 L2481.0792,174.0781 C2481.0792,184.0781 2397.9996,184.0781 2397.9996,184.0781 C2397.9996,184.0781 2314.92,184.0781 2314.92,174.0781 L2314.92,51" fill="#F1F1F1" style="stroke:#181818;stroke-width:0.5;"/><path d="M2314.92,51 C2314.92,61 2397.9996,61 2397.9996,61 C2397.9996,61 2481.0792,61 2481.0792,51" fill="none" style="stroke:#181818;stroke-width:0.5;"/><text fill="#000000" font-family="sans-serif" font-size="14" lengthAdjust="spacing" textLength="59.3633" x="2324.92" y="77.9951">InfluxDB</text><text fill="#000000" font-family="sans-serif" font-size="14" lengthAdjust="spacing" textLength="146.1592" x="2324.92" y="94.292">(Sensor Time-Series)</text><text fill="#000000" font-family="sans-serif" font-size="14" lengthAdjust="spacing" textLength="59.0967" x="2324.92" y="110.5889">- Weight</text><text fill="#000000" font-family="sans-serif" font-size="14" lengthAdjust="spacing" textLength="79.7822" x="2324.92" y="126.8857">- Ultrasonic</text><text fill="#000000" font-family="sans-serif" font-size="14" lengthAdjust="spacing" textLength="44.4404" x="2324.92" y="143.1826">- Light</text><text fill="#000000" font-family="sans-serif" font-size="14" lengthAdjust="spacing" textLength="37.6797" x="2324.92" y="159.4795">- GPS</text><text fill="#000000" font-family="sans-serif" font-size="14" lengthAdjust="spacing" textLength="116.293" x="2324.92" y="175.7764">- Camera Events</text></g><!--entity vue--><g class="entity" data-entity="vue" data-source-line="20" data-uid="ent0009" id="entity_vue"><rect fill="#F1F1F1" height="62.5938" rx="2.5" ry="2.5" style="stroke:#181818;stroke-width:0.5;" width="149.7236" x="1440.14" y="325.08"/><rect fill="#F1F1F1" height="10" style="stroke:#181818;stroke-width:0.5;" width="15" x="1569.8636" y="330.08"/><rect fill="#F1F1F1" height="2" style="stroke:#181818;stroke-width:0.5;" width="4" x="1567.8636" y="332.08"/><rect fill="#F1F1F1" height="2" style="stroke:#181818;stroke-width:0.5;" width="4" x="1567.8636" y="336.08"/><text fill="#000000" font-family="sans-serif" font-size="14" lengthAdjust="spacing" textLength="109.7236" x="1455.14" y="358.0751">Vue.js + Vite UI</text><text fill="#000000" font-family="sans-serif" font-size="14" lengthAdjust="spacing" textLength="62.5283" x="1455.14" y="374.372">(Display)</text></g><!--entity mqtt--><g class="entity" data-entity="mqtt" data-source-line="21" data-uid="ent0010" id="entity_mqtt"><rect fill="#F1F1F1" height="62.5938" rx="2.5" ry="2.5" style="stroke:#181818;stroke-width:0.5;" width="154.3242" x="795.84" y="515.06"/><rect fill="#F1F1F1" height="10" style="stroke:#181818;stroke-width:0.5;" width="15" x="930.1642" y="520.06"/><rect fill="#F1F1F1" height="2" style="stroke:#181818;stroke-width:0.5;" width="4" x="928.1642" y="522.06"/><rect fill="#F1F1F1" height="2" style="stroke:#181818;stroke-width:0.5;" width="4" x="928.1642" y="526.06"/><text fill="#000000" font-family="sans-serif" font-size="14" lengthAdjust="spacing" textLength="91.0547" x="810.84" y="548.0551">MQTT Broker</text><text fill="#000000" font-family="sans-serif" font-size="14" lengthAdjust="spacing" textLength="114.3242" x="810.84" y="564.352">(Sensor Stream)</text></g><!--entity telegraf--><g class="entity" data-entity="telegraf" data-source-line="22" data-uid="ent0011" id="entity_telegraf"><rect fill="#F1F1F1" height="62.5938" rx="2.5" ry="2.5" style="stroke:#181818;stroke-width:0.5;" width="168.4336" x="1324.78" y="705.05"/><rect fill="#F1F1F1" height="10" style="stroke:#181818;stroke-width:0.5;" width="15" x="1473.2136" y="710.05"/><rect fill="#F1F1F1" height="2" style="stroke:#181818;stroke-width:0.5;" width="4" x="1471.2136" y="712.05"/><rect fill="#F1F1F1" height="2" style="stroke:#181818;stroke-width:0.5;" width="4" x="1471.2136" y="716.05"/><text fill="#000000" font-family="sans-serif" font-size="14" lengthAdjust="spacing" textLength="57.8184" x="1339.78" y="738.0451">Telegraf</text><text fill="#000000" font-family="sans-serif" font-size="14" lengthAdjust="spacing" textLength="128.4336" x="1339.78" y="754.342">(Metrics Collector)</text></g><!--entity ultrasonic--><g class="entity" data-entity="ultrasonic" data-source-line="25" data-uid="ent0013" id="entity_ultrasonic"><rect fill="#F1F1F1" height="62.5938" rx="2.5" ry="2.5" style="stroke:#181818;stroke-width:0.5;" width="184.8535" x="45.57" y="325.08"/><rect fill="#F1F1F1" height="10" style="stroke:#181818;stroke-width:0.5;" width="15" x="210.4235" y="330.08"/><rect fill="#F1F1F1" height="2" style="stroke:#181818;stroke-width:0.5;" width="4" x="208.4235" y="332.08"/><rect fill="#F1F1F1" height="2" style="stroke:#181818;stroke-width:0.5;" width="4" x="208.4235" y="336.08"/><text fill="#000000" font-family="sans-serif" font-size="14" lengthAdjust="spacing" textLength="122.7188" x="60.57" y="358.0751">Ultrasonic Sensor</text><text fill="#000000" font-family="sans-serif" font-size="14" lengthAdjust="spacing" textLength="144.8535" x="60.57" y="374.372">(Obstacle Detection)</text></g><!--entity lux--><g class="entity" data-entity="lux" data-source-line="26" data-uid="ent0014" id="entity_lux"><rect fill="#F1F1F1" height="62.5938" rx="2.5" ry="2.5" style="stroke:#181818;stroke-width:0.5;" width="200.0566" x="264.97" y="325.08"/><rect fill="#F1F1F1" height="10" style="stroke:#181818;stroke-width:0.5;" width="15" x="445.0266" y="330.08"/><rect fill="#F1F1F1" height="2" style="stroke:#181818;stroke-width:0.5;" width="4" x="443.0266" y="332.08"/><rect fill="#F1F1F1" height="2" style="stroke:#181818;stroke-width:0.5;" width="4" x="443.0266" y="336.08"/><text fill="#000000" font-family="sans-serif" font-size="14" lengthAdjust="spacing" textLength="87.377" x="279.97" y="358.0751">Light Sensor</text><text fill="#000000" font-family="sans-serif" font-size="14" lengthAdjust="spacing" textLength="160.0566" x="279.97" y="374.372">(Backup Mode Trigger)</text></g><!--entity weight--><g class="entity" data-entity="weight" data-source-line="27" data-uid="ent0015" id="entity_weight"><rect fill="#F1F1F1" height="62.5938" rx="2.5" ry="2.5" style="stroke:#181818;stroke-width:0.5;" width="142.0332" x="499.98" y="325.08"/><rect fill="#F1F1F1" height="10" style="stroke:#181818;stroke-width:0.5;" width="15" x="622.0132" y="330.08"/><rect fill="#F1F1F1" height="2" style="stroke:#181818;stroke-width:0.5;" width="4" x="620.0132" y="332.08"/><rect fill="#F1F1F1" height="2" style="stroke:#181818;stroke-width:0.5;" width="4" x="620.0132" y="336.08"/><text fill="#000000" font-family="sans-serif" font-size="14" lengthAdjust="spacing" textLength="102.0332" x="514.98" y="358.0751">Weight Sensor</text><text fill="#000000" font-family="sans-serif" font-size="14" lengthAdjust="spacing" textLength="75.373" x="514.98" y="374.372">(Load Cell)</text></g><!--entity nfc--><g class="entity" data-entity="nfc" data-source-line="28" data-uid="ent0016" id="entity_nfc"><rect fill="#F1F1F1" height="62.5938" rx="2.5" ry="2.5" style="stroke:#181818;stroke-width:0.5;" width="256.1045" x="676.95" y="325.08"/><rect fill="#F1F1F1" height="10" style="stroke:#181818;stroke-width:0.5;" width="15" x="913.0545" y="330.08"/><rect fill="#F1F1F1" height="2" style="stroke:#181818;stroke-width:0.5;" width="4" x="911.0545" y="332.08"/><rect fill="#F1F1F1" height="2" style="stroke:#181818;stroke-width:0.5;" width="4" x="911.0545" y="336.08"/><text fill="#000000" font-family="sans-serif" font-size="14" lengthAdjust="spacing" textLength="120.333" x="691.95" y="358.0751">NFC/RFID Reader</text><text fill="#000000" font-family="sans-serif" font-size="14" lengthAdjust="spacing" textLength="216.1045" x="691.95" y="374.372">(Product Scan / Card Payment)</text></g><!--entity camera--><g class="entity" data-entity="camera" data-source-line="29" data-uid="ent0017" id="entity_camera"><rect fill="#F1F1F1" height="62.5938" rx="2.5" ry="2.5" style="stroke:#181818;stroke-width:0.5;" width="184.04" x="967.98" y="325.08"/><rect fill="#F1F1F1" height="10" style="stroke:#181818;stroke-width:0.5;" width="15" x="1132.02" y="330.08"/><rect fill="#F1F1F1" height="2" style="stroke:#181818;stroke-width:0.5;" width="4" x="1130.02" y="332.08"/><rect fill="#F1F1F1" height="2" style="stroke:#181818;stroke-width:0.5;" width="4" x="1130.02" y="336.08"/><text fill="#000000" font-family="sans-serif" font-size="14" lengthAdjust="spacing" textLength="73.0967" x="982.98" y="358.0751">AI Camera</text><text fill="#000000" font-family="sans-serif" font-size="14" lengthAdjust="spacing" textLength="144.04" x="982.98" y="374.372">(Object Recognition)</text></g><!--entity gps--><g class="entity" data-entity="gps" data-source-line="30" data-uid="ent0018" id="entity_gps"><rect fill="#F1F1F1" height="62.5938" rx="2.5" ry="2.5" style="stroke:#181818;stroke-width:0.5;" width="217.8848" x="1187.06" y="325.08"/><rect fill="#F1F1F1" height="10" style="stroke:#181818;stroke-width:0.5;" width="15" x="1384.9448" y="330.08"/><rect fill="#F1F1F1" height="2" style="stroke:#181818;stroke-width:0.5;" width="4" x="1382.9448" y="332.08"/><rect fill="#F1F1F1" height="2" style="stroke:#181818;stroke-width:0.5;" width="4" x="1382.9448" y="336.08"/><text fill="#000000" font-family="sans-serif" font-size="14" lengthAdjust="spacing" textLength="83.5352" x="1202.06" y="358.0751">GPS Module</text><text fill="#000000" font-family="sans-serif" font-size="14" lengthAdjust="spacing" textLength="177.8848" x="1202.06" y="374.372">(Cart Location / Minimap)</text></g><!--entity user--><g class="entity" data-entity="user" data-source-line="1" data-uid="ent0002" id="entity_user"><ellipse cx="1434.9951" cy="82.89" fill="#F1F1F1" rx="8" ry="8" style="stroke:#181818;stroke-width:0.5;"/><path d="M1434.9951,90.89 L1434.9951,117.89 M1421.9951,98.89 L1447.9951,98.89 M1434.9951,117.89 L1421.9951,132.89 M1434.9951,117.89 L1447.9951,132.89" fill="none" style="stroke:#181818;stroke-width:0.5;"/><text fill="#000000" font-family="sans-serif" font-size="14" lengthAdjust="spacing" textLength="31.9102" x="1419.04" y="147.3851">User</text></g><!--link ultrasonic to mqtt--><g class="link" data-entity-1="ultrasonic" data-entity-2="mqtt" data-source-line="38" data-uid="lnk19" id="link_ultrasonic_mqtt"><path d="M190.48,388.02 C220.97,404.62 260.64,424.24 298,436.67 C470.79,494.18 677.5499,523.7494 789.5699,536.7294" fill="none" id="ultrasonic-to-mqtt" style="stroke:#181818;stroke-width:1;"/><polygon fill="#181818" points="795.53,537.42,787.0502,532.4107,790.5632,536.8445,786.1294,540.3575,795.53,537.42" style="stroke:#181818;stroke-width:1;"/><text fill="#000000" font-family="sans-serif" font-size="13" lengthAdjust="spacing" textLength="88.499" x="299" y="432.7369">distance data</text></g><!--link lux to mqtt--><g class="link" data-entity-1="lux" data-entity-2="mqtt" data-source-line="39" data-uid="lnk20" id="link_lux_mqtt"><path d="M375.73,387.92 C383.14,404.71 394.64,424.54 411,436.67 C525.83,521.83 691.2245,541.2476 789.7645,545.0676" fill="none" id="lux-to-mqtt" style="stroke:#181818;stroke-width:1;"/><polygon fill="#181818" points="795.76,545.3,786.9217,540.9544,790.7638,545.1063,786.6118,548.9484,795.76,545.3" style="stroke:#181818;stroke-width:1;"/><text fill="#000000" font-family="sans-serif" font-size="13" lengthAdjust="spacing" textLength="97.2715" x="412" y="432.7369">light level data</text></g><!--link lux to mqtt--><g class="link" data-entity-1="lux" data-entity-2="mqtt" data-source-line="75" data-uid="lnk39" id="link_lux_mqtt"><path d="M425.42,388.07 C443.34,396.44 463.21,405.03 482,411.67 C495.82,416.56 499.96,415.47 514,419.67 C612.21,449.07 717.7171,486.9465 789.9671,513.8465" fill="none" id="lux-to-mqtt-1" style="stroke:#181818;stroke-width:1;"/><polygon fill="#181818" points="795.59,515.94,788.5513,509.0511,790.9042,514.1954,785.7599,516.5483,795.59,515.94" style="stroke:#181818;stroke-width:1;"/></g><!--link weight to mqtt--><g class="link" data-entity-1="weight" data-entity-2="mqtt" data-source-line="40" data-uid="lnk21" id="link_weight_mqtt"><path d="M620.19,388 C676.27,422.9 762.3161,476.4595 818.4861,511.4195" fill="none" id="weight-to-mqtt" style="stroke:#181818;stroke-width:1;"/><polygon fill="#181818" points="823.58,514.59,818.0527,506.4384,819.335,511.948,813.8255,513.2303,823.58,514.59" style="stroke:#181818;stroke-width:1;"/><text fill="#000000" font-family="sans-serif" font-size="13" lengthAdjust="spacing" textLength="77.2446" x="696" y="432.7369">weight data</text></g><!--link nfc to mqtt--><g class="link" data-entity-1="nfc" data-entity-2="mqtt" data-source-line="41" data-uid="lnk22" id="link_nfc_mqtt"><path d="M792.61,388.02 C788.33,402.96 785.76,421.03 791,436.67 C800.98,466.48 818.6659,490.2361 837.2559,510.4261" fill="none" id="nfc-to-mqtt" style="stroke:#181818;stroke-width:1;"/><polygon fill="#181818" points="841.32,514.84,838.1664,505.5097,837.9332,511.1617,832.2812,510.9285,841.32,514.84" style="stroke:#181818;stroke-width:1;"/><text fill="#000000" font-family="sans-serif" font-size="13" lengthAdjust="spacing" textLength="117.6348" x="792" y="432.7369">product/card scan</text></g><!--link camera to mqtt--><g class="link" data-entity-1="camera" data-entity-2="mqtt" data-source-line="42" data-uid="lnk23" id="link_camera_mqtt"><path d="M993.13,388.09 C977.91,396.95 962.55,407.55 950,419.67 C921.57,447.14 901.9927,481.8243 888.8927,509.2943" fill="none" id="camera-to-mqtt" style="stroke:#181818;stroke-width:1;"/><polygon fill="#181818" points="886.31,514.71,893.7945,508.3082,888.4622,510.1969,886.5735,504.8647,886.31,514.71" style="stroke:#181818;stroke-width:1;"/><text fill="#000000" font-family="sans-serif" font-size="13" lengthAdjust="spacing" textLength="109.3257" x="951" y="432.7369">detection events</text></g><!--link camera to mqtt--><g class="link" data-entity-1="camera" data-entity-2="mqtt" data-source-line="80" data-uid="lnk42" id="link_camera_mqtt"><path d="M1069.64,387.86 C1072.74,403.44 1073.48,422.13 1065,436.67 C1040.31,479.03 997.8878,503.9891 956.0578,520.5691" fill="none" id="camera-to-mqtt-1" style="stroke:#181818;stroke-width:1;"/><polygon fill="#181818" points="950.48,522.78,960.3206,523.1823,955.1282,520.9376,957.3728,515.7452,950.48,522.78" style="stroke:#181818;stroke-width:1;"/></g><!--link gps to mqtt--><g class="link" data-entity-1="gps" data-entity-2="mqtt" data-source-line="43" data-uid="lnk24" id="link_gps_mqtt"><path d="M1227.1,388 C1148.55,422.9 1026.383,477.1934 947.713,512.1534" fill="none" id="gps-to-mqtt" style="stroke:#181818;stroke-width:1;"/><polygon fill="#181818" points="942.23,514.59,952.0789,514.5905,946.7992,512.5595,948.8301,507.2798,942.23,514.59" style="stroke:#181818;stroke-width:1;"/><text fill="#000000" font-family="sans-serif" font-size="13" lengthAdjust="spacing" textLength="84.9951" x="1148" y="432.7369">location data</text></g><!--link gps to mqtt--><g class="link" data-entity-1="gps" data-entity-2="mqtt" data-source-line="79" data-uid="lnk41" id="link_gps_mqtt"><path d="M1281.31,387.99 C1271.92,404.6 1258.25,424.21 1241,436.67 C1153.67,499.79 1035.7218,525.6961 956.3418,536.8361" fill="none" id="gps-to-mqtt-1" style="stroke:#181818;stroke-width:1;"/><polygon fill="#181818" points="950.4,537.67,959.8686,540.3804,955.3515,536.9751,958.7568,532.458,950.4,537.67" style="stroke:#181818;stroke-width:1;"/></g><!--link mqtt to telegraf--><g class="link" data-entity-1="mqtt" data-entity-2="telegraf" data-source-line="45" data-uid="lnk25" id="link_mqtt_telegraf"><path d="M950.65,574.59 C1050.17,609.49 1216.388,667.7945 1319.018,703.7845" fill="none" id="mqtt-to-telegraf" style="stroke:#181818;stroke-width:1;"/><polygon fill="#181818" points="1324.68,705.77,1317.5107,699.0171,1319.9617,704.1154,1314.8634,706.5664,1324.68,705.77" style="stroke:#181818;stroke-width:1;"/><text fill="#000000" font-family="sans-serif" font-size="13" lengthAdjust="spacing" textLength="164.9185" x="1236" y="671.1169">forward sensor telemetry</text></g><!--link telegraf to InfluxDB--><g class="link" data-entity-1="telegraf" data-entity-2="InfluxDB" data-source-line="46" data-uid="lnk26" id="link_telegraf_InfluxDB"><path d="M1493.63,735.41 C1632.81,733.37 1917.38,720.03 2146,650.05 C2342.8,589.81 2450.13,612.57 2557,436.67 C2609.81,349.76 2555.59,301.72 2504,214.08 C2497.69,203.37 2493.875,197.582 2485.425,187.942" fill="none" id="telegraf-to-InfluxDB" style="stroke:#181818;stroke-width:1;"/><polygon fill="#181818" points="2481.47,183.43,2484.3945,192.8346,2484.7658,187.19,2490.4105,187.5613,2481.47,183.43" style="stroke:#181818;stroke-width:1;"/><text fill="#000000" font-family="sans-serif" font-size="13" lengthAdjust="spacing" textLength="116.1494" x="2566" y="432.7369">time-series writes</text></g><!--link InfluxDB to GO--><g class="link" data-entity-1="InfluxDB" data-entity-2="GO" data-source-line="48" data-uid="lnk27" id="link_InfluxDB_GO"><path d="M2314.46,173.11 C2308.29,176.95 2302.1,180.64 2296,184.08 C2185.4,246.35 2053.5069,301.0221 1976.9769,330.9921" fill="none" id="InfluxDB-to-GO" style="stroke:#181818;stroke-width:1;"/><polygon fill="#181818" points="1971.39,333.18,1981.2289,333.6228,1976.0457,331.3568,1978.3117,326.1736,1971.39,333.18" style="stroke:#181818;stroke-width:1;"/><text fill="#000000" font-family="sans-serif" font-size="13" lengthAdjust="spacing" textLength="259.8921" x="2236" y="227.1469">backend reads &amp; processes sensor data</text></g><!--link user to GO--><g class="link" data-entity-1="user" data-entity-2="GO" data-source-line="54" data-uid="lnk28" id="link_user_GO"><path d="M1451.45,121.86 C1514.82,153.92 1739.6162,267.6513 1849.0562,323.0213" fill="none" id="user-to-GO" style="stroke:#181818;stroke-width:1;"/><polygon fill="#181818" points="1854.41,325.73,1848.1851,318.0978,1849.9485,323.4728,1844.5735,325.2362,1854.41,325.73" style="stroke:#181818;stroke-width:1;"/><text fill="#000000" font-family="sans-serif" font-size="13" lengthAdjust="spacing" textLength="224.707" x="1660" y="227.1469">Login / Signup (stats, preferences)</text></g><!--link user to vue--><g class="link" data-entity-1="user" data-entity-2="vue" data-source-line="55" data-uid="lnk29" id="link_user_vue"><path d="M1447.41,151.06 C1463.21,198.82 1488.3262,274.7334 1502.9562,318.9734" fill="none" id="user-to-vue" style="stroke:#181818;stroke-width:1;"/><polygon fill="#181818" points="1504.84,324.67,1505.812,314.8692,1503.2701,319.9228,1498.2165,317.381,1504.84,324.67" style="stroke:#181818;stroke-width:1;"/><text fill="#000000" font-family="sans-serif" font-size="13" lengthAdjust="spacing" textLength="106.6914" x="1473" y="227.1469">Interacts with UI</text></g><!--link vue to user--><g class="link" data-entity-1="vue" data-entity-2="user" data-source-line="85" data-uid="lnk43" id="link_vue_user"><path d="M1499.19,324.82 C1483.32,297.51 1456.2,258.85 1421,239.08 C1409.27,232.49 1369.86,241.2 1361,231.08 C1330.18,195.88 1383.7142,150.0544 1413.8042,128.2144" fill="none" id="vue-to-user" style="stroke:#181818;stroke-width:1;"/><polygon fill="#181818" points="1418.66,124.69,1409.0267,126.7395,1414.6135,127.627,1413.726,133.2138,1418.66,124.69" style="stroke:#181818;stroke-width:1;"/><text fill="#000000" font-family="sans-serif" font-size="13" lengthAdjust="spacing" textLength="99.7471" x="1362" y="227.1469">cart UI updates</text></g><!--link user to nfc--><g class="link" data-entity-1="user" data-entity-2="nfc" data-source-line="56" data-uid="lnk30" id="link_user_nfc"><path d="M1418.64,115.25 C1355.23,122.39 1120.67,153.53 950,239.08 C905.86,261.2 867.0282,294.2751 839.4282,320.6451" fill="none" id="user-to-nfc" style="stroke:#181818;stroke-width:1;"/><polygon fill="#181818" points="835.09,324.79,844.3606,321.4648,838.7052,321.3359,838.8341,315.6806,835.09,324.79" style="stroke:#181818;stroke-width:1;"/><text fill="#000000" font-family="sans-serif" font-size="13" lengthAdjust="spacing" textLength="220.3462" x="1001" y="227.1469">Scan product or card for payment</text></g><!--link vue to GO--><g class="link" data-entity-1="vue" data-entity-2="GO" data-source-line="58" data-uid="lnk31" id="link_vue_GO"><path d="M1590.33,356.37 C1667.06,356.37 1778.45,356.37 1848.47,356.37" fill="none" id="vue-to-GO" style="stroke:#181818;stroke-width:1;"/><polygon fill="#181818" points="1854.47,356.37,1845.47,352.37,1849.47,356.37,1845.47,360.37,1854.47,356.37" style="stroke:#181818;stroke-width:1;"/><text fill="#000000" font-family="sans-serif" font-size="13" lengthAdjust="spacing" textLength="229.6265" x="1607.87" y="349.4369">Search product / minimap requests</text></g><!--link GO to vue--><g class="link" data-entity-1="GO" data-entity-2="vue" data-source-line="60" data-uid="lnk33" id="link_GO_vue"><path d="M1854.55,342.63 C1841.1,340.03 1826.8,337.71 1813.37,336.37 C1732.88,328.37 1711.97,329.5 1631.37,336.37 C1617.99,337.52 1609.7669,338.4465 1596.1169,340.5965" fill="none" id="GO-to-vue" style="stroke:#181818;stroke-width:1;"/><polygon fill="#181818" points="1590.19,341.53,1599.7028,344.081,1595.1291,340.752,1598.458,336.1784,1590.19,341.53" style="stroke:#181818;stroke-width:1;"/><text fill="#000000" font-family="sans-serif" font-size="13" lengthAdjust="spacing" textLength="63.2861" x="1690.87" y="326.4369">UI update</text></g><!--link GO to vue--><g class="link" data-entity-1="GO" data-entity-2="vue" data-source-line="72" data-uid="lnk38" id="link_GO_vue"><path d="M1854.62,369.55 C1839.63,372.38 1823.47,374.94 1808.37,376.37 C1732.27,383.58 1712.56,382.61 1636.37,376.37 C1621.37,375.15 1611.3492,373.9988 1596.1192,371.6388" fill="none" id="GO-to-vue-1" style="stroke:#181818;stroke-width:1;"/><polygon fill="#181818" points="1590.19,370.72,1598.4713,376.051,1595.131,371.4856,1599.6964,368.1453,1590.19,370.72" style="stroke:#181818;stroke-width:1;"/><text fill="#000000" font-family="sans-serif" font-size="13" lengthAdjust="spacing" textLength="170.8726" x="1637.37" y="372.4369">display mismatch warning</text></g><!--link GO to vue--><g class="link" data-entity-1="GO" data-entity-2="vue" data-source-line="76" data-uid="lnk40" id="link_GO_vue"><path d="M1854.47,356.37 C1784.45,356.37 1673.06,356.37 1596.33,356.37" fill="none" id="GO-to-vue-2" style="stroke:#181818;stroke-width:1;"/><polygon fill="#181818" points="1590.33,356.37,1599.33,360.37,1595.33,356.37,1599.33,352.37,1590.33,356.37" style="stroke:#181818;stroke-width:1;"/><text fill="#000000" font-family="sans-serif" font-size="13" lengthAdjust="spacing" textLength="180.0132" x="1632.37" y="349.4369">enable emergency mode UI</text></g><!--link GO to MariaDB--><g class="link" data-entity-1="GO" data-entity-2="MariaDB" data-source-line="59" data-uid="lnk32" id="link_GO_MariaDB"><path d="M1854.71,357.66 C1770.77,360.21 1630.85,373.67 1678,436.67 C1712.65,482.97 1863.1059,515.2584 1961.1459,532.0284" fill="none" id="GO-to-MariaDB" style="stroke:#181818;stroke-width:1;"/><polygon fill="#181818" points="1967.06,533.04,1958.8633,527.5798,1962.1316,532.197,1957.5144,535.4653,1967.06,533.04" style="stroke:#181818;stroke-width:1;"/><text fill="#000000" font-family="sans-serif" font-size="13" lengthAdjust="spacing" textLength="168.5049" x="1679" y="432.7369">get product info / location</text></g><!--link GO to MariaDB--><g class="link" data-entity-1="GO" data-entity-2="MariaDB" data-source-line="66" data-uid="lnk34" id="link_GO_MariaDB"><path d="M1892.28,388.16 C1884.8,403.29 1879.96,421.49 1888,436.67 C1905.13,469.02 1931.471,490.5424 1962.051,508.0224" fill="none" id="GO-to-MariaDB-1" style="stroke:#181818;stroke-width:1;"/><polygon fill="#181818" points="1967.26,511,1961.4315,503.061,1962.9191,508.5187,1957.4614,510.0063,1967.26,511" style="stroke:#181818;stroke-width:1;"/><text fill="#000000" font-family="sans-serif" font-size="13" lengthAdjust="spacing" textLength="115.7686" x="1889" y="432.7369">update cart items</text></g><!--link GO to MariaDB--><g class="link" data-entity-1="GO" data-entity-2="MariaDB" data-source-line="67" data-uid="lnk35" id="link_GO_MariaDB"><path d="M1971.13,385.93 C1985.13,395.08 1998.93,406.37 2009,419.67 C2019.34,433.33 2025.0271,444.1033 2030.6471,460.5233" fill="none" id="GO-to-MariaDB-2" style="stroke:#181818;stroke-width:1;"/><polygon fill="#181818" points="2032.59,466.2,2033.4601,456.3896,2030.9709,461.4694,2025.8911,458.9802,2032.59,466.2" style="stroke:#181818;stroke-width:1;"/><text fill="#000000" font-family="sans-serif" font-size="13" lengthAdjust="spacing" textLength="161.4082" x="2019" y="432.7369">purchase/refund product</text></g><!--link GO to MariaDB--><g class="link" data-entity-1="GO" data-entity-2="MariaDB" data-source-line="68" data-uid="lnk36" id="link_GO_MariaDB"><path d="M1971.6,362.18 C2044.4,369.51 2162.31,386.29 2189,419.67 C2217.16,454.89 2179.7194,485.7836 2134.0894,509.3836" fill="none" id="GO-to-MariaDB-3" style="stroke:#181818;stroke-width:1;"/><polygon fill="#181818" points="2128.76,512.14,2138.5917,511.5584,2133.2012,509.843,2134.9165,504.4525,2128.76,512.14" style="stroke:#181818;stroke-width:1;"/><text fill="#000000" font-family="sans-serif" font-size="13" lengthAdjust="spacing" textLength="160.0942" x="2198" y="432.7369">update user preferences</text></g><!--link GO to MariaDB--><g class="link" data-entity-1="GO" data-entity-2="MariaDB" data-source-line="69" data-uid="lnk37" id="link_GO_MariaDB"><path d="M1971.46,361.16 C2088.22,369.33 2341.34,390.25 2367,419.67 C2438.5,501.65 2251.3285,530.133 2134.9485,540.003" fill="none" id="GO-to-MariaDB-4" style="stroke:#181818;stroke-width:1;"/><polygon fill="#181818" points="2128.97,540.51,2138.2758,543.7351,2133.9521,540.0875,2137.5998,535.7638,2128.97,540.51" style="stroke:#181818;stroke-width:1;"/><text fill="#000000" font-family="sans-serif" font-size="13" lengthAdjust="spacing" textLength="171.9771" x="2377" y="432.7369">update purchase statistics</text></g><!--SRC=[hLPBSziu3BxhLs1ow2RJpVgUmyuuygEQyIDhsScb5qQ2PROIwP9Kl9cT_lS29ENNkgVOCuaj4ny8uFi0M1HE6rXPD20ijFIU97_0_KTUX4ydyzK0yk7YURY0F1iCF-mpsOhYkwWGRj9QjoNaQDxGtC1_2T2hqCrMArGERiQw5gg2_bFsLTq-4WXLUNV3oOtdvxOBBAMDhiWwHskbLhrK51iC6CCM7bOA9rw5fG2cmaWnUFogxk79wB8jdENFleO3ikA7L1W7cLfhVfXlqGWgimqGNAD1LM1uR4snORUv4y7FL2hPY2rCwO_T-JZYdMUHq0Lr-o-7Gh4hIqGkPOFtb914UyVENb1M6-V3gvqHLYjPyDEa-thyb8Tu6ueHXczK5-jlx7mdFwyXY7pQNomXvNzV-el1ItynXC-GpqTB_dX5TUGDLvxBpzeu9_ovnR- -MRhvMJg45Kja8Ess5k-1xhSMpo7JVvPBU3JwUvI8BtFk38ecO9eVpfs3bbXZPSIQ45DqHXOMKbtNoCqMK2vQX12xy8Dx6rLzvlJ0OBGZx_DNwqHH8mpGaNTIRt3VxcqlUVBi7vnmbxGaE5qYB8siAen1aW0kmOEe3lY95YMaMDS1jVF7bu2pKTfRZB81B52KlfwnWI0lX88UyrR2atXlo3muK-kB6VIpA5bVWs-KElaiTANaeGQ5DxY49j5pjcsD1FUjEj65O2J54Fil-AYseVj_NgaDXhDyle11Vzc7qMJ-adzS-GUcoTFVNetm03IrdA0PuuT5GZmU7zQUlXhVi0xdWR5Za_YDFoKAZe-sWR9UmLnPuYq9XJwvlbCZe9ye2TNn98AktFw2n7_BnrrNaCbQcvs_8NGSdpJKIk_9teO1tPGYWEFHP_teWvsX_hP9iZzcs_6Sh5x3Hg31BaeBdpWRciIMCF6Y4D77gLxHzeDijXmk-kaocy-kGJLlc7qc4rr9rcikAqNTUsjvWVn92Uttozq1GOED89boH1JjAzX9jw7vTp1WaXz26qQ2WOhXEIOcQ43vdamIThGF8KT1ssiFw44JTvV17orQuftCs3gkBu9KwFRsalOZWJenTCOXrbK6xPR8mAly7k75yxZAizamps4o7sVfn-duNsuXNYuQvUQmkP3-Dgxx7h7KaWnZANxho_DpHEbl3Jl7m3AWvgULmuMBexgHjX6EgAf9DCLfeSkm00ysr7PAgehXSJCql1bkQxqBe-FkPA2SUaCbNcaTKQ-QYY9-3rXI6daRqGhKk_i6_QevcGddCuIilSBMBVyY0xtc7ogqjwFPv-C5vqqF4OZMwQsijVEbQ6syFEvvakRQeDtiXUmh_118sslE_W80]--></g></svg>