<svg xmlns="http://www.w3.org/2000/svg" xmlns:xlink="http://www.w3.org/1999/xlink" contentStyleType="text/css" data-diagram-type="DESCRIPTION" height="883px" preserveAspectRatio="none" style="width:1918px;height:883px;background:#FEFEFE;" version="1.1" viewBox="0 0 1918 883" width="1918px" zoomAndPan="magnify"><defs/><g><rect fill="#FEFEFE" height="883" style="stroke:none;stroke-width:1;" width="1918" x="0" y="0"/><!--cluster Cloud Server--><g class="cluster" data-entity="Cloud Server" data-source-line="14" data-uid="ent0003" id="cluster_Cloud Server"><path d="M8.5,6 L111.0615,6 A3.75,3.75 0 0 1 113.5615,8.5 L120.5615,28.2969 L368.5,28.2969 A2.5,2.5 0 0 1 371,30.7969 L371,612.86 A2.5,2.5 0 0 1 368.5,615.36 L8.5,615.36 A2.5,2.5 0 0 1 6,612.86 L6,8.5 A2.5,2.5 0 0 1 8.5,6" fill="none" style="stroke:#000000;stroke-width:1.5;"/><line style="stroke:#000000;stroke-width:1.5;" x1="6" x2="120.5615" y1="28.2969" y2="28.2969"/><text fill="#000000" font-family="sans-serif" font-size="14" font-weight="bold" lengthAdjust="spacing" textLength="101.5615" x="10" y="20.9951">Cloud Server</text></g><!--cluster Smart Cart--><g class="cluster" data-entity="Smart Cart" data-source-line="24" data-uid="ent0008" id="cluster_Smart Cart"><path d="M507.5,415.38 L594.4072,415.38 A3.75,3.75 0 0 1 596.9072,417.88 L603.9072,437.6769 L1804.5,437.6769 A2.5,2.5 0 0 1 1807,440.1769 L1807,874.05 A2.5,2.5 0 0 1 1804.5,876.55 L507.5,876.55 A2.5,2.5 0 0 1 505,874.05 L505,417.88 A2.5,2.5 0 0 1 507.5,415.38" fill="none" style="stroke:#000000;stroke-width:1.5;"/><line style="stroke:#000000;stroke-width:1.5;" x1="505" x2="603.9072" y1="437.6769" y2="437.6769"/><text fill="#000000" font-family="sans-serif" font-size="14" font-weight="bold" lengthAdjust="spacing" textLength="85.9072" x="509" y="430.3751">Smart Cart</text></g><!--cluster Sensors--><g class="cluster" data-entity="Sensors" data-source-line="29" data-uid="ent0012" id="cluster_Sensors"><path d="M672.5,458.38 L736.2334,458.38 A3.75,3.75 0 0 1 738.7334,460.88 L745.7334,480.6769 L1780.5,480.6769 A2.5,2.5 0 0 1 1783,483.1769 L1783,559.47 A2.5,2.5 0 0 1 1780.5,561.97 L672.5,561.97 A2.5,2.5 0 0 1 670,559.47 L670,460.88 A2.5,2.5 0 0 1 672.5,458.38" fill="none" style="stroke:#000000;stroke-width:1.5;"/><line style="stroke:#000000;stroke-width:1.5;" x1="670" x2="745.7334" y1="480.6769" y2="480.6769"/><text fill="#000000" font-family="sans-serif" font-size="14" font-weight="bold" lengthAdjust="spacing" textLength="62.7334" x="674" y="473.3751">Sensors</text></g><!--entity GO--><g class="entity" data-entity="GO" data-source-line="15" data-uid="ent0004" id="entity_GO"><rect fill="#ADD8E6" height="52.5938" rx="2.5" ry="2.5" style="stroke:#181818;stroke-width:0.5;" width="96.2412" x="256.88" y="272.93"/><text fill="#000000" font-family="sans-serif" font-size="14" lengthAdjust="spacing" textLength="76.2412" x="266.88" y="295.9251">Golang API</text><text fill="#000000" font-family="sans-serif" font-size="14" lengthAdjust="spacing" textLength="71.2852" x="266.88" y="312.222">(Backend)</text></g><!--entity redis--><g class="entity" data-entity="redis" data-source-line="16" data-uid="ent0005" id="entity_redis"><rect fill="#F08080" height="52.5938" rx="2.5" ry="2.5" style="stroke:#181818;stroke-width:0.5;" width="132.5947" x="21.7" y="86.25"/><text fill="#000000" font-family="sans-serif" font-size="14" lengthAdjust="spacing" textLength="88.7715" x="31.7" y="109.2451">Redis Server</text><text fill="#000000" font-family="sans-serif" font-size="14" lengthAdjust="spacing" textLength="112.5947" x="31.7" y="125.542">(Session/Cache)</text></g><!--entity MariaDB--><g class="entity" data-entity="MariaDB" data-source-line="17" data-uid="ent0006" id="entity_MariaDB"><path d="M22.49,449.99 C22.49,439.99 91.0022,439.99 91.0022,439.99 C91.0022,439.99 159.5144,439.99 159.5144,449.99 L159.5144,589.365 C159.5144,599.365 91.0022,599.365 91.0022,599.365 C91.0022,599.365 22.49,599.365 22.49,589.365 L22.49,449.99" fill="#90EE90" style="stroke:#181818;stroke-width:0.5;"/><path d="M22.49,449.99 C22.49,459.99 91.0022,459.99 91.0022,459.99 C91.0022,459.99 159.5144,459.99 159.5144,449.99" fill="none" style="stroke:#181818;stroke-width:0.5;"/><text fill="#000000" font-family="sans-serif" font-size="14" lengthAdjust="spacing" textLength="59.2676" x="32.49" y="476.9851">MariaDB</text><text fill="#000000" font-family="sans-serif" font-size="14" lengthAdjust="spacing" textLength="73.7119" x="32.49" y="493.282">• Products</text><text fill="#000000" font-family="sans-serif" font-size="14" lengthAdjust="spacing" textLength="82.4961" x="32.49" y="509.5789">• User Data</text><text fill="#000000" font-family="sans-serif" font-size="14" lengthAdjust="spacing" textLength="73.2539" x="32.49" y="525.8757">• Cart Info</text><text fill="#000000" font-family="sans-serif" font-size="14" lengthAdjust="spacing" textLength="82.667" x="32.49" y="542.1726">• Operators</text><text fill="#000000" font-family="sans-serif" font-size="14" lengthAdjust="spacing" textLength="95.9082" x="32.49" y="558.4695">• Preferences</text><text fill="#000000" font-family="sans-serif" font-size="14" lengthAdjust="spacing" textLength="117.0244" x="32.49" y="574.7664">• Purchase Stats</text><text fill="#000000" font-family="sans-serif" font-size="14" lengthAdjust="spacing" textLength="110.4209" x="32.49" y="591.0632">• Minimap Data</text></g><!--entity InfluxDB--><g class="entity" data-entity="InfluxDB" data-source-line="18" data-uid="ent0007" id="entity_InfluxDB"><path d="M188.92,51 C188.92,41 271.9996,41 271.9996,41 C271.9996,41 355.0792,41 355.0792,51 L355.0792,174.0781 C355.0792,184.0781 271.9996,184.0781 271.9996,184.0781 C271.9996,184.0781 188.92,184.0781 188.92,174.0781 L188.92,51" fill="#E6E6FA" style="stroke:#181818;stroke-width:0.5;"/><path d="M188.92,51 C188.92,61 271.9996,61 271.9996,61 C271.9996,61 355.0792,61 355.0792,51" fill="none" style="stroke:#181818;stroke-width:0.5;"/><text fill="#000000" font-family="sans-serif" font-size="14" lengthAdjust="spacing" textLength="59.3633" x="198.92" y="77.9951">InfluxDB</text><text fill="#000000" font-family="sans-serif" font-size="14" lengthAdjust="spacing" textLength="146.1592" x="198.92" y="94.292">(Sensor Time-Series)</text><text fill="#000000" font-family="sans-serif" font-size="14" lengthAdjust="spacing" textLength="62.3027" x="198.92" y="110.5889">• Weight</text><text fill="#000000" font-family="sans-serif" font-size="14" lengthAdjust="spacing" textLength="82.9883" x="198.92" y="126.8857">• Ultrasonic</text><text fill="#000000" font-family="sans-serif" font-size="14" lengthAdjust="spacing" textLength="47.6465" x="198.92" y="143.1826">• Light</text><text fill="#000000" font-family="sans-serif" font-size="14" lengthAdjust="spacing" textLength="40.8857" x="198.92" y="159.4795">• GPS</text><text fill="#000000" font-family="sans-serif" font-size="14" lengthAdjust="spacing" textLength="119.499" x="198.92" y="175.7764">• Camera Events</text></g><!--entity vue--><g class="entity" data-entity="vue" data-source-line="25" data-uid="ent0009" id="entity_vue"><rect fill="#FFA500" height="52.5938" rx="2.5" ry="2.5" style="stroke:#181818;stroke-width:0.5;" width="129.7236" x="521.14" y="493.38"/><text fill="#000000" font-family="sans-serif" font-size="14" lengthAdjust="spacing" textLength="109.7236" x="531.14" y="516.3751">Vue.js + Vite UI</text><text fill="#000000" font-family="sans-serif" font-size="14" lengthAdjust="spacing" textLength="62.5283" x="531.14" y="532.672">(Display)</text></g><!--entity mqtt--><g class="entity" data-entity="mqtt" data-source-line="26" data-uid="ent0010" id="entity_mqtt"><rect fill="#FFD700" height="52.5938" rx="2.5" ry="2.5" style="stroke:#181818;stroke-width:0.5;" width="134.3242" x="1218.84" y="678.36"/><text fill="#000000" font-family="sans-serif" font-size="14" lengthAdjust="spacing" textLength="91.0547" x="1228.84" y="701.3551">MQTT Broker</text><text fill="#000000" font-family="sans-serif" font-size="14" lengthAdjust="spacing" textLength="114.3242" x="1228.84" y="717.652">(Sensor Stream)</text></g><!--entity telegraf--><g class="entity" data-entity="telegraf" data-source-line="27" data-uid="ent0011" id="entity_telegraf"><rect fill="#D3D3D3" height="52.5938" rx="2.5" ry="2.5" style="stroke:#181818;stroke-width:0.5;" width="148.4336" x="1534.78" y="807.96"/><text fill="#000000" font-family="sans-serif" font-size="14" lengthAdjust="spacing" textLength="57.8184" x="1544.78" y="830.9551">Telegraf</text><text fill="#000000" font-family="sans-serif" font-size="14" lengthAdjust="spacing" textLength="128.4336" x="1544.78" y="847.252">(Metrics Collector)</text></g><!--entity ultrasonic--><g class="entity" data-entity="ultrasonic" data-source-line="30" data-uid="ent0013" id="entity_ultrasonic"><rect fill="#F1F1F1" height="52.5938" rx="2.5" ry="2.5" style="stroke:#181818;stroke-width:0.5;" width="164.8535" x="685.57" y="493.38"/><text fill="#000000" font-family="sans-serif" font-size="14" lengthAdjust="spacing" textLength="122.7188" x="695.57" y="516.3751">Ultrasonic Sensor</text><text fill="#000000" font-family="sans-serif" font-size="14" lengthAdjust="spacing" textLength="144.8535" x="695.57" y="532.672">(Obstacle Detection)</text></g><!--entity lux--><g class="entity" data-entity="lux" data-source-line="31" data-uid="ent0014" id="entity_lux"><rect fill="#F1F1F1" height="52.5938" rx="2.5" ry="2.5" style="stroke:#181818;stroke-width:0.5;" width="125.2666" x="885.37" y="493.38"/><text fill="#000000" font-family="sans-serif" font-size="14" lengthAdjust="spacing" textLength="87.377" x="895.37" y="516.3751">Light Sensor</text><text fill="#000000" font-family="sans-serif" font-size="14" lengthAdjust="spacing" textLength="105.2666" x="895.37" y="532.672">(Backup Mode)</text></g><!--entity weight--><g class="entity" data-entity="weight" data-source-line="32" data-uid="ent0015" id="entity_weight"><rect fill="#F1F1F1" height="52.5938" rx="2.5" ry="2.5" style="stroke:#181818;stroke-width:0.5;" width="122.0332" x="1045.98" y="493.38"/><text fill="#000000" font-family="sans-serif" font-size="14" lengthAdjust="spacing" textLength="102.0332" x="1055.98" y="516.3751">Weight Sensor</text><text fill="#000000" font-family="sans-serif" font-size="14" lengthAdjust="spacing" textLength="75.373" x="1055.98" y="532.672">(Load Cell)</text></g><!--entity nfc--><g class="entity" data-entity="nfc" data-source-line="33" data-uid="ent0016" id="entity_nfc"><rect fill="#F1F1F1" height="52.5938" rx="2.5" ry="2.5" style="stroke:#181818;stroke-width:0.5;" width="166.3711" x="1202.81" y="493.38"/><text fill="#000000" font-family="sans-serif" font-size="14" lengthAdjust="spacing" textLength="120.333" x="1212.81" y="516.3751">NFC/RFID Reader</text><text fill="#000000" font-family="sans-serif" font-size="14" lengthAdjust="spacing" textLength="146.3711" x="1212.81" y="532.672">(Product &amp; Payment)</text></g><!--entity camera--><g class="entity" data-entity="camera" data-source-line="34" data-uid="ent0017" id="entity_camera"><rect fill="#F1F1F1" height="52.5938" rx="2.5" ry="2.5" style="stroke:#181818;stroke-width:0.5;" width="164.04" x="1403.98" y="493.38"/><text fill="#000000" font-family="sans-serif" font-size="14" lengthAdjust="spacing" textLength="73.0967" x="1413.98" y="516.3751">AI Camera</text><text fill="#000000" font-family="sans-serif" font-size="14" lengthAdjust="spacing" textLength="144.04" x="1413.98" y="532.672">(Object Recognition)</text></g><!--entity gps--><g class="entity" data-entity="gps" data-source-line="35" data-uid="ent0018" id="entity_gps"><rect fill="#F1F1F1" height="52.5938" rx="2.5" ry="2.5" style="stroke:#181818;stroke-width:0.5;" width="163.835" x="1603.08" y="493.38"/><text fill="#000000" font-family="sans-serif" font-size="14" lengthAdjust="spacing" textLength="83.5352" x="1613.08" y="516.3751">GPS Module</text><text fill="#000000" font-family="sans-serif" font-size="14" lengthAdjust="spacing" textLength="143.835" x="1613.08" y="532.672">(Location / Minimap)</text></g><!--entity user--><g class="entity" data-entity="user" data-source-line="9" data-uid="ent0002" id="entity_user"><ellipse cx="996.9951" cy="269.58" fill="#F1F1F1" rx="8" ry="8" style="stroke:#181818;stroke-width:0.5;"/><path d="M996.9951,277.58 L996.9951,304.58 M983.9951,285.58 L1009.9951,285.58 M996.9951,304.58 L983.9951,319.58 M996.9951,304.58 L1009.9951,319.58" fill="none" style="stroke:#181818;stroke-width:0.5;"/><text fill="#000000" font-family="sans-serif" font-size="14" lengthAdjust="spacing" textLength="31.9102" x="981.04" y="334.0751">User</text></g><g class="entity" data-entity="GMN39" data-source-line="76" data-uid="ent0040" id="entity_GMN39"><path d="M1047.94,271.53 L1047.94,326.9284 L1270.0591,326.9284 L1270.0591,281.53 L1260.0591,271.53 L1047.94,271.53" fill="#FEFFDD" style="stroke:#181818;stroke-width:0.5;"/><path d="M1260.0591,271.53 L1260.0591,281.53 L1270.0591,281.53 L1260.0591,271.53" fill="#FEFFDD" style="stroke:#181818;stroke-width:1;"/><text fill="#000000" font-family="sans-serif" font-size="13" lengthAdjust="spacing" textLength="169.5459" x="1053.94" y="288.5969">• Weight verification logic</text><text fill="#000000" font-family="sans-serif" font-size="13" lengthAdjust="spacing" textLength="201.1191" x="1053.94" y="303.7297">• Purchase / refund processing</text><text fill="#000000" font-family="sans-serif" font-size="13" lengthAdjust="spacing" textLength="167.2988" x="1053.94" y="318.8625">• Statistics &amp; preferences</text></g><!--link ultrasonic to mqtt--><g class="link" data-entity-1="ultrasonic" data-entity-2="mqtt" data-source-line="42" data-uid="lnk19" id="link_ultrasonic_mqtt"><path d="M786.05,546.23 C804.09,569.85 834,604.12 868,623.36 C979.57,686.53 1125.913,700.7703 1212.513,703.5103" fill="none" id="ultrasonic-to-mqtt" style="stroke:#181818;stroke-width:1;"/><polygon fill="#181818" points="1218.51,703.7,1209.641,699.4174,1213.5125,703.5419,1209.388,707.4134,1218.51,703.7" style="stroke:#181818;stroke-width:1;"/><text fill="#000000" font-family="sans-serif" font-size="13" lengthAdjust="spacing" textLength="55.085" x="920" y="644.4269">distance</text></g><!--link lux to mqtt--><g class="link" data-entity-1="lux" data-entity-2="mqtt" data-source-line="43" data-uid="lnk20" id="link_lux_mqtt"><path d="M962.56,546.05 C976.75,568.88 1000.22,602.03 1028,623.36 C1083.72,666.15 1156.6135,685.3528 1212.4435,694.7628" fill="none" id="lux-to-mqtt" style="stroke:#181818;stroke-width:1;"/><polygon fill="#181818" points="1218.36,695.76,1210.15,690.3198,1213.4295,694.929,1208.8204,698.2085,1218.36,695.76" style="stroke:#181818;stroke-width:1;"/><text fill="#000000" font-family="sans-serif" font-size="13" lengthAdjust="spacing" textLength="63.8574" x="1065" y="644.4269">light level</text></g><!--link weight to mqtt--><g class="link" data-entity-1="weight" data-entity-2="mqtt" data-source-line="44" data-uid="lnk21" id="link_weight_mqtt"><path d="M1115.08,546.42 C1125.03,574.54 1144.34,619.43 1174,648.36 C1186.65,660.7 1197.2456,668.0824 1213.1056,676.1024" fill="none" id="weight-to-mqtt" style="stroke:#181818;stroke-width:1;"/><polygon fill="#181818" points="1218.46,678.81,1212.2335,671.1791,1213.998,676.5537,1208.6234,678.3182,1218.46,678.81" style="stroke:#181818;stroke-width:1;"/><text fill="#000000" font-family="sans-serif" font-size="13" lengthAdjust="spacing" textLength="102.5781" x="1175" y="644.4269">weight changes</text></g><!--link nfc to mqtt--><g class="link" data-entity-1="nfc" data-entity-2="mqtt" data-source-line="45" data-uid="lnk22" id="link_nfc_mqtt"><path d="M1286,546.12 C1286,580.98 1286,637.24 1286,672.14" fill="none" id="nfc-to-mqtt" style="stroke:#181818;stroke-width:1;"/><polygon fill="#181818" points="1286,678.14,1290,669.14,1286,673.14,1282,669.14,1286,678.14" style="stroke:#181818;stroke-width:1;"/><text fill="#000000" font-family="sans-serif" font-size="13" lengthAdjust="spacing" textLength="78.0571" x="1287" y="644.4269">scan events</text></g><!--link camera to mqtt--><g class="link" data-entity-1="camera" data-entity-2="mqtt" data-source-line="46" data-uid="lnk23" id="link_camera_mqtt"><path d="M1467.07,546.39 C1446.2,573.68 1410.69,617.09 1374,648.36 C1361.37,659.13 1351.5538,666.1454 1337.6238,674.7554" fill="none" id="camera-to-mqtt" style="stroke:#181818;stroke-width:1;"/><polygon fill="#181818" points="1332.52,677.91,1342.2787,676.5806,1336.7731,675.2812,1338.0726,669.7756,1332.52,677.91" style="stroke:#181818;stroke-width:1;"/><text fill="#000000" font-family="sans-serif" font-size="13" lengthAdjust="spacing" textLength="68.1675" x="1392" y="644.4269">detections</text></g><!--link gps to mqtt--><g class="link" data-entity-1="gps" data-entity-2="mqtt" data-source-line="47" data-uid="lnk24" id="link_gps_mqtt"><path d="M1666.72,546.46 C1648.76,569.91 1619.28,603.75 1586,623.36 C1513.19,666.28 1423.0052,685.8608 1359.4152,695.2808" fill="none" id="gps-to-mqtt" style="stroke:#181818;stroke-width:1;"/><polygon fill="#181818" points="1353.48,696.16,1362.969,698.798,1358.426,695.4273,1361.7967,690.8843,1353.48,696.16" style="stroke:#181818;stroke-width:1;"/><text fill="#000000" font-family="sans-serif" font-size="13" lengthAdjust="spacing" textLength="51.5811" x="1572" y="644.4269">location</text></g><!--link mqtt to telegraf--><g class="link" data-entity-1="mqtt" data-entity-2="telegraf" data-source-line="49" data-uid="lnk25" id="link_mqtt_telegraf"><path d="M1350.98,731.33 C1407.07,753.49 1482.1297,783.1353 1538.2697,805.3153" fill="none" id="mqtt-to-telegraf" style="stroke:#181818;stroke-width:1;"/><polygon fill="#181818" points="1543.85,807.52,1536.9494,800.4928,1539.1998,805.6828,1534.0098,807.9332,1543.85,807.52" style="stroke:#181818;stroke-width:1;"/><text fill="#000000" font-family="sans-serif" font-size="13" lengthAdjust="spacing" textLength="63.502" x="1467" y="774.0269">telemetry</text></g><!--link telegraf to InfluxDB--><g class="link" data-entity-1="telegraf" data-entity-2="InfluxDB" data-source-line="50" data-uid="lnk26" id="link_telegraf_InfluxDB"><path d="M1683.66,822.98 C1750.15,809.13 1837,777.33 1837,705.66 C1837,298.23 1837,298.23 1837,298.23 C1837,147.63 685.2393,119.5513 361.3093,114.6213" fill="none" id="telegraf-to-InfluxDB" style="stroke:#181818;stroke-width:1;"/><polygon fill="#181818" points="355.31,114.53,364.2481,118.6665,360.3094,114.6061,364.3698,110.6674,355.31,114.53" style="stroke:#181818;stroke-width:1;"/><text fill="#000000" font-family="sans-serif" font-size="13" lengthAdjust="spacing" textLength="72.5601" x="1838" y="524.2369">time-series</text></g><!--link InfluxDB to GO--><g class="link" data-entity-1="InfluxDB" data-entity-2="GO" data-source-line="51" data-uid="lnk27" id="link_InfluxDB_GO"><path d="M284.66,184.42 C290.19,215.34 295.2647,243.7635 299.3347,266.5435" fill="none" id="InfluxDB-to-GO" style="stroke:#181818;stroke-width:1;"/><polygon fill="#181818" points="300.39,272.45,302.7447,262.8868,299.5106,267.5279,294.8694,264.2938,300.39,272.45" style="stroke:#181818;stroke-width:1;"/><text fill="#000000" font-family="sans-serif" font-size="13" lengthAdjust="spacing" textLength="106.1709" x="294" y="227.1469">query &amp; process</text></g><!--link user to vue--><g class="link" data-entity-1="user" data-entity-2="vue" data-source-line="56" data-uid="lnk28" id="link_user_vue"><path d="M980.83,330.05 C966.25,353.57 942.46,384.76 912,399.38 C887.75,411.02 693.88,394.99 670,407.38 C634.76,425.66 612.8389,460.8115 599.7289,487.5815" fill="none" id="user-to-vue" style="stroke:#181818;stroke-width:1;"/><polygon fill="#181818" points="597.09,492.97,604.6407,486.6465,599.2891,488.4796,597.456,483.1279,597.09,492.97" style="stroke:#181818;stroke-width:1;"/><text fill="#000000" font-family="sans-serif" font-size="13" lengthAdjust="spacing" textLength="99.8232" x="952" y="387.9469">touch / interact</text></g><!--link vue to user--><g class="link" data-entity-1="vue" data-entity-2="user" data-source-line="73" data-uid="lnk38" id="link_vue_user"><path d="M597.05,492.88 C610.12,466.04 634.65,425.44 670,407.38 C689.3,397.52 1044.83,414.86 1060,399.38 C1069.95,389.22 1065.44,380.52 1060,367.38 C1052.78,349.96 1042.93,351.1 1030,337.38 C1024.44,331.48 1022.4845,329.3948 1017.2145,323.4348" fill="none" id="vue-to-user" style="stroke:#181818;stroke-width:1;"/><polygon fill="#181818" points="1013.24,318.94,1016.2051,328.3319,1016.5521,322.6857,1022.1983,323.0326,1013.24,318.94" style="stroke:#181818;stroke-width:1;"/><text fill="#000000" font-family="sans-serif" font-size="13" lengthAdjust="spacing" textLength="106.1519" x="1066" y="387.9469">real-time cart UI</text></g><!--link user to nfc--><g class="link" data-entity-1="user" data-entity-2="nfc" data-source-line="57" data-uid="lnk29" id="link_user_nfc"><path d="M1013.37,323.76 C1018.13,329.03 1023.76,334.04 1030,337.38 C1115.86,383.28 1174.32,302.6 1247,367.38 C1282.64,399.14 1287.7645,452.7402 1287.4545,486.8902" fill="none" id="user-to-nfc" style="stroke:#181818;stroke-width:1;"/><polygon fill="#181818" points="1287.4,492.89,1291.4815,483.9267,1287.4454,487.8902,1283.4819,483.8541,1287.4,492.89" style="stroke:#181818;stroke-width:1;"/><text fill="#000000" font-family="sans-serif" font-size="13" lengthAdjust="spacing" textLength="84.5444" x="1281.8193" y="380.4469">scan product</text><text fill="#000000" font-family="sans-serif" font-size="13" lengthAdjust="spacing" textLength="108.1831" x="1270" y="395.5797">or payment card</text></g><!--link user to GO--><g class="link" data-entity-1="user" data-entity-2="GO" data-source-line="58" data-uid="lnk30" id="link_user_GO"><path d="M980.61,299.23 C894.54,299.23 499.41,299.23 359.39,299.23" fill="none" id="user-to-GO" style="stroke:#181818;stroke-width:1;"/><polygon fill="#181818" points="353.39,299.23,362.39,303.23,358.39,299.23,362.39,295.23,353.39,299.23" style="stroke:#181818;stroke-width:1;"/><text fill="#000000" font-family="sans-serif" font-size="13" lengthAdjust="spacing" textLength="87.6802" x="623.58" y="292.2969">login / signup</text></g><!--link vue to GO--><g class="link" data-entity-1="vue" data-entity-2="GO" data-source-line="60" data-uid="lnk31" id="link_vue_GO"><path d="M608.45,493 C633.99,460.58 668.43,404.56 638,367.38 C602.61,324.14 443.1375,308.5068 359.5575,303.1068" fill="none" id="vue-to-GO" style="stroke:#181818;stroke-width:1;"/><polygon fill="#181818" points="353.57,302.72,362.2934,307.2919,358.5596,303.0424,362.8092,299.3086,353.57,302.72" style="stroke:#181818;stroke-width:1;"/><text fill="#000000" font-family="sans-serif" font-size="13" lengthAdjust="spacing" textLength="112.874" x="650" y="380.4469">search, minimap,</text><text fill="#000000" font-family="sans-serif" font-size="13" lengthAdjust="spacing" textLength="82.2656" x="665.3042" y="395.5797">cart updates</text></g><!--link GO to vue--><g class="link" data-entity-1="GO" data-entity-2="vue" data-source-line="61" data-uid="lnk32" id="link_GO_vue"><path d="M353.24,299.6 C461.25,299.32 717.28,305.36 771,367.38 C780.31,378.13 780.65,388.93 771,399.38 C755.72,415.91 689.74,396.55 670,407.38 C635.19,426.47 613.1933,461.4134 599.9433,487.9134" fill="none" id="GO-to-vue" style="stroke:#181818;stroke-width:1;"/><polygon fill="#181818" points="597.26,493.28,604.8626,487.019,599.4961,488.8079,597.7072,483.4413,597.26,493.28" style="stroke:#181818;stroke-width:1;"/><text fill="#000000" font-family="sans-serif" font-size="13" lengthAdjust="spacing" textLength="124.2236" x="779" y="387.9469">UI data &amp; warnings</text></g><!--link GO to vue--><g class="link" data-entity-1="GO" data-entity-2="vue" data-source-line="69" data-uid="lnk35" id="link_GO_vue"><path d="M256.63,322.77 C220.18,342.67 180.5,372.61 206,399.38 C218.66,412.67 353.28,402.61 371,407.38 C437.76,425.36 502.4706,462.9182 543.7906,489.7982" fill="none" id="GO-to-vue-1" style="stroke:#181818;stroke-width:1;"/><polygon fill="#181818" points="548.82,493.07,543.4571,484.8093,544.6288,490.3435,539.0946,491.5152,548.82,493.07" style="stroke:#181818;stroke-width:1;"/><text fill="#000000" font-family="sans-serif" font-size="13" lengthAdjust="spacing" textLength="52.2856" x="207" y="387.9469">warning</text><text fill="#000000" font-family="sans-serif" font-size="13" lengthAdjust="spacing" textLength="119.5581" x="129.3925" y="321.0703">Weight mismatch!</text></g><!--link GO to vue--><g class="link" data-entity-1="GO" data-entity-2="vue" data-source-line="70" data-uid="lnk36" id="link_GO_vue"><path d="M294.69,325.92 C287.65,348.14 282.43,379.72 300,399.38 C310.58,411.22 355.81,402.76 371,407.38 C436.35,427.23 500.2899,463.5374 541.9799,489.7374" fill="none" id="GO-to-vue-2" style="stroke:#181818;stroke-width:1;"/><polygon fill="#181818" points="547.06,492.93,541.5682,484.7544,542.8266,490.2695,537.3115,491.5279,547.06,492.93" style="stroke:#181818;stroke-width:1;"/><text fill="#000000" font-family="sans-serif" font-size="13" lengthAdjust="spacing" textLength="183.752" x="301" y="387.9469">emergency mode (low light)</text></g><!--link GO to vue--><g class="link" data-entity-1="GO" data-entity-2="vue" data-source-line="71" data-uid="lnk37" id="link_GO_vue"><path d="M353.44,308.92 C393.23,318.04 449.32,335.6 489,367.38 C531.62,401.51 558.9087,454.1771 573.4187,487.5671" fill="none" id="GO-to-vue-3" style="stroke:#181818;stroke-width:1;"/><polygon fill="#181818" points="575.81,493.07,575.8916,483.2215,573.8172,488.4843,568.5544,486.4099,575.81,493.07" style="stroke:#181818;stroke-width:1;"/><text fill="#000000" font-family="sans-serif" font-size="13" lengthAdjust="spacing" textLength="107.7705" x="521" y="387.9469">follow-me status</text></g><!--link GO to MariaDB--><g class="link" data-entity-1="GO" data-entity-2="MariaDB" data-source-line="63" data-uid="lnk33" id="link_GO_MariaDB"><path d="M256.42,306.8 C192.96,316.5 87.18,336.85 64,367.38 C48.43,387.88 47.0246,408.5969 53.0746,433.7069" fill="none" id="GO-to-MariaDB" style="stroke:#181818;stroke-width:1;"/><polygon fill="#181818" points="54.48,439.54,56.2606,429.8534,53.3088,434.6791,48.4832,431.7273,54.48,439.54" style="stroke:#181818;stroke-width:1;"/><text fill="#000000" font-family="sans-serif" font-size="13" lengthAdjust="spacing" textLength="100.4453" x="65" y="380.4469">read/write cart,</text><text fill="#000000" font-family="sans-serif" font-size="13" lengthAdjust="spacing" textLength="97.0303" x="66.7075" y="395.5797">products, stats</text></g><!--link MariaDB to GO--><g class="link" data-entity-1="MariaDB" data-entity-2="GO" data-source-line="64" data-uid="lnk34" id="link_MariaDB_GO"><path d="M39.91,439.7 C30.39,414.74 27.82,388.25 44,367.38 C69.8,334.1 182.3989,315.1844 250.5189,306.4344" fill="none" id="MariaDB-to-GO" style="stroke:#181818;stroke-width:1;"/><polygon fill="#181818" points="256.47,305.67,247.0337,302.8492,251.5107,306.307,248.053,310.784,256.47,305.67" style="stroke:#181818;stroke-width:1;"/></g><!--link GO to GMN39--><g class="link" data-entity-1="GO" data-entity-2="GMN39" data-source-line="76" data-uid="lnk41" id="link_GO_GMN39"><path d="M353.24,291.87 C463.94,275.39 744.89,235.94 981.5,222.58 C995.26,221.8 999.12,219.29 1012.5,222.58 C1050.83,232 1090.25,253.41 1118.53,271.22" fill="none" id="GO-GMN39" style="stroke:#181818;stroke-width:1;stroke-dasharray:7,7;"/></g><!--SRC=[hLRDRkCs4BxpAQOEqDsWINCFq0AERAS6x3YrxEJGzC1GOvaRYjIILBn6iK2VPHzjdwH3KhAS7jf3h02AHNxp_ysG7-2N_tpO1yWhRZrauPNldSSAXbPifKVX6ui4-1yDpBr8NNFBAt1RNfYTr2Lik79ujFFCnKjfJQEBp2XZuMmo3dz7266gscZKFlTxXM39FDUbGiQuy2InTcY1EsZeFoElBj_pa7msMwn7a8-N3-CbvDFH-DqwQugHbmY3J9ccW1pjAze1_CM0dZzkZQ9uO7W_VT8VRmYAkZZ_CqHqku2pcIot_aOrcC1BBAHhDH0yH-UaqLSP5rjCGZOYabncB5THiE2UFtD7FiovbNnqywI___qDxgqf6k5T-egP714oVSRAJ_N6fCz5ZPPJmbqdYXkqg0Ls2msn8vZ8FUyqpgMM5Q-Zqa7mhhNU-dTh4VM__2E3glaI7AJejAC2hsI5bnIoH7UUr3vYa6wTLjvoPxGKwNlMRztUvrqa5VaEurTYaOj-T5R84Kwh1L7dwod8ay-7onLauVNRS3bw72x7y1FaYyag_3mTa_hUFF3eeS6VFpcoza0j2kl0ff5qjUBxH8pN1k5iOObhBPVclwzMS6FDIqkbcEpSM-HLagW-UmzdnCyY2QnGOMdvXj1pz5OA1zIq2aCR9WdV8WxrvVie6b-zyz6KwpoFklioGjec8ujdvxcWdXzX63f4z6IbEM1x-MYl5mrzrDGmDqNR5bJj7fpuqwDdXXUGeL89kulRFVnkabqj9zCHB94NCLbjty2FSC_t5R4g2UhDaKV3QSkx6Cad2e3aXIcrx2CH4T3B46E3put2w9NW0GfNNHybeR9sKUBhYIWxliiNInWDLqEOp1QFxrRPbuSK_PfOT0qqbMXk2sHKYUDr5KkXy1KLIua_tcrNQB0GRHsZ11_lEi4rOEngbbBvncB76iSePMzijfbbB2w4dGDph-FFYlYzPuV5W3YC34A4YUJYH6A7vO2XYNqDdnkqUw96RGqDHtUA6gtfE8BftMgy76QhwU8kVt-HmgmFBeUnG16PHco9Q59xogBm_Nv8UPlfEh7-ITESg1FlYS6swC4nVcLA6KZhPAcRch5WuR3faDCnSG5LOlJ5anPXaZKrdG2KJSBqJgsdyLoWLEwurNHxe5osWEuSkQRpZXTNEnjcNj142bittGMuS1An3fjyE4KvRjRvz6wSvp1Rt4wpTojy4_IW7KwLT1NtOll3e8l-BOueQaiwVlTGqP23ZyhiKY-TlyLjQ4ARtMM5CHkDw-iHgnOJg2u3esF-AEcCQKFPjD4Dimav0-YFNQ2hXzp8TZQ5Oejs_t03k2Ab6xhITIqGd4-GS3UWGH2EZj0WXoi4epCOWjb_0000]--></g></svg>