<svg xmlns="http://www.w3.org/2000/svg" xmlns:xlink="http://www.w3.org/1999/xlink" contentStyleType="text/css" data-diagram-type="DESCRIPTION" height="846px" preserveAspectRatio="none" style="width:2355px;height:846px;background:#FAFAFA;" version="1.1" viewBox="0 0 2355 846" width="2355px" zoomAndPan="magnify"><title>Smart Cart - Full System Architecture
(Docker Swarm Deployment)</title><defs/><g><rect fill="#FAFAFA" height="846" style="stroke:none;stroke-width:1;" width="2355" x="0" y="0"/><g class="title" data-source-line="6"><text fill="#000000" font-family="Verdana" font-size="22" font-weight="bold" lengthAdjust="spacing" textLength="466.7266" x="939.6367" y="39.4209">Smart Cart - Full System Architecture</text><text fill="#000000" font-family="Verdana" font-size="22" font-weight="bold" lengthAdjust="spacing" textLength="356.9844" x="994.5078" y="65.0303">(Docker Swarm Deployment)</text></g><!--cluster Docker Swarm Cluster\n(Cloud / Edge)--><g class="cluster" data-entity="Docker Swarm Cluster.n.Cloud . Edge." data-source-line="11" data-uid="ent0003" id="cluster_Docker Swarm Cluster.n.Cloud . Edge."><path d="M13.5,91.2188 L197.917,91.2188 A3.75,3.75 0 0 1 200.417,93.7188 L207.417,137.8125 L377.5,137.8125 A2.5,2.5 0 0 1 380,140.3125 L380,711.4688 A2.5,2.5 0 0 1 377.5,713.9688 L13.5,713.9688 A2.5,2.5 0 0 1 11,711.4688 L11,93.7188 A2.5,2.5 0 0 1 13.5,91.2188" fill="#ADD8E6" style="stroke:#000000;stroke-width:1;"/><line style="stroke:#000000;stroke-width:1;" x1="11" x2="207.417" y1="137.8125" y2="137.8125"/><text fill="#000000" font-family="Verdana" font-size="14" font-weight="bold" lengthAdjust="spacing" textLength="175.417" x="19" y="110.2139">Docker Swarm Cluster</text><text fill="#000000" font-family="Verdana" font-size="14" font-weight="bold" lengthAdjust="spacing" textLength="111.4395" x="50.9888" y="126.5107">(Cloud / Edge)</text></g><!--cluster Smart Shopping Cart--><g class="cluster" data-entity="Smart Shopping Cart" data-source-line="21" data-uid="ent0014" id="cluster_Smart Shopping Cart"><path d="M406.5,441.8088 L580.7793,441.8088 A3.75,3.75 0 0 1 583.2793,444.3088 L590.2793,472.1056 L1518.5,472.1056 A2.5,2.5 0 0 1 1521,474.6056 L1521,837.3488 A2.5,2.5 0 0 1 1518.5,839.8488 L406.5,839.8488 A2.5,2.5 0 0 1 404,837.3488 L404,444.3088 A2.5,2.5 0 0 1 406.5,441.8088" fill="#FFA500" style="stroke:#000000;stroke-width:1;"/><line style="stroke:#000000;stroke-width:1;" x1="404" x2="590.2793" y1="472.1056" y2="472.1056"/><text fill="#000000" font-family="Verdana" font-size="14" font-weight="bold" lengthAdjust="spacing" textLength="165.2793" x="412" y="460.8039">Smart Shopping Cart</text></g><!--cluster Sensors--><g class="cluster" data-entity="Sensors" data-source-line="26" data-uid="ent0018" id="cluster_Sensors"><path d="M599.5,492.8088 L671.2334,492.8088 A3.75,3.75 0 0 1 673.7334,495.3088 L680.7334,523.1056 L1494.5,523.1056 A2.5,2.5 0 0 1 1497,525.6056 L1497,603.6088 A2.5,2.5 0 0 1 1494.5,606.1088 L599.5,606.1088 A2.5,2.5 0 0 1 597,603.6088 L597,495.3088 A2.5,2.5 0 0 1 599.5,492.8088" fill="#FFFFFF" style="stroke:#000000;stroke-width:1;"/><line style="stroke:#000000;stroke-width:1;" x1="597" x2="680.7334" y1="523.1056" y2="523.1056"/><text fill="#000000" font-family="Verdana" font-size="14" font-weight="bold" lengthAdjust="spacing" textLength="62.7334" x="605" y="511.8039">Sensors</text></g><!--cluster Deployment Summary--><g class="cluster" data-entity="Deployment Summary" data-source-line="62" data-uid="ent0043" id="cluster_Deployment Summary"><path d="M1570.5,105.5087 L1754.5,105.5087 A3.75,3.75 0 0 1 1757,108.0087 L1764,135.8056 L2345.5,135.8056 A2.5,2.5 0 0 1 2348,138.3056 L2348,382.3088 A2.5,2.5 0 0 1 2345.5,384.8088 L1570.5,384.8088 A2.5,2.5 0 0 1 1568,382.3088 L1568,108.0087 A2.5,2.5 0 0 1 1570.5,105.5087" fill="#FFFFFF" style="stroke:#000000;stroke-width:1;"/><line style="stroke:#000000;stroke-width:1;" x1="1568" x2="1764" y1="135.8056" y2="135.8056"/><text fill="#000000" font-family="Verdana" font-size="14" font-weight="bold" lengthAdjust="spacing" textLength="175" x="1576" y="124.5039">Deployment Summary</text></g><!--entity GO--><g class="entity" data-entity="GO" data-source-line="12" data-uid="ent0004" id="entity_GO"><rect fill="#87CEFA" height="56.5938" rx="2.5" ry="2.5" style="stroke:#000000;stroke-width:1;" width="100.6514" x="99.67" y="299.8688"/><rect fill="#87CEFA" height="56.5938" rx="2.5" ry="2.5" style="stroke:#000000;stroke-width:1;" width="100.6514" x="95.67" y="295.8688"/><text fill="#000000" font-family="Verdana" font-size="14" lengthAdjust="spacing" textLength="76.2412" x="107.67" y="320.8639">Golang API</text><text fill="#000000" font-family="Verdana" font-size="14" lengthAdjust="spacing" textLength="76.6514" x="107.67" y="337.1607">Replicas: 2</text></g><g class="entity" data-entity="GMN5" data-source-line="13" data-uid="ent0006" id="entity_GMN5"><path d="M235.73,302.0287 L235.73,322.1587 L200.73,326.1587 L235.73,330.1587 L235.73,350.2944 A0,0 0 0 0 235.73,350.2944 L360.2686,350.2944 A0,0 0 0 0 360.2686,350.2944 L360.2686,312.0287 L350.2686,302.0287 L235.73,302.0287 A0,0 0 0 0 235.73,302.0287" fill="#FFFFFF" style="stroke:#000000;stroke-width:1;"/><path d="M350.2686,302.0287 L350.2686,312.0287 L360.2686,312.0287 L350.2686,302.0287" fill="#FFFFFF" style="stroke:#000000;stroke-width:1;"/><text fill="#000000" font-family="Verdana" font-size="13" lengthAdjust="spacing" textLength="95.5386" x="245.73" y="323.0956">Load-balanced</text><text fill="#000000" font-family="Verdana" font-size="13" lengthAdjust="spacing" textLength="59.5664" x="245.73" y="338.2285">Stateless</text></g><!--entity MariaDB--><g class="entity" data-entity="MariaDB" data-source-line="14" data-uid="ent0008" id="entity_MariaDB"><rect fill="#90EE90" height="56.5938" rx="2.5" ry="2.5" style="stroke:#000000;stroke-width:1;" width="137.4082" x="34.3" y="536.6588"/><rect fill="#90EE90" height="56.5938" rx="2.5" ry="2.5" style="stroke:#000000;stroke-width:1;" width="137.4082" x="30.3" y="532.6588"/><text fill="#000000" font-family="Verdana" font-size="14" lengthAdjust="spacing" textLength="113.4082" x="42.3" y="557.6539">MariaDB Cluster</text><text fill="#000000" font-family="Verdana" font-size="14" lengthAdjust="spacing" textLength="76.6514" x="42.3" y="573.9507">Replicas: 3</text></g><g class="entity" data-entity="GMN9" data-source-line="15" data-uid="ent0010" id="entity_GMN9"><path d="M39.88,664.8388 L39.88,697.9716 A0,0 0 0 0 39.88,697.9716 L162.1144,697.9716 A0,0 0 0 0 162.1144,697.9716 L162.1144,674.8388 L152.1144,664.8388 L105,664.8388 L101,593.6388 L97,664.8388 L39.88,664.8388 A0,0 0 0 0 39.88,664.8388" fill="#FFFFFF" style="stroke:#000000;stroke-width:1;"/><path d="M152.1144,664.8388 L152.1144,674.8388 L162.1144,674.8388 L152.1144,664.8388" fill="#FFFFFF" style="stroke:#000000;stroke-width:1;"/><text fill="#000000" font-family="Verdana" font-size="13" lengthAdjust="spacing" textLength="93.2344" x="49.88" y="685.9056">Galera Cluster</text></g><!--entity InfluxDB--><g class="entity" data-entity="InfluxDB" data-source-line="16" data-uid="ent0012" id="entity_InfluxDB"><rect fill="#E6E6FA" height="56.5938" rx="2.5" ry="2.5" style="stroke:#000000;stroke-width:1;" width="137.5039" x="31.25" y="159.2188"/><rect fill="#E6E6FA" height="56.5938" rx="2.5" ry="2.5" style="stroke:#000000;stroke-width:1;" width="137.5039" x="27.25" y="155.2188"/><text fill="#000000" font-family="Verdana" font-size="14" lengthAdjust="spacing" textLength="113.5039" x="39.25" y="180.2139">InfluxDB Cluster</text><text fill="#000000" font-family="Verdana" font-size="14" lengthAdjust="spacing" textLength="76.6514" x="39.25" y="196.5107">Replicas: 2</text></g><!--entity redis--><g class="entity" data-entity="redis" data-source-line="17" data-uid="ent0013" id="entity_redis"><rect fill="#FA8072" height="70.5938" rx="2.5" ry="2.5" style="stroke:#000000;stroke-width:1;" width="160.5947" x="203.7" y="150.2188"/><rect fill="#FA8072" height="10" style="stroke:#000000;stroke-width:1;" width="15" x="344.2947" y="155.2188"/><rect fill="#FA8072" height="2" style="stroke:#000000;stroke-width:1;" width="4" x="342.2947" y="157.2188"/><rect fill="#FA8072" height="2" style="stroke:#000000;stroke-width:1;" width="4" x="342.2947" y="161.2188"/><text fill="#000000" font-family="Verdana" font-size="14" lengthAdjust="spacing" textLength="38.4111" x="222.7" y="187.2139">Redis</text><text fill="#000000" font-family="Verdana" font-size="14" lengthAdjust="spacing" textLength="112.5947" x="222.7" y="203.5107">(Session/Cache)</text></g><!--entity vue--><g class="entity" data-entity="vue" data-source-line="22" data-uid="ent0015" id="entity_vue"><rect fill="#FFD700" height="54.2969" rx="2.5" ry="2.5" style="stroke:#000000;stroke-width:1;" width="157.7236" x="420.14" y="535.8087"/><rect fill="#FFD700" height="10" style="stroke:#000000;stroke-width:1;" width="15" x="557.8636" y="540.8087"/><rect fill="#FFD700" height="2" style="stroke:#000000;stroke-width:1;" width="4" x="555.8636" y="542.8087"/><rect fill="#FFD700" height="2" style="stroke:#000000;stroke-width:1;" width="4" x="555.8636" y="546.8087"/><text fill="#000000" font-family="Verdana" font-size="14" lengthAdjust="spacing" textLength="109.7236" x="439.14" y="572.8039">Vue.js + Vite UI</text></g><!--entity mqtt--><g class="entity" data-entity="mqtt" data-source-line="23" data-uid="ent0016" id="entity_mqtt"><rect fill="#F5DEB3" height="54.2969" rx="2.5" ry="2.5" style="stroke:#000000;stroke-width:1;" width="139.0547" x="1090.47" y="654.2588"/><rect fill="#F5DEB3" height="10" style="stroke:#000000;stroke-width:1;" width="15" x="1209.5247" y="659.2588"/><rect fill="#F5DEB3" height="2" style="stroke:#000000;stroke-width:1;" width="4" x="1207.5247" y="661.2588"/><rect fill="#F5DEB3" height="2" style="stroke:#000000;stroke-width:1;" width="4" x="1207.5247" y="665.2588"/><text fill="#000000" font-family="Verdana" font-size="14" lengthAdjust="spacing" textLength="91.0547" x="1109.47" y="691.2539">MQTT Broker</text></g><!--entity telegraf--><g class="entity" data-entity="telegraf" data-source-line="24" data-uid="ent0017" id="entity_telegraf"><rect fill="#D3D3D3" height="54.2969" rx="2.5" ry="2.5" style="stroke:#000000;stroke-width:1;" width="105.8184" x="1253.09" y="769.5488"/><rect fill="#D3D3D3" height="10" style="stroke:#000000;stroke-width:1;" width="15" x="1338.9084" y="774.5488"/><rect fill="#D3D3D3" height="2" style="stroke:#000000;stroke-width:1;" width="4" x="1336.9084" y="776.5488"/><rect fill="#D3D3D3" height="2" style="stroke:#000000;stroke-width:1;" width="4" x="1336.9084" y="780.5488"/><text fill="#000000" font-family="Verdana" font-size="14" lengthAdjust="spacing" textLength="57.8184" x="1272.09" y="806.5439">Telegraf</text></g><!--entity us--><g class="entity" data-entity="us" data-source-line="27" data-uid="ent0019" id="entity_us"><rect fill="#FFFFFF" height="54.2969" rx="2.5" ry="2.5" style="stroke:#000000;stroke-width:1;" width="118.2803" x="612.86" y="535.8087"/><rect fill="#FFFFFF" height="10" style="stroke:#000000;stroke-width:1;" width="15" x="711.1403" y="540.8087"/><rect fill="#FFFFFF" height="2" style="stroke:#000000;stroke-width:1;" width="4" x="709.1403" y="542.8087"/><rect fill="#FFFFFF" height="2" style="stroke:#000000;stroke-width:1;" width="4" x="709.1403" y="546.8087"/><text fill="#000000" font-family="Verdana" font-size="14" lengthAdjust="spacing" textLength="70.2803" x="631.86" y="572.8039">Ultrasonic</text></g><!--entity weight--><g class="entity" data-entity="weight" data-source-line="28" data-uid="ent0020" id="entity_weight"><rect fill="#FFFFFF" height="54.2969" rx="2.5" ry="2.5" style="stroke:#000000;stroke-width:1;" width="128.2129" x="765.89" y="535.8087"/><rect fill="#FFFFFF" height="10" style="stroke:#000000;stroke-width:1;" width="15" x="874.1029" y="540.8087"/><rect fill="#FFFFFF" height="2" style="stroke:#000000;stroke-width:1;" width="4" x="872.1029" y="542.8087"/><rect fill="#FFFFFF" height="2" style="stroke:#000000;stroke-width:1;" width="4" x="872.1029" y="546.8087"/><text fill="#000000" font-family="Verdana" font-size="14" lengthAdjust="spacing" textLength="80.2129" x="784.89" y="572.8039">Weight Cell</text></g><!--entity lux--><g class="entity" data-entity="lux" data-source-line="29" data-uid="ent0021" id="entity_lux"><rect fill="#FFFFFF" height="54.2969" rx="2.5" ry="2.5" style="stroke:#000000;stroke-width:1;" width="135.377" x="929.31" y="535.8087"/><rect fill="#FFFFFF" height="10" style="stroke:#000000;stroke-width:1;" width="15" x="1044.687" y="540.8087"/><rect fill="#FFFFFF" height="2" style="stroke:#000000;stroke-width:1;" width="4" x="1042.687" y="542.8087"/><rect fill="#FFFFFF" height="2" style="stroke:#000000;stroke-width:1;" width="4" x="1042.687" y="546.8087"/><text fill="#000000" font-family="Verdana" font-size="14" lengthAdjust="spacing" textLength="87.377" x="948.31" y="572.8039">Light Sensor</text></g><!--entity camera--><g class="entity" data-entity="camera" data-source-line="30" data-uid="ent0022" id="entity_camera"><rect fill="#FFFFFF" height="54.2969" rx="2.5" ry="2.5" style="stroke:#000000;stroke-width:1;" width="121.0967" x="1099.45" y="535.8087"/><rect fill="#FFFFFF" height="10" style="stroke:#000000;stroke-width:1;" width="15" x="1200.5467" y="540.8087"/><rect fill="#FFFFFF" height="2" style="stroke:#000000;stroke-width:1;" width="4" x="1198.5467" y="542.8087"/><rect fill="#FFFFFF" height="2" style="stroke:#000000;stroke-width:1;" width="4" x="1198.5467" y="546.8087"/><text fill="#000000" font-family="Verdana" font-size="14" lengthAdjust="spacing" textLength="73.0967" x="1118.45" y="572.8039">AI Camera</text></g><!--entity gps--><g class="entity" data-entity="gps" data-source-line="31" data-uid="ent0023" id="entity_gps"><rect fill="#FFFFFF" height="54.2969" rx="2.5" ry="2.5" style="stroke:#000000;stroke-width:1;" width="76.1777" x="1255.91" y="535.8087"/><rect fill="#FFFFFF" height="10" style="stroke:#000000;stroke-width:1;" width="15" x="1312.0877" y="540.8087"/><rect fill="#FFFFFF" height="2" style="stroke:#000000;stroke-width:1;" width="4" x="1310.0877" y="542.8087"/><rect fill="#FFFFFF" height="2" style="stroke:#000000;stroke-width:1;" width="4" x="1310.0877" y="546.8087"/><text fill="#000000" font-family="Verdana" font-size="14" lengthAdjust="spacing" textLength="28.1777" x="1274.91" y="572.8039">GPS</text></g><!--entity nfc--><g class="entity" data-entity="nfc" data-source-line="32" data-uid="ent0024" id="entity_nfc"><rect fill="#FFFFFF" height="54.2969" rx="2.5" ry="2.5" style="stroke:#000000;stroke-width:1;" width="113.707" x="1367.15" y="535.8087"/><rect fill="#FFFFFF" height="10" style="stroke:#000000;stroke-width:1;" width="15" x="1460.857" y="540.8087"/><rect fill="#FFFFFF" height="2" style="stroke:#000000;stroke-width:1;" width="4" x="1458.857" y="542.8087"/><rect fill="#FFFFFF" height="2" style="stroke:#000000;stroke-width:1;" width="4" x="1458.857" y="546.8087"/><text fill="#000000" font-family="Verdana" font-size="14" lengthAdjust="spacing" textLength="65.707" x="1386.15" y="572.8039">NFC/RFID</text></g><!--entity g1--><g class="entity" data-entity="g1" data-source-line="63" data-uid="ent0044" id="entity_g1"><ellipse cx="1634" cy="185.5087" fill="#87CEEB" rx="8" ry="8" style="stroke:#000000;stroke-width:1;"/><text fill="#000000" font-family="Verdana" font-size="14" lengthAdjust="spacing" textLength="76.2412" x="1595.8794" y="219.5039">Golang API</text></g><!--entity m1--><g class="entity" data-entity="m1" data-source-line="64" data-uid="ent0045" id="entity_m1"><ellipse cx="1877" cy="185.5087" fill="#90EE90" rx="8" ry="8" style="stroke:#000000;stroke-width:1;"/><text fill="#000000" font-family="Verdana" font-size="14" lengthAdjust="spacing" textLength="59.2676" x="1847.3662" y="219.5039">MariaDB</text></g><!--entity i1--><g class="entity" data-entity="i1" data-source-line="65" data-uid="ent0046" id="entity_i1"><ellipse cx="1760" cy="185.5087" fill="#E6E6FA" rx="8" ry="8" style="stroke:#000000;stroke-width:1;"/><text fill="#000000" font-family="Verdana" font-size="14" lengthAdjust="spacing" textLength="59.3633" x="1730.3184" y="219.5039">InfluxDB</text></g><!--entity r1--><g class="entity" data-entity="r1" data-source-line="66" data-uid="ent0047" id="entity_r1"><ellipse cx="1984" cy="185.5087" fill="#FA8072" rx="8" ry="8" style="stroke:#000000;stroke-width:1;"/><text fill="#000000" font-family="Verdana" font-size="14" lengthAdjust="spacing" textLength="38.4111" x="1964.7944" y="219.5039">Redis</text></g><!--entity mo1--><g class="entity" data-entity="mo1" data-source-line="67" data-uid="ent0048" id="entity_mo1"><ellipse cx="2082" cy="185.5087" fill="#F5DEB3" rx="8" ry="8" style="stroke:#000000;stroke-width:1;"/><text fill="#000000" font-family="Verdana" font-size="14" lengthAdjust="spacing" textLength="40.2021" x="2061.8989" y="219.5039">MQTT</text></g><!--entity v1--><g class="entity" data-entity="v1" data-source-line="68" data-uid="ent0049" id="entity_v1"><ellipse cx="2183" cy="185.5087" fill="#FFD700" rx="8" ry="8" style="stroke:#000000;stroke-width:1;"/><text fill="#000000" font-family="Verdana" font-size="14" lengthAdjust="spacing" textLength="45.8896" x="2160.0552" y="219.5039">Vue UI</text></g><!--entity t1--><g class="entity" data-entity="t1" data-source-line="69" data-uid="ent0050" id="entity_t1"><ellipse cx="2292" cy="185.5087" fill="#D3D3D3" rx="8" ry="8" style="stroke:#000000;stroke-width:1;"/><text fill="#000000" font-family="Verdana" font-size="14" lengthAdjust="spacing" textLength="57.8184" x="2263.0908" y="219.5039">Telegraf</text></g><!--entity 2 replicas--><g class="entity" data-entity="2 replicas" data-source-line="71" data-uid="ent0051" id="entity_2 replicas"><ellipse cx="1668.0014" cy="292.5087" fill="#FFFFFF" rx="8" ry="8" style="stroke:#000000;stroke-width:1;"/><path d="M1668.0014,300.5087 L1668.0014,327.5087 M1655.0014,308.5087 L1681.0014,308.5087 M1668.0014,327.5087 L1655.0014,342.5087 M1668.0014,327.5087 L1681.0014,342.5087" fill="none" style="stroke:#000000;stroke-width:1;"/><text fill="#000000" font-family="Verdana" font-size="14" lengthAdjust="spacing" textLength="67.9629" x="1634.02" y="361.5039">2 replicas</text></g><!--entity 3 replicas (Galera)--><g class="entity" data-entity="3 replicas .Galera." data-source-line="72" data-uid="ent0053" id="entity_3 replicas .Galera."><ellipse cx="1825.0013" cy="292.5087" fill="#FFFFFF" rx="8" ry="8" style="stroke:#000000;stroke-width:1;"/><path d="M1825.0013,300.5087 L1825.0013,327.5087 M1812.0013,308.5087 L1838.0013,308.5087 M1825.0013,327.5087 L1812.0013,342.5087 M1825.0013,327.5087 L1838.0013,342.5087" fill="none" style="stroke:#000000;stroke-width:1;"/><text fill="#000000" font-family="Verdana" font-size="14" lengthAdjust="spacing" textLength="129.6025" x="1760.2" y="361.5039">3 replicas (Galera)</text></g><!--entity 1 replica + persistence--><g class="entity" data-entity="1 replica . persistence" data-source-line="74" data-uid="ent0056" id="entity_1 replica . persistence"><ellipse cx="2013.9997" cy="292.5087" fill="#FFFFFF" rx="8" ry="8" style="stroke:#000000;stroke-width:1;"/><path d="M2013.9997,300.5087 L2013.9997,327.5087 M2000.9997,308.5087 L2026.9997,308.5087 M2013.9997,327.5087 L2000.9997,342.5087 M2013.9997,327.5087 L2026.9997,342.5087" fill="none" style="stroke:#000000;stroke-width:1;"/><text fill="#000000" font-family="Verdana" font-size="14" lengthAdjust="spacing" textLength="162.3193" x="1932.84" y="361.5039">1 replica + persistence</text></g><!--entity 1 per cart--><g class="entity" data-entity="1 per cart" data-source-line="75" data-uid="ent0058" id="entity_1 per cart"><ellipse cx="2183.0025" cy="292.5087" fill="#FFFFFF" rx="8" ry="8" style="stroke:#000000;stroke-width:1;"/><path d="M2183.0025,300.5087 L2183.0025,327.5087 M2170.0025,308.5087 L2196.0025,308.5087 M2183.0025,327.5087 L2170.0025,342.5087 M2183.0025,327.5087 L2196.0025,342.5087" fill="none" style="stroke:#000000;stroke-width:1;"/><text fill="#000000" font-family="Verdana" font-size="14" lengthAdjust="spacing" textLength="68.585" x="2148.71" y="361.5039">1 per cart</text></g><!--entity user--><g class="entity" data-entity="user" data-source-line="8" data-uid="ent0002" id="entity_user"><ellipse cx="1159.9951" cy="292.5087" fill="#FFFFE0" rx="8" ry="8" style="stroke:#000000;stroke-width:1;"/><path d="M1159.9951,300.5087 L1159.9951,327.5087 M1146.9951,308.5087 L1172.9951,308.5087 M1159.9951,327.5087 L1146.9951,342.5087 M1159.9951,327.5087 L1172.9951,342.5087" fill="none" style="stroke:#000000;stroke-width:1;"/><text fill="#000000" font-family="Verdana" font-size="14" lengthAdjust="spacing" textLength="31.9102" x="1144.04" y="361.5039">User</text></g><!--link us to mqtt--><g class="link" data-entity-1="us" data-entity-2="mqtt" data-source-line="37" data-uid="lnk25" id="link_us_mqtt"><path d="M705.48,590.4788 C718.15,599.2888 733.12,608.3088 748,614.1088 C862.6,658.7388 1000.3797,672.9881 1084.2497,677.7581" fill="none" id="us-to-mqtt" style="stroke:#000000;stroke-width:1;"/><polygon fill="#000000" points="1090.24,678.0988,1081.4816,673.5942,1085.2481,677.8148,1081.0274,681.5813,1090.24,678.0988" style="stroke:#000000;stroke-width:1;"/></g><!--link lux to mqtt--><g class="link" data-entity-1="lux" data-entity-2="mqtt" data-source-line="38" data-uid="lnk26" id="link_lux_mqtt"><path d="M1033.99,590.3788 C1060.57,609.3688 1091.3772,631.3818 1117.9972,650.3918" fill="none" id="lux-to-mqtt" style="stroke:#000000;stroke-width:1;"/><polygon fill="#000000" points="1122.88,653.8788,1117.8804,645.3932,1118.811,650.973,1113.2312,651.9036,1122.88,653.8788" style="stroke:#000000;stroke-width:1;"/></g><!--link weight to mqtt--><g class="link" data-entity-1="weight" data-entity-2="mqtt" data-source-line="39" data-uid="lnk27" id="link_weight_mqtt"><path d="M868.39,590.5788 C881.75,598.9788 897.12,607.7288 912,614.1088 C969.86,638.9087 1033.502,655.2773 1084.192,666.0873" fill="none" id="weight-to-mqtt" style="stroke:#000000;stroke-width:1;"/><polygon fill="#000000" points="1090.06,667.3388,1082.0922,661.5496,1085.17,666.2959,1080.4237,669.3737,1090.06,667.3388" style="stroke:#000000;stroke-width:1;"/></g><!--link camera to mqtt--><g class="link" data-entity-1="camera" data-entity-2="mqtt" data-source-line="40" data-uid="lnk28" id="link_camera_mqtt"><path d="M1160,590.3788 C1160,609.4388 1160,629.0488 1160,648.0888" fill="none" id="camera-to-mqtt" style="stroke:#000000;stroke-width:1;"/><polygon fill="#000000" points="1160,654.0888,1164,645.0888,1160,649.0888,1156,645.0888,1160,654.0888" style="stroke:#000000;stroke-width:1;"/></g><!--link gps to mqtt--><g class="link" data-entity-1="gps" data-entity-2="mqtt" data-source-line="41" data-uid="lnk29" id="link_gps_mqtt"><path d="M1264.77,590.3888 C1256.19,598.0788 1246.75,606.4688 1238,614.1088 C1222.87,627.3088 1210.4818,637.9048 1196.2418,649.9448" fill="none" id="gps-to-mqtt" style="stroke:#000000;stroke-width:1;"/><polygon fill="#000000" points="1191.66,653.8188,1201.1153,651.0624,1195.4782,650.5905,1195.9501,644.9533,1191.66,653.8188" style="stroke:#000000;stroke-width:1;"/></g><!--link nfc to mqtt--><g class="link" data-entity-1="nfc" data-entity-2="mqtt" data-source-line="42" data-uid="lnk30" id="link_nfc_mqtt"><path d="M1389.01,590.3988 C1377.05,598.6887 1363.31,607.4187 1350,614.1088 C1311.76,633.3188 1272.3367,647.5385 1235.6467,659.0085" fill="none" id="nfc-to-mqtt" style="stroke:#000000;stroke-width:1;"/><polygon fill="#000000" points="1229.92,660.7988,1239.7035,661.9311,1234.6922,659.3069,1237.3165,654.2956,1229.92,660.7988" style="stroke:#000000;stroke-width:1;"/></g><!--link mqtt to telegraf--><g class="link" data-entity-1="mqtt" data-entity-2="telegraf" data-source-line="44" data-uid="lnk31" id="link_mqtt_telegraf"><path d="M1194.23,708.9688 C1217.58,727.0788 1243.6398,747.3103 1266.9898,765.4303" fill="none" id="mqtt-to-telegraf" style="stroke:#000000;stroke-width:1;"/><polygon fill="#000000" points="1271.73,769.1088,1267.0721,760.431,1267.7799,766.0434,1262.1675,766.7512,1271.73,769.1088" style="stroke:#000000;stroke-width:1;"/></g><!--link telegraf to InfluxDB--><g class="link" data-entity-1="telegraf" data-entity-2="InfluxDB" data-source-line="45" data-uid="lnk32" id="link_telegraf_InfluxDB"><path d="M1359.17,792.1788 C1426.54,784.5088 1534,760.0888 1534,682.3988 C1534,325.1587 1534,325.1587 1534,325.1587 C1534,174.2487 1347.28,297.3188 1197,283.5087 C748.74,242.3288 624.88,322.6287 186,222.5087 C178.76,220.8588 177.0211,220.6088 169.7211,218.1288" fill="none" id="telegraf-to-InfluxDB" style="stroke:#000000;stroke-width:1;"/><polygon fill="#000000" points="164.04,216.1988,171.275,222.8812,168.7743,217.8071,173.8483,215.3064,164.04,216.1988" style="stroke:#000000;stroke-width:1;"/></g><!--link InfluxDB to GO--><g class="link" data-entity-1="InfluxDB" data-entity-2="GO" data-source-line="46" data-uid="lnk33" id="link_InfluxDB_GO"><path d="M108.73,216.2587 C117.16,239.6487 126.8249,266.4444 135.2549,289.8244" fill="none" id="InfluxDB-to-GO" style="stroke:#000000;stroke-width:1;"/><polygon fill="#000000" points="137.29,295.4688,138.0002,285.6455,135.5941,290.7652,130.4744,288.359,137.29,295.4688" style="stroke:#000000;stroke-width:1;"/></g><!--link user to vue--><g class="link" data-entity-1="user" data-entity-2="vue" data-source-line="48" data-uid="lnk34" id="link_user_vue"><path d="M1139.61,336.8688 C1094.35,357.8688 981.51,407.0988 881,425.8088 C849.96,431.5888 625.1,419.4288 597,433.8088 C554.74,455.4387 528.1035,499.2127 513.1535,529.9627" fill="none" id="user-to-vue" style="stroke:#000000;stroke-width:1;"/><polygon fill="#000000" points="510.53,535.3588,518.0626,529.0136,512.7162,530.862,510.8678,525.5157,510.53,535.3588" style="stroke:#000000;stroke-width:1;"/><text fill="#000000" font-family="Verdana" font-size="13" lengthAdjust="spacing" textLength="54.1582" x="981" y="417.8756">touch UI</text></g><!--link user to nfc--><g class="link" data-entity-1="user" data-entity-2="nfc" data-source-line="49" data-uid="lnk35" id="link_user_nfc"><path d="M1180.29,334.3688 C1217.71,348.4788 1298.47,382.8988 1350,433.8088 C1379.88,463.3288 1399.4298,501.8982 1411.3498,529.8982" fill="none" id="user-to-nfc" style="stroke:#000000;stroke-width:1;"/><polygon fill="#000000" points="1413.7,535.4188,1413.8551,525.5711,1411.7415,530.8183,1406.4943,528.7047,1413.7,535.4188" style="stroke:#000000;stroke-width:1;"/><text fill="#000000" font-family="Verdana" font-size="13" lengthAdjust="spacing" textLength="66.6821" x="1346" y="417.8756">scan / pay</text></g><!--link vue to GO--><g class="link" data-entity-1="vue" data-entity-2="GO" data-source-line="51" data-uid="lnk36" id="link_vue_GO"><path d="M483.04,535.5188 C463.1,505.1488 425.97,456.6088 380,433.8088 C347.59,417.7388 332.95,438.3088 299,425.8088 C280.72,419.0788 281.01,408.2388 263,400.8088 C244.22,393.0588 236.16,401.9088 218,392.8088 C200.72,384.1488 188.8505,374.2201 176.5305,361.1801" fill="none" id="vue-to-GO" style="stroke:#000000;stroke-width:1;"/><polygon fill="#000000" points="172.41,356.8188,175.6832,366.1078,175.8438,360.4532,181.4983,360.6137,172.41,356.8188" style="stroke:#000000;stroke-width:1;"/><text fill="#000000" font-family="Verdana" font-size="13" lengthAdjust="spacing" textLength="142.562" x="304" y="417.8756">cart, search, minimap</text></g><!--link GO to vue--><g class="link" data-entity-1="GO" data-entity-2="vue" data-source-line="52" data-uid="lnk37" id="link_GO_vue"><path d="M170.95,356.9088 C183.28,370.4888 199.69,385.2088 218,392.8088 C242.33,402.9088 434.33,384.4688 455,400.8088 C495.61,432.9188 501.0566,492.5992 500.5866,529.4192" fill="none" id="GO-to-vue" style="stroke:#000000;stroke-width:1;"/><polygon fill="#000000" points="500.51,535.4188,504.6245,526.4705,500.5738,530.4192,496.6252,526.3684,500.51,535.4188" style="stroke:#000000;stroke-width:1;"/><text fill="#000000" font-family="Verdana" font-size="13" lengthAdjust="spacing" textLength="107.7705" x="481" y="417.8756">updates &amp; alerts</text></g><!--link GO to vue--><g class="link" data-entity-1="GO" data-entity-2="vue" data-source-line="57" data-uid="lnk40" id="link_GO_vue"><path d="M170.6,356.6688 C182.95,370.3688 199.49,385.2588 218,392.8088 C237.71,400.8488 586.11,385.6088 601,400.8088 C608.77,408.7488 604.51,415.2688 601,425.8088 C596.84,438.3188 552.6294,494.8765 523.9794,530.8265" fill="none" id="GO-to-vue-1" style="stroke:#000000;stroke-width:1;"/><polygon fill="#000000" points="520.24,535.5188,528.9773,530.9734,523.3562,531.6086,522.721,525.9875,520.24,535.5188" style="stroke:#000000;stroke-width:1;"/><text fill="#000000" font-family="Verdana" font-size="13" lengthAdjust="spacing" textLength="119.5581" x="611" y="417.8756">Weight mismatch!</text></g><!--link GO to vue--><g class="link" data-entity-1="GO" data-entity-2="vue" data-source-line="58" data-uid="lnk41" id="link_GO_vue"><path d="M170.58,356.7088 C182.93,370.4188 199.46,385.3188 218,392.8088 C231.52,398.2788 732.77,390.4188 743,400.8088 C750.8,408.7288 750.64,417.7388 743,425.8088 C731.83,437.6088 611.36,426.2188 597,433.8088 C555.03,455.9988 528.3301,499.5957 513.2801,530.1657" fill="none" id="GO-to-vue-2" style="stroke:#000000;stroke-width:1;"/><polygon fill="#000000" points="510.63,535.5487,518.1939,529.241,512.8384,531.0629,511.0165,525.7075,510.63,535.5487" style="stroke:#000000;stroke-width:1;"/><text fill="#000000" font-family="Verdana" font-size="13" lengthAdjust="spacing" textLength="114.5498" x="754" y="417.8756">Emergency mode</text></g><!--link GO to vue--><g class="link" data-entity-1="GO" data-entity-2="vue" data-source-line="59" data-uid="lnk42" id="link_GO_vue"><path d="M132.96,356.5688 C124.06,378.5588 117.58,407.8088 135,425.8088 C144.47,435.5988 367.61,428.1588 380,433.8088 C426.97,455.2088 460.8106,499.6356 480.4206,530.4756" fill="none" id="GO-to-vue-3" style="stroke:#000000;stroke-width:1;"/><polygon fill="#000000" points="483.64,535.5387,482.1862,525.7978,480.9571,531.3195,475.4354,530.0904,483.64,535.5387" style="stroke:#000000;stroke-width:1;"/><text fill="#000000" font-family="Verdana" font-size="13" lengthAdjust="spacing" textLength="110.2397" x="140" y="417.8756">Follow-me active</text></g><!--link GO to MariaDB--><g class="link" data-entity-1="GO" data-entity-2="MariaDB" data-source-line="54" data-uid="lnk38" id="link_GO_MariaDB"><path d="M110.97,356.8488 C101.61,369.7188 93.35,385.3688 89,400.8088 C76.47,445.2588 76.7299,493.4991 83.9599,526.3391" fill="none" id="GO-to-MariaDB" style="stroke:#000000;stroke-width:1;"/><polygon fill="#000000" points="85.25,532.1988,87.2214,522.5492,84.175,527.3157,79.4085,524.2693,85.25,532.1988" style="stroke:#000000;stroke-width:1;"/></g><!--link MariaDB to GO--><g class="link" data-entity-1="MariaDB" data-entity-2="GO" data-source-line="55" data-uid="lnk39" id="link_MariaDB_GO"><path d="M110.88,532.1988 C113.02,499.3588 111.47,445.2588 124,400.8088 C128.35,385.3688 133.8524,375.0475 140.5124,362.1775" fill="none" id="MariaDB-to-GO" style="stroke:#000000;stroke-width:1;"/><polygon fill="#000000" points="143.27,356.8488,135.5812,363.0036,140.972,361.2894,142.6862,366.6803,143.27,356.8488" style="stroke:#000000;stroke-width:1;"/></g><!--link g1 to 2 replicas--><g class="link" data-entity-1="g1" data-entity-2="2 replicas" data-source-line="71" data-uid="lnk52" id="link_g1_2 replicas"><path d="M1635.93,194.3687 C1640.04,211.1487 1648.5218,245.7312 1656.2418,277.2312" fill="none" id="g1-to-2 replicas" style="stroke:#000000;stroke-width:1;"/><polygon fill="#000000" points="1657.67,283.0588,1659.4127,273.3653,1656.4798,278.2025,1651.6427,275.2696,1657.67,283.0588" style="stroke:#000000;stroke-width:1;"/></g><!--link m1 to 3 replicas (Galera)--><g class="link" data-entity-1="m1" data-entity-2="3 replicas .Galera." data-source-line="72" data-uid="lnk54" id="link_m1_3 replicas .Galera."><path d="M1874.06,194.3687 C1867.76,211.1487 1854.7179,245.9412 1842.8979,277.4412" fill="none" id="m1-to-3 replicas (Galera)" style="stroke:#000000;stroke-width:1;"/><polygon fill="#000000" points="1840.79,283.0588,1847.6969,276.0377,1842.5466,278.3775,1840.2068,273.2272,1840.79,283.0588" style="stroke:#000000;stroke-width:1;"/></g><!--link i1 to 2 replicas--><g class="link" data-entity-1="i1" data-entity-2="2 replicas" data-source-line="73" data-uid="lnk55" id="link_i1_2 replicas"><path d="M1754.79,194.3687 C1743.65,211.1487 1720.1572,246.5591 1699.2572,278.0591" fill="none" id="i1-to-2 replicas" style="stroke:#000000;stroke-width:1;"/><polygon fill="#000000" points="1695.94,283.0588,1704.2489,277.7708,1698.7043,278.8924,1697.5827,273.3479,1695.94,283.0588" style="stroke:#000000;stroke-width:1;"/></g><!--link r1 to 1 replica + persistence--><g class="link" data-entity-1="r1" data-entity-2="1 replica . persistence" data-source-line="74" data-uid="lnk57" id="link_r1_1 replica . persistence"><path d="M1985.7,194.3687 C1989.33,211.1487 1996.8004,245.6946 2003.6204,277.1946" fill="none" id="r1-to-1 replica + persistence" style="stroke:#000000;stroke-width:1;"/><polygon fill="#000000" points="2004.89,283.0588,2006.895,273.4161,2003.832,278.172,1999.0761,275.109,2004.89,283.0588" style="stroke:#000000;stroke-width:1;"/></g><!--link mo1 to 1 per cart--><g class="link" data-entity-1="mo1" data-entity-2="1 per cart" data-source-line="75" data-uid="lnk59" id="link_mo1_1 per cart"><path d="M2087.72,194.3687 C2099.95,211.1487 2125.8469,246.7093 2148.7969,278.2093" fill="none" id="mo1-to-1 per cart" style="stroke:#000000;stroke-width:1;"/><polygon fill="#000000" points="2152.33,283.0588,2150.2632,273.4292,2149.3857,279.0176,2143.7973,278.1401,2152.33,283.0588" style="stroke:#000000;stroke-width:1;"/></g><!--link v1 to 1 per cart--><g class="link" data-entity-1="v1" data-entity-2="1 per cart" data-source-line="76" data-uid="lnk60" id="link_v1_1 per cart"><path d="M2183,194.3687 C2183,211.1487 2183,245.5588 2183,277.0588" fill="none" id="v1-to-1 per cart" style="stroke:#000000;stroke-width:1;"/><polygon fill="#000000" points="2183,283.0588,2187,274.0588,2183,278.0588,2179,274.0588,2183,283.0588" style="stroke:#000000;stroke-width:1;"/></g><!--link t1 to 1 per cart--><g class="link" data-entity-1="t1" data-entity-2="1 per cart" data-source-line="77" data-uid="lnk61" id="link_t1_1 per cart"><path d="M2285.83,194.3687 C2272.63,211.1487 2244.5679,246.8416 2219.8079,278.3416" fill="none" id="t1-to-1 per cart" style="stroke:#000000;stroke-width:1;"/><polygon fill="#000000" points="2216.1,283.0588,2224.8066,278.4549,2219.1899,279.1278,2218.517,273.5111,2216.1,283.0588" style="stroke:#000000;stroke-width:1;"/></g><!--SRC=[XLHjRo8t4FxkNp6tI6rGZqRSzHDIAv7bHKZaI5cuw7Iv3ywkOTtuPMjxoQ4g_xrZxniqv4eaYESPpupdcNdUkPn91eMWN17xn5L13PLWSvhfPwxsiAF2iXEae5dcxR-Ts1vf-hGtkbHPh8Ksq9kD_HyXZZl1897KE8Zzrm1cfH2G7ArZ4iOcpRbZgIiDUr1N4vq-CGF9CpKI9gmG-YYPSdr2QEemxDOYIYsK_hUtvFlSVM52w6T2VeRVBtmWNgws4_pU9flf-g8BAR1skcSGdMMFHOaL6Ymg5hhCu1gcsPxrephjZIWP_4C0FwaM0b_0jR8GpRMWs9lntU91hV41FALs11yYN_LyLLzEdex-VhYjj6DWl1NqphkCOAbfDdYa62XbsODA77LCC6jVPxkbXjF9JLTib_9ZIDauL7ddXZ7LPNtKpcdfqpPk8vXJmGnj0hxEk50xKNw_dB9wPUlHMz83KraTvUkQPTnYEnDy2SQwZccQi_utVyLu27e95L8hyl8ccSdjUBs1s7_zcCbgtf9S5uMVL3zuIDpA83KDQry_b-pNlopy0fzn066x29KSaDKUSfXLFhT_RZPmOpIEHO3btyv1xpvdr5KE6oHcR-WkeAu-jDscHnBSkhgOijhOgAuXXDWAPwZLYgVVgj7ke7iMvYB64G_OSpXtU4W3LT3WW8tlqF427owHpG2buTyEdTybmRulJX9-ciNNwzbY4X2rImFoyWD6PilLVNAPZDB2OF17Q1d1khf3zOhkN5NMdR6Yxe15T0SI-k-FJQj9stDlRKQFj3FehVCL8K4m1YXe2WsUv14uNQOvydwE-NmZi2bLkF659z1xLs4GI76IteDb57NhFKYkkAG5GMZGnYsB3FVLma_WLybPqi3raf5csPhQpcv7DUUIMqbTch-Bpl4fzchFL7e4gJDsZisqby81YZcg9J-mDrcRJE-Mgo-tqqyRs8nlbjF_qyLMY24f9QxMiHdWg_wfueNrtmznaK_qpRlKBmwu7BuI8-_IC1Py-F0_uk4zWdu4s0nRhMWpuA9MuVNmT44zXekED0VqC3pPReyr-njGDtorkVWQtz_e0sfK9NDHiClQ_h6rmrKbdVtAWRznqTJsOMD70IgOiHp55EM-ZgvRByJ2q5N0uGsxks1_-HS0]--></g></svg>